<?xml version="1.0" encoding="UTF-8"?>
<svg width="132px" height="33px" viewBox="0 0 132 33" version="1.1" xmlns="http://www.w3.org/2000/svg" xmlns:xlink="http://www.w3.org/1999/xlink">
    <title>LOGO</title>
    <g id="1/14/21---Editorial" stroke="none" stroke-width="1" fill="none" fill-rule="evenodd">
        <g id="Artboard" transform="translate(-85.000000, -41.000000)" fill="#000000" fill-rule="nonzero">
            <g id="LOGO" transform="translate(85.000000, 41.000000)">
                <path d="M66.8843648,15.4870585 C67.9214829,15.4870585 68.888795,15.2805644 69.7863011,14.8675762 C70.6838072,14.4545879 71.468294,13.9017166 72.1397615,13.2089622 C72.811229,12.5162077 73.3364363,11.7135451 73.7153833,10.8009744 C74.0943303,9.8884036 74.2838038,8.93919679 74.2838038,7.95335392 C74.2838038,6.95418886 74.0910062,5.99832094 73.705411,5.08575018 C73.3198158,4.17317942 72.7912844,3.37384737 72.1198169,2.68775403 C71.4483494,2.00166068 70.6638626,1.4521199 69.7663565,1.03913167 C68.8688505,0.626143441 67.9081865,0.419649328 66.8843648,0.419649328 L66.8843648,0.419649328 L61.1004367,0.419649328 L61.1004367,15.4870585 L66.8843648,15.4870585 Z M65.9070804,12.1698305 L65.0095743,12.1698305 L65.0095743,3.73687734 L65.9070804,3.73687734 C66.5718997,3.73687734 67.1702371,3.84345495 67.7020925,4.05661017 C68.233948,4.26976538 68.682701,4.5628538 69.0483517,4.93587542 C69.4140023,5.30889705 69.6965505,5.75519078 69.8959963,6.27475661 C70.0954421,6.79432245 70.195165,7.35385488 70.195165,7.95335392 C70.195165,8.56617516 70.0987662,9.12903815 69.9059686,9.64194288 C69.713171,10.1548476 69.4339469,10.5978108 69.0682962,10.9708324 C68.7026456,11.343854 68.2538926,11.6369425 67.7220371,11.8500977 C67.1901817,12.0632529 66.5851961,12.1698305 65.9070804,12.1698305 L65.9070804,12.1698305 Z M83.5246681,15.3604354 L83.5246681,12.0710846 L78.8775811,12.0710846 L78.8775811,9.49508699 L83.2653886,9.49508699 L83.2653886,6.20573622 L78.8775811,6.20573622 L78.8775811,3.7090001 L83.5246681,3.7090001 L83.5246681,0.419649328 L74.9684435,0.419649328 L74.9684435,15.3604354 L83.5246681,15.3604354 Z M89.6979194,15.5633188 C90.61537,15.5633188 91.4364219,15.4427487 92.161075,15.2016085 C92.885728,14.9604683 93.4973618,14.6215685 93.9959763,14.1849093 C94.4945908,13.74825 94.8735378,13.2236071 95.1328173,12.6109807 C95.3920969,11.9983542 95.5217366,11.3140374 95.5217366,10.5580303 C95.5217366,9.43705427 95.225892,8.52789054 94.6342028,7.83053916 C94.0425136,7.13318777 93.1084425,6.57595839 91.8319894,6.15885102 C91.5128761,6.05457418 91.1904388,5.95681464 90.8646773,5.8655724 C90.5389158,5.77433017 90.2463953,5.66679467 89.9871158,5.54296592 C89.7278363,5.41913717 89.5184182,5.27249786 89.3588615,5.10304799 C89.1993049,4.93359812 89.1195266,4.71852713 89.1195266,4.45783503 C89.1195266,4.07983147 89.2790832,3.77351825 89.5981965,3.53889535 C89.9173098,3.30427245 90.3294977,3.18696101 90.8347604,3.18696101 C91.233652,3.18696101 91.64584,3.26842729 92.0713244,3.43135986 C92.4968087,3.59429242 92.9222931,3.84520858 93.3477775,4.18410831 L93.3477775,4.18410831 L94.9034547,1.19266639 C94.158857,0.801628228 93.3810184,0.505090957 92.5699389,0.303054574 C91.7588593,0.101018191 90.9810207,0 90.236423,0 C89.4386398,0 88.7173109,0.117311448 88.0724361,0.351934344 C87.4275614,0.58655724 86.8824096,0.915681025 86.4369806,1.3393057 C85.9915517,1.76293037 85.6458456,2.27127998 85.3998625,2.86435452 C85.1538793,3.45742907 85.0308877,4.11893529 85.0308877,4.84887319 C85.0308877,5.57881109 85.1472311,6.18166158 85.3799179,6.65742468 C85.6126047,7.13318777 85.9184215,7.52748458 86.2973686,7.84031511 C86.6763156,8.15314564 87.1084481,8.40406179 87.5937662,8.59306357 C88.0790843,8.78206535 88.5743747,8.95477387 89.0796374,9.11118913 C89.5051218,9.25456979 89.8674483,9.38491585 90.166617,9.50222729 C90.4657857,9.61953874 90.7084448,9.74662614 90.8945942,9.8834895 C91.0807436,10.0203529 91.2137074,10.1702508 91.2934858,10.3331834 C91.3732641,10.496116 91.4131532,10.6883764 91.4131532,10.9099647 C91.4131532,11.2749336 91.2569207,11.6007988 90.9444556,11.8875601 C90.6319905,12.1743214 90.1566447,12.317702 89.5184182,12.317702 C88.9599699,12.317702 88.3948735,12.1938733 87.8231289,11.9462158 C87.2513843,11.6985583 86.6729915,11.3205547 86.0879505,10.8122051 L86.0879505,10.8122051 L84.4126058,13.9014066 C86.0347649,15.0093481 87.7965361,15.5633188 89.6979194,15.5633188 Z M100.196798,15.4870585 L100.196798,0.419649328 L96.2876607,0.419649328 L96.2876607,15.4870585 L100.196798,15.4870585 Z M108.874229,15.5633188 C109.713151,15.5633188 110.512748,15.4590419 111.273021,15.2504882 C112.033294,15.0419346 112.731303,14.73888 113.367048,14.3413245 C114.002794,13.9437691 114.556613,13.4484541 115.028507,12.8553795 C115.5004,12.262305 115.873983,11.5812468 116.149254,10.8122051 C116.345876,10.2647517 116.476958,9.67167716 116.542499,9.0329815 C116.608039,8.39428584 116.64081,7.68389985 116.64081,6.90182353 L116.64081,6.90182353 L108.992202,6.90182353 L108.992202,9.87371355 L112.157821,9.87371355 C112.09228,10.3038555 111.967753,10.6688245 111.784239,10.9686204 C111.600725,11.2684163 111.368055,11.5128152 111.08623,11.7018169 C110.804404,11.8908187 110.486532,12.0276821 110.132612,12.112407 C109.778691,12.1971319 109.411663,12.2394944 109.031527,12.2394944 C108.389227,12.2394944 107.825577,12.1319589 107.340575,11.9168879 C106.855573,11.7018169 106.44922,11.3987624 106.121517,11.0077242 C105.793813,10.6166861 105.548035,10.1539576 105.384183,9.61953874 C105.220331,9.08511992 105.138405,8.50507999 105.138405,7.87941893 C105.138405,7.18858485 105.233439,6.56292379 105.423507,6.00243576 C105.613576,5.44194773 105.875739,4.96292598 106.209997,4.56537052 C106.544255,4.16781506 106.94733,3.86150183 107.419224,3.64643084 C107.891117,3.43135986 108.415443,3.32382436 108.992202,3.32382436 C109.686934,3.32382436 110.306295,3.49979153 110.850283,3.85172588 C111.394271,4.20366022 111.836671,4.78370016 112.177483,5.59184569 L112.177483,5.59184569 L115.834658,4.08634877 C115.153034,2.691646 114.228909,1.66191218 113.062284,0.997147309 C111.895658,0.332382436 110.538964,0 108.992202,0 C107.79936,0 106.717938,0.189001777 105.747934,0.567005332 C104.777931,0.945008887 103.94884,1.4729104 103.260662,2.15070988 C102.572484,2.82850936 102.041604,3.64643084 101.668022,4.60447434 C101.294439,5.56251783 101.107648,6.61506221 101.107648,7.76210748 C101.107648,8.92218736 101.297716,9.98124904 101.677853,10.9392925 C102.057989,11.897336 102.588869,12.7185162 103.270493,13.4028329 C103.952117,14.0871497 104.7681,14.6183099 105.718441,14.9963134 C106.668782,15.374317 107.720711,15.5633188 108.874229,15.5633188 Z M121.107479,15.3748519 L121.107479,6.23115378 L128.18664,15.3748519 L132,15.3748519 L132,0.419649328 L128.18664,0.419649328 L128.18664,9.56334745 L121.107479,0.419649328 L117.274563,0.419649328 L117.274563,15.3748519 L121.107479,15.3748519 Z" id="DESIGN"></path>
                <path d="M6.37752167,32.279476 C7.41771936,32.279476 8.38790373,32.0740852 9.2880748,31.6633037 C10.1882459,31.2525222 10.9750621,30.702605 11.6485234,30.0135522 C12.3219847,29.3244993 12.8487515,28.5261256 13.2288237,27.618431 C13.6088959,26.7107363 13.7989321,25.7666014 13.7989321,24.7860262 C13.7989321,23.7922 13.605562,22.8414395 13.2188218,21.9337449 C12.8320817,21.0260503 12.3019809,20.2309893 11.6285196,19.548562 C10.9550583,18.8661346 10.1682421,18.3195302 9.268071,17.9087487 C8.36789993,17.4979672 7.40438349,17.2925764 6.37752167,17.2925764 L6.37752167,17.2925764 L0.576419214,17.2925764 L0.576419214,32.279476 L6.37752167,32.279476 Z M5.3973354,28.9623755 L4.49716432,28.9623755 L4.49716432,20.5297467 L5.3973354,20.5297467 C6.06412878,20.5297467 6.66424283,20.6363202 7.19767754,20.8494672 C7.73111225,21.0626143 8.18119778,21.3556914 8.54793414,21.7286987 C8.91467051,22.101706 9.1980577,22.5479825 9.39809571,23.0675284 C9.59813373,23.5870742 9.69815274,24.1465852 9.69815274,24.7460611 C9.69815274,25.3588588 9.60146769,25.9217001 9.40809761,26.4345852 C9.21472753,26.9474702 8.93467431,27.3904163 8.56793795,27.7634236 C8.20120158,28.1364309 7.75111605,28.429508 7.21768134,28.642655 C6.68424663,28.855802 6.07746465,28.9623755 5.3973354,28.9623755 L5.3973354,28.9623755 Z M16.423625,32.279476 L17.3160852,29.6756513 L22.869171,29.6756513 L23.7616312,32.279476 L27.9066131,32.279476 L22.2147002,17.2925764 L17.9705561,17.2925764 L12.2786431,32.279476 L16.423625,32.279476 Z M21.9196859,26.6843668 L18.3990168,26.6843668 L20.1593513,21.0642795 L21.9196859,26.6843668 Z M33.1913675,32.279476 L33.1913675,20.5920795 L36.4119795,20.5920795 L36.4119795,17.2925764 L26.0500103,17.2925764 L26.0500103,20.5920795 L29.2706223,20.5920795 L29.2706223,32.279476 L33.1913675,32.279476 Z M38.5662705,32.279476 L39.4664416,29.6756513 L45.067506,29.6756513 L45.9676771,32.279476 L50.1484716,32.279476 L44.4073806,17.2925764 L40.126567,17.2925764 L34.385476,32.279476 L38.5662705,32.279476 Z M44.0273083,26.6843668 L40.5066393,26.6843668 L42.2669738,21.6687511 L44.0273083,26.6843668 Z" id="DATA"></path>
                <path d="M69.1668385,32.279476 L69.1668385,28.9799729 L64.4543955,28.9799729 L64.4543955,17.2925764 L60.5240175,17.2925764 L60.5240175,32.279476 L69.1668385,32.279476 Z M74.0226041,32.279476 L74.917257,29.6756513 L80.4839861,29.6756513 L81.378639,32.279476 L85.5338047,32.279476 L79.8279073,17.2925764 L75.5733358,17.2925764 L69.8674384,32.279476 L74.0226041,32.279476 Z M79.4063755,26.5227375 L75.8770565,26.5227375 L77.641716,21.5337299 L79.4063755,26.5227375 Z M92.2010804,32.279476 C93.0031984,32.279476 93.7251046,32.1867189 94.3667989,32.0012046 C95.0084933,31.8156904 95.5532651,31.5374191 96.0011143,31.1663906 C96.4489635,30.7953621 96.7965479,30.3382021 97.0438676,29.7949104 C97.2911873,29.2516187 97.4148472,28.628821 97.4148472,27.9265171 C97.4148472,27.4759825 97.3613726,27.05195 97.2544236,26.6544195 C97.1474745,26.256889 96.9703401,25.8991116 96.7230204,25.5810872 C96.4757007,25.2630628 96.1548535,24.9947297 95.7604789,24.7760879 C95.3661042,24.5574462 94.8881756,24.3951212 94.326693,24.2891131 C94.8881756,23.9445867 95.5581904,23.5906233 95.8322473,23.0937102 C96.1063043,22.5967971 96.2433328,21.9706866 96.2433328,21.2153787 C96.2433328,19.9697831 95.8823797,19.0157099 95.1604735,18.3531591 C94.4385674,17.6906083 93.1302004,17.2925764 91.7398626,17.2925764 L85.8844015,17.2925764 L85.8844015,32.279476 L92.2010804,32.279476 Z M90.509051,23.3797621 L89.7511906,23.3797621 L89.7511906,20.2740551 L90.509051,20.2740551 C91.8002207,20.2740551 92.4458056,20.7916729 92.4458056,21.8269086 C92.4458056,22.8621443 91.8002207,23.3797621 90.509051,23.3797621 L90.509051,23.3797621 Z M90.5699962,29.3911685 L89.7511906,29.3911685 L89.7511906,26.1301762 L90.5699962,26.1301762 C91.5094012,26.1301762 92.1822182,26.2592571 92.5884474,26.517419 C92.9946766,26.7755809 93.1977912,27.1899987 93.1977912,27.7606723 C93.1977912,28.331346 92.9946766,28.7457638 92.5884474,29.0039257 C92.1822182,29.2620876 91.5094012,29.3911685 90.5699962,29.3911685 L90.5699962,29.3911685 Z" id="LAB"></path>
                <path d="M7.88798097,16.139738 C8.39259928,16.139738 8.9038573,16.0890479 9.42175504,15.9876676 C9.93965278,15.8862873 10.4973888,15.7274583 11.0949631,15.5111804 L11.0949631,15.5111804 L11.493346,15.369248 L11.493346,10.6652037 C10.4973888,11.7465932 9.37527704,12.287288 8.12701069,12.287288 C7.55599524,12.287288 7.02481807,12.179149 6.53347919,11.9628711 C6.0421403,11.7465932 5.61387871,11.4492111 5.24869441,11.0707248 C4.8835101,10.6922385 4.59800237,10.2461653 4.39217122,9.73250532 C4.18634007,9.21884532 4.08342449,8.65787453 4.08342449,8.04959294 C4.08342449,7.45482873 4.18634007,6.90061662 4.39217122,6.38695662 C4.59800237,5.87329661 4.88019024,5.4306028 5.23873483,5.05887516 C5.59727942,4.68714753 6.02554102,4.39314476 6.52351961,4.17686687 C7.02149821,3.96058897 7.56263495,3.85245002 8.14692984,3.85245002 C9.47487276,3.85245002 10.5903448,4.41342082 11.493346,5.5353624 L11.493346,5.5353624 L11.493346,0.790766057 C10.8559334,0.520418687 10.2483995,0.321037502 9.67074434,0.192622501 C9.09308917,0.0642075004 8.50547443,0 7.90790011,0 C6.8588252,0 5.85622829,0.199381185 4.90010939,0.598143556 C3.94399048,0.996905927 3.10406658,1.55111804 2.38033769,2.26077988 C1.6566088,2.97044173 1.07895363,3.81527726 0.647372175,4.79528648 C0.215790725,5.77529569 0,6.85330583 0,8.02931689 C0,9.20532795 0.219110582,10.2900968 0.657331747,11.2836234 C1.09555291,12.2771499 1.67652794,13.1355028 2.40025683,13.8586821 C3.12398573,14.5818613 3.96058977,15.1428321 4.91006896,15.5415944 C5.85954815,15.9403568 6.85218549,16.139738 7.88798097,16.139738 Z M16.4957244,15.7139409 L16.4957244,0.425797108 L12.5915722,0.425797108 L12.5915722,15.7139409 L16.4957244,15.7139409 Z M25.93254,15.7139409 L32.0407489,0.425797108 L27.7969796,0.425797108 L24.7316959,9.07593265 L21.3747406,0.425797108 L17.1319629,0.425797108 L23.3482609,15.7139409 L25.93254,15.7139409 Z M36.4039419,15.7139409 L36.4039419,0.425797108 L32.6807374,0.425797108 L32.6807374,15.7139409 L36.4039419,15.7139409 Z M45.3902681,16.139738 C45.8948865,16.139738 46.4061445,16.0890479 46.9240422,15.9876676 C47.44194,15.8862873 47.999676,15.7274583 48.5972503,15.5111804 L48.5972503,15.5111804 L48.9956332,15.369248 L48.9956332,10.6652037 C47.999676,11.7465932 46.8775642,12.287288 45.6292979,12.287288 C45.0582824,12.287288 44.5271052,12.179149 44.0357664,11.9628711 C43.5444275,11.7465932 43.1161659,11.4492111 42.7509816,11.0707248 C42.3857973,10.6922385 42.1002896,10.2461653 41.8944584,9.73250532 C41.6886272,9.21884532 41.5857117,8.65787453 41.5857117,8.04959294 C41.5857117,7.45482873 41.6886272,6.90061662 41.8944584,6.38695662 C42.1002896,5.87329661 42.3824774,5.4306028 42.741022,5.05887516 C43.0995666,4.68714753 43.5278282,4.39314476 44.0258068,4.17686687 C44.5237854,3.96058897 45.0649221,3.85245002 45.649217,3.85245002 C46.9771599,3.85245002 48.092632,4.41342082 48.9956332,5.5353624 L48.9956332,5.5353624 L48.9956332,0.790766057 C48.3582206,0.520418687 47.7506867,0.321037502 47.1730315,0.192622501 C46.5953764,0.0642075004 46.0077616,0 45.4101873,0 C44.3611124,0 43.3585155,0.199381185 42.4023966,0.598143556 C41.4462777,0.996905927 40.6063538,1.55111804 39.8826249,2.26077988 C39.158896,2.97044173 38.5812408,3.81527726 38.1496594,4.79528648 C37.7180779,5.77529569 37.5022872,6.85330583 37.5022872,8.02931689 C37.5022872,9.20532795 37.7213978,10.2900968 38.1596189,11.2836234 C38.5978401,12.2771499 39.1788151,13.1355028 39.902544,13.8586821 C40.6262729,14.5818613 41.462877,15.1428321 42.4123561,15.5415944 C43.3618353,15.9403568 44.3544727,16.139738 45.3902681,16.139738 Z" id="CIVIC"></path>
            </g>
        </g>
    </g>
</svg>