<svg width="24" height="24" viewBox="0 0 24 24" fill="none" xmlns="http://www.w3.org/2000/svg">
<mask id="mask0_668_7974" style="mask-type:alpha" maskUnits="userSpaceOnUse" x="0" y="0" width="24" height="24">
<rect width="24" height="24" fill="#D9D9D9"/>
</mask>
<g mask="url(#mask0_668_7974)">
<path d="M11.099 18.9989H12.849V17.7489C13.6824 17.5989 14.399 17.2739 14.999 16.7739C15.599 16.2739 15.899 15.5322 15.899 14.5489C15.899 13.8489 15.699 13.2072 15.299 12.6239C14.899 12.0406 14.099 11.5322 12.899 11.0989C11.899 10.7656 11.2074 10.4739 10.824 10.2239C10.4407 9.9739 10.249 9.63223 10.249 9.1989C10.249 8.76557 10.4034 8.4239 10.712 8.1739C11.02 7.9239 11.4657 7.7989 12.049 7.7989C12.5824 7.7989 12.999 7.92823 13.299 8.1869C13.599 8.4449 13.8157 8.76557 13.949 9.1489L15.549 8.4989C15.3657 7.91557 15.0284 7.40723 14.537 6.9739C14.045 6.54057 13.499 6.2989 12.899 6.2489V4.9989H11.149V6.2489C10.3157 6.43223 9.66569 6.7989 9.19902 7.3489C8.73236 7.8989 8.49902 8.51557 8.49902 9.1989C8.49902 9.98223 8.72836 10.6156 9.18702 11.0989C9.64502 11.5822 10.3657 11.9989 11.349 12.3489C12.399 12.7322 13.1284 13.0739 13.537 13.3739C13.945 13.6739 14.149 14.0656 14.149 14.5489C14.149 15.0989 13.953 15.5029 13.561 15.7609C13.1697 16.0196 12.699 16.1489 12.149 16.1489C11.599 16.1489 11.1117 15.9779 10.687 15.6359C10.2617 15.2946 9.94902 14.7822 9.74902 14.0989L8.09902 14.7489C8.33236 15.5489 8.69502 16.1949 9.18702 16.6869C9.67836 17.1782 10.3157 17.5156 11.099 17.6989V18.9989ZM11.999 21.9989C10.6157 21.9989 9.31569 21.7362 8.09902 21.2109C6.88236 20.6862 5.82402 19.9739 4.92402 19.0739C4.02402 18.1739 3.31169 17.1156 2.78702 15.8989C2.26169 14.6822 1.99902 13.3822 1.99902 11.9989C1.99902 10.6156 2.26169 9.31557 2.78702 8.0989C3.31169 6.88224 4.02402 5.8239 4.92402 4.9239C5.82402 4.0239 6.88236 3.31123 8.09902 2.7859C9.31569 2.26123 10.6157 1.9989 11.999 1.9989C13.3824 1.9989 14.6824 2.26123 15.899 2.7859C17.1157 3.31123 18.174 4.0239 19.074 4.9239C19.974 5.8239 20.6864 6.88224 21.211 8.0989C21.7364 9.31557 21.999 10.6156 21.999 11.9989C21.999 13.3822 21.7364 14.6822 21.211 15.8989C20.6864 17.1156 19.974 18.1739 19.074 19.0739C18.174 19.9739 17.1157 20.6862 15.899 21.2109C14.6824 21.7362 13.3824 21.9989 11.999 21.9989Z" fill="#505050"/>
</g>
</svg>
