<svg width="40" height="40" viewBox="0 0 40 40" fill="none" xmlns="http://www.w3.org/2000/svg">
<mask id="mask0_354_1758" style="mask-type:alpha" maskUnits="userSpaceOnUse" x="0" y="0" width="40" height="40">
<rect width="40" height="40" fill="#D9D9D9"/>
</mask>
<g mask="url(#mask0_354_1758)">
<path d="M19.375 1.66699C21.903 1.66699 24.0627 2.54899 25.854 4.31299C27.646 6.07633 28.542 8.22199 28.542 10.75C28.542 12.1667 28.2363 13.514 27.625 14.792C27.0137 16.0693 26.1247 17.1663 24.958 18.083H23.542V15.625C24.236 15.0137 24.7777 14.2847 25.167 13.438C25.5557 12.5907 25.75 11.6947 25.75 10.75C25.75 8.99999 25.125 7.51399 23.875 6.29199C22.625 5.06933 21.125 4.45799 19.375 4.45799C17.597 4.45799 16.09 5.06933 14.854 6.29199C13.618 7.51399 13 8.99999 13 10.75C13 11.6947 13.1873 12.5973 13.562 13.458C13.9373 14.3193 14.486 15.0417 15.208 15.625V19C13.6807 18.1947 12.4653 17.0627 11.562 15.604C10.6593 14.146 10.208 12.528 10.208 10.75C10.208 8.22199 11.104 6.07633 12.896 4.31299C14.6873 2.54899 16.847 1.66699 19.375 1.66699ZM17.792 36.667C17.3193 36.667 16.8747 36.5767 16.458 36.396C16.0413 36.2153 15.6803 35.9723 15.375 35.667L6.79199 27.083L9.12499 24.667C9.51366 24.2777 9.95133 23.979 10.438 23.771C10.924 23.5623 11.4307 23.5277 11.958 23.667L15.208 24.417V10.833C15.208 9.66633 15.611 8.68033 16.417 7.87499C17.2223 7.06966 18.2083 6.66699 19.375 6.66699C20.5417 6.66699 21.5277 7.06966 22.333 7.87499C23.139 8.68033 23.542 9.66633 23.542 10.833V18H24.625C24.7637 18 24.8887 18.0277 25 18.083C25.1113 18.139 25.2363 18.1947 25.375 18.25L31.542 21.25C32.2087 21.5553 32.7017 22.0483 33.021 22.729C33.3403 23.4097 33.4307 24.111 33.292 24.833L31.792 33.917C31.6527 34.7223 31.2637 35.382 30.625 35.896C29.9863 36.41 29.264 36.667 28.458 36.667H17.792ZM17.583 33.875H28.917L30.667 23.958L23.25 20.292H20.75V10.833C20.75 10.4163 20.625 10.083 20.375 9.83299C20.125 9.58299 19.7917 9.45799 19.375 9.45799C18.9583 9.45799 18.625 9.58299 18.375 9.83299C18.125 10.083 18 10.4163 18 10.833V27.792L11.333 26.375L10.708 27.042L17.583 33.875Z" fill="#505050"/>
</g>
</svg>
