<?xml version="1.0" encoding="utf-8"?>
<!-- Generator: Adobe Illustrator 26.5.0, SVG Export Plug-In . SVG Version: 6.00 Build 0)  -->
<svg version="1.1" id="Layer_1" xmlns="http://www.w3.org/2000/svg" xmlns:xlink="http://www.w3.org/1999/xlink" x="0px" y="0px"
	 viewBox="0 0 1150 700" style="enable-background:new 0 0 1150 700;" xml:space="preserve">
<style type="text/css">
	.st0{fill:#FDFEFE;}
	.st1{fill:#C6D5ED;}
	.st2{fill:#E3ECFA;}
	.st3{fill:#C7D5ED;}
	.st4{fill:#E2EBFA;}
	.st5{fill:#E2ECFA;}
	.st6{fill:#FDFDFE;}
	.st7{fill:#E0EAF9;}
</style>
<g>
	<g>
		<path class="st0" d="M121,486.73c0-90.84,0-181.78,0-272.73c302.52,0,605.04,0,907.64,0c0,90.87,0,181.75,0,272.73
			C726.14,486.73,423.57,486.73,121,486.73z M885.85,292.51c-1.81-1.35-3.65-2.65-5.42-4.05c-3.74-2.94-7.53-5.02-12.65-5.43
			c-4.87-0.39-9.87-2.16-13.22-6.59c-0.86-1.14-2.38-1.88-3.74-2.51c-10.93-5.07-21.9-10.04-32.82-15.13
			c-1.62-0.76-2.95-2.13-4.55-2.94c-1.7-0.86-3.56-1.88-5.37-1.93c-2.84-0.07-5.69,0.82-8.56,0.93c-6.53,0.27-12.42-2.72-18.64-4.03
			c-2.56-0.54-4.84-1.3-7.28,0.2c-0.91,0.56-2.02,0.76-3.04,1.15c-7.86,2.97-15.81,5.74-23.56,8.98
			c-8.42,3.52-16.53,7.81-25.81,8.74c-6,0.6-11.9,0.58-17.52-2.18c-1.5-0.74-3.26-1.02-4.93-1.34c-5.74-1.11-11.53-2.01-17.24-3.27
			c-2.31-0.51-4.34-0.78-6.52,0.44c-2.83,1.59-5.93,2.35-9.15,1.48c-6.53-1.76-12.96-1.3-19.08,1.32
			c-6.98,2.99-13.7,6.57-20.64,9.66c-4.86,2.16-9.83,4.15-14.9,5.76c-2.96,0.94-6.19,1.04-9.31,1.42c-2.9,0.36-5.93,0.2-8.69,0.99
			c-3.54,1.01-6.86,2.77-10.3,4.18c-4.73,1.93-9.14,4.35-14.64,4.46c-4.67,0.09-9.5,1.5-13.11,5.12c-0.59,0.59-1.02,1.33-1.51,1.98
			c5.13,0,9.82-0.07,14.5,0.04c1.81,0.04,3.76,0.2,5.33,0.96c0.41,0.2-0.34,2.83-0.6,4.61c0.43,0.83,1.07,2.05,1.76,3.38
			c5.19-0.82,5.67,4.42,8.41,6.84c0.25,0.22,0.34,0.97,0.17,1.29c-1.73,3.24-0.56,7.55-3.8,10.26c-0.43,0.36-0.36,1.31-0.53,1.99
			c0.78-0.18,1.61-0.24,2.31-0.58c1-0.47,2.16-1.85,2.82-1.61c2.82,1,5.92,1.95,8.08,3.87c2.05,1.82,4.11,2.92,6.5,2.46
			c4.28-0.83,8.21,0.25,12.24,1.21c2.93,0.7,5.87,1.32,8.7,1.95c0.07,3.85-2.65,3.29-4.27,3.47c0.81,4.98-4.3,4.45-6.11,6.81
			c1.26-0.07,2.28-0.14,4.22-0.25c-1.5,2.16-2.53,3.65-3.59,5.17c0.55,0.21,1.09,0.43,2.31,0.91c-1.36,0.75-2.27,1.19-3.1,1.73
			c-0.93,0.6-1.8,1.3-2.69,1.96c0.93,1.1,1.7,2.44,2.84,3.25c1.68,1.19,3.67,1.95,5.45,3.01c0.42,0.25,0.53,1,1.05,2.05
			c-3.45-1.66-6.65-2.48-8.82-4.45c-1.9-1.73-3.78-2.47-6.08-2.89c-0.68-0.13-1.45-0.5-1.88-1.01c-1.72-2.01-3.78-2.71-6.44-2.85
			c-1.96-0.1-4.9-0.15-5.16-2.96c-0.2-2.13-1.35-2.79-2.85-3.4c-2.01-0.82-4.05-1.57-6.1-2.29c-2.8-0.99-5.05-4.41-4.78-7.33
			c0.39-4.22,0.39-4.22-3.5-5.49c-0.51-0.17-1.08-0.29-1.51-0.59c-3.31-2.31-7.58-2.33-10.92-4.94c-1.76-1.37-4.81-1.06-5.15-4.32
			c-0.04-0.36-0.78-0.84-1.26-0.91c-3.87-0.61-7.73-1.38-11.63-1.58c-1.69-0.09-3.03-0.02-4.42-1.26c-1.06-0.94-2.6-1.55-4.02-1.82
			c-1.92-0.37-3.76-0.56-4.76-2.57c-0.23-0.45-0.71-1.01-1.16-1.08c-3.53-0.62-6.88-1.36-6.53-6.11c-2.3-1.78-1.7-3.86-0.49-5.82
			c-1.78-2.35-3.43-4.53-4.78-6.32c0.91-1.63,1.72-3.1,2.51-4.52c-2.3,0.21-4.41,0.52-6.53,0.55c-2.13,0.03-4.27-0.39-6.39-0.31
			c-3.67,0.14-7.3,0.96-11-0.4c-1.2-0.44-2.96,0.23-4.32,0.76c-4.1,1.61-8.05,3.6-12.2,5.07c-5.52,1.96-11.22,3.44-16.76,5.35
			c-7.75,2.67-15.44,5.53-23.15,8.33c-2.92,1.06-5.84,2.14-8.75,3.23c-2.39,0.9-4.69,2.23-7.16,2.68
			c-9.73,1.79-18.74,4.95-26.85,10.93c-6.99,5.15-14.23,10.12-21.89,14.15c-9.21,4.84-19.2,8.17-28.46,12.93
			c-21.52,11.06-43.86,20.07-66.88,27.38c-8.18,2.6-14.78,7.53-21.53,12.36c-3.45,2.47-6.4,5.87-10.14,7.7
			c-17.93,8.75-36.07,17.08-54.1,25.63c-2.66,1.26-5.81,2.28-7.62,4.38c-4.66,5.41-8.91,11.2-12.92,17.12
			c-4.75,7.01-9.6,13.84-16.58,18.85c-0.79,0.57-1.39,1.41-2.08,2.12c0.12,0.2,0.24,0.41,0.36,0.61c287.04,0,574.07,0,861.35,0
			c0.36-7.84,0.87-15.52,1.02-23.2c0.1-5.15-0.42-10.32-0.47-15.48c-0.09-8.77-0.02-17.55-0.02-26.32c0-5.68,0.06-11.37-0.01-17.05
			c-0.13-9.98-0.36-19.96-0.51-29.94c-0.01-0.88,0.2-1.76,0.35-2.63c0.2-1.15,0.45-2.3,0.68-3.44c0.02-3.22-0.06-6.45,0.07-9.67
			c0.3-7.32,0.99-14.64,0.98-21.96c-0.01-7.96-0.77-15.91-0.94-23.87c-0.07-3.22,0.61-6.46,0.8-9.7c0.06-1.07-0.07-2.99-0.53-3.13
			c-3.04-0.91-6.17-1.67-9.31-2.05c-5.1-0.62-10.35-0.4-15.32-1.49c-4.31-0.95-8.01-0.41-11.76,1.47c-1.22,0.61-2.38,1.49-3.67,1.78
			c-2.87,0.62-5.85,1.52-8.69,1.25c-4.13-0.38-8.04-0.44-12.01,0.94c-4.34,1.51-8.82,2.61-13.22,3.94c-2.58,0.78-5.07,1.1-7.69,0.01
			c-0.87-0.36-2.25-0.24-3.11,0.21c-8.42,4.4-17.2,1.77-25.8,1.22c-5.26-0.33-10.4-0.4-15.53,0.7
			C886.99,291.33,886.45,292.05,885.85,292.51z M527.2,290.07c-3.21-3.3-6.01-2.04-9.59-0.91
			C521.11,289.49,523.83,289.75,527.2,290.07z"/>
		<path class="st1" d="M1013.41,351.52c-0.23,1.15-0.48,2.29-0.68,3.44c-0.15,0.87-0.37,1.76-0.35,2.63
			c0.15,9.98,0.38,19.96,0.51,29.94c0.08,5.68,0.01,11.37,0.01,17.05c0,8.77-0.06,17.55,0.02,26.32c0.05,5.16,0.57,10.32,0.47,15.48
			c-0.15,7.68-0.66,15.35-1.02,23.2c-287.28,0-574.31,0-861.35,0c-0.12-0.2-0.24-0.41-0.36-0.61c0.69-0.71,1.28-1.55,2.08-2.12
			c6.98-5.02,11.83-11.84,16.58-18.85c4.01-5.92,8.26-11.71,12.92-17.12c1.81-2.1,4.96-3.12,7.62-4.38
			c18.04-8.54,36.17-16.88,54.1-25.63c3.74-1.82,6.68-5.22,10.14-7.7c6.75-4.83,13.34-9.76,21.53-12.36
			c23.01-7.31,45.35-16.32,66.88-27.38c9.26-4.76,19.25-8.09,28.46-12.93c7.66-4.03,14.91-9,21.89-14.15
			c8.11-5.98,17.12-9.14,26.85-10.93c2.47-0.45,4.77-1.78,7.16-2.68c2.91-1.09,5.83-2.17,8.75-3.23c7.71-2.79,15.39-5.66,23.15-8.33
			c5.54-1.91,11.23-3.39,16.76-5.35c4.14-1.47,8.1-3.46,12.2-5.07c1.36-0.53,3.12-1.2,4.32-0.76c3.7,1.35,7.32,0.53,11,0.4
			c2.12-0.08,4.26,0.34,6.39,0.31c2.11-0.03,4.22-0.34,6.53-0.55c-0.79,1.43-1.6,2.89-2.51,4.52c1.35,1.79,3,3.97,4.78,6.32
			c-1.21,1.96-1.81,4.04,0.49,5.82c-0.35,4.75,3,5.49,6.53,6.11c0.44,0.08,0.93,0.63,1.16,1.08c1.01,2.01,2.84,2.2,4.76,2.57
			c1.42,0.27,2.97,0.88,4.02,1.82c1.39,1.24,2.73,1.17,4.42,1.26c3.89,0.2,7.76,0.97,11.63,1.58c0.47,0.07,1.22,0.56,1.26,0.91
			c0.35,3.26,3.39,2.94,5.15,4.32c3.35,2.61,7.61,2.63,10.92,4.94c0.43,0.3,0.99,0.42,1.51,0.59c3.89,1.27,3.89,1.27,3.5,5.49
			c-0.27,2.92,1.98,6.34,4.78,7.33c2.05,0.73,4.09,1.47,6.1,2.29c1.5,0.62,2.65,1.27,2.85,3.4c0.26,2.8,3.2,2.85,5.16,2.96
			c2.66,0.14,4.72,0.84,6.44,2.85c0.44,0.51,1.21,0.89,1.88,1.01c2.3,0.43,4.18,1.17,6.08,2.89c2.17,1.97,5.37,2.8,8.82,4.45
			c-0.52-1.06-0.64-1.81-1.05-2.05c-1.78-1.06-3.76-1.82-5.45-3.01c-1.14-0.81-1.91-2.15-2.84-3.25c0.89-0.66,1.76-1.36,2.69-1.96
			c0.84-0.54,1.74-0.98,3.1-1.73c-1.22-0.48-1.77-0.69-2.31-0.91c1.06-1.52,2.09-3.01,3.59-5.17c-1.94,0.12-2.96,0.18-4.22,0.25
			c1.81-2.37,6.92-1.83,6.11-6.81c1.61-0.18,4.34,0.38,4.27-3.47c-2.83-0.63-5.78-1.25-8.7-1.95c-4.02-0.96-7.96-2.04-12.24-1.21
			c-2.39,0.46-4.45-0.64-6.5-2.46c-2.16-1.92-5.26-2.87-8.08-3.87c-0.66-0.23-1.82,1.14-2.82,1.61c-0.71,0.33-1.54,0.39-2.31,0.58
			c0.16-0.68,0.1-1.63,0.53-1.99c3.24-2.71,2.07-7.02,3.8-10.26c0.17-0.32,0.08-1.07-0.17-1.29c-2.74-2.43-3.21-7.67-8.41-6.84
			c-0.69-1.33-1.33-2.55-1.76-3.38c0.26-1.79,1.01-4.41,0.6-4.61c-1.57-0.76-3.52-0.92-5.33-0.96c-4.69-0.11-9.38-0.04-14.5-0.04
			c0.49-0.65,0.92-1.39,1.51-1.98c3.61-3.62,8.44-5.02,13.11-5.12c5.49-0.11,9.91-2.53,14.64-4.46c3.43-1.4,6.76-3.16,10.3-4.18
			c2.76-0.79,5.79-0.63,8.69-0.99c3.12-0.39,6.35-0.48,9.31-1.42c5.07-1.61,10.04-3.6,14.9-5.76c6.94-3.08,13.67-6.67,20.64-9.66
			c6.12-2.62,12.55-3.08,19.08-1.32c3.22,0.87,6.32,0.11,9.15-1.48c2.18-1.22,4.21-0.95,6.52-0.44c5.71,1.25,11.5,2.16,17.24,3.27
			c1.67,0.32,3.43,0.6,4.93,1.34c5.62,2.77,11.51,2.78,17.52,2.18c9.28-0.93,17.39-5.22,25.81-8.74c7.75-3.24,15.7-6.01,23.56-8.98
			c1.02-0.38,2.13-0.59,3.04-1.15c2.44-1.5,4.72-0.74,7.28-0.2c6.22,1.31,12.12,4.3,18.64,4.03c2.86-0.12,5.72-1.01,8.56-0.93
			c1.81,0.05,3.67,1.07,5.37,1.93c1.6,0.81,2.93,2.18,4.55,2.94c10.92,5.09,21.89,10.06,32.82,15.13c1.36,0.63,2.88,1.38,3.74,2.51
			c3.35,4.43,8.36,6.2,13.22,6.59c5.12,0.41,8.91,2.49,12.65,5.43c1.77,1.39,3.61,2.7,5.42,4.05c0.72,0.53,1.38,1.2,2.18,1.57
			c7.67,3.54,15.39,6.98,23.03,10.59c1.78,0.84,2.91,2.98,5.3,2.63c1.1,0.73,2.21,1.47,3.31,2.2c0,0-0.01-0.01-0.01-0.01
			c0.55,0.19,1.1,0.37,1.65,0.56c0,0-0.02,0-0.02,0c0.55,0.55,1.1,1.1,1.65,1.64c0,0-0.01-0.01-0.01-0.01
			c0.55,0.37,1.1,0.74,1.65,1.11c0,0-0.01-0.01-0.01-0.01c2,1.28,4.01,2.55,6.01,3.83l-0.01-0.01c0.55,0.19,1.1,0.37,1.65,0.56
			c0,0-0.02-0.02-0.02-0.02c0.19,0.18,0.38,0.36,0.56,0.55c2.18,1.27,4.34,2.56,6.53,3.8c7.91,4.51,15.84,8.99,23.74,13.52
			c2.48,1.42,4.87,3,7.3,4.5c0.74,0.37,1.48,0.74,2.22,1.11l-0.02,0c0.05,0.26,0.02,0.65,0.18,0.76c4.44,3.03,8.52,6.92,14.54,6.29
			c2.2,0.37,4.39,0.73,6.59,1.1c0.35,0,0.71,0,1.06,0.01c0.37,0,0.74,0.01,1.1,0.01c3.64,0.55,7.27,1.11,10.91,1.66
			C1009.07,350.79,1011.24,351.16,1013.41,351.52z M734.31,329.11c-0.91,0.67-1.82,1.34-2.73,2c0.28,0.27,0.56,0.54,0.84,0.8
			C733.06,330.99,733.69,330.05,734.31,329.11c0.29-0.21,0.56-0.43,0.84-0.65c-0.06-0.06-0.12-0.12-0.18-0.18
			C734.76,328.56,734.53,328.83,734.31,329.11z M795.92,330.2c-0.44-0.25-0.89-0.49-1.33-0.74c-0.05,0.17-0.09,0.34-0.14,0.51
			C794.94,330.05,795.43,330.13,795.92,330.2c0.88,2.27,1.77,4.54,2.72,6.95C799.63,334.01,798.57,331.44,795.92,330.2z
			 M861.35,305.65c-0.07-0.24-0.14-0.48-0.21-0.71c-0.07,0.05-0.14,0.09-0.21,0.14c0.13,0.2,0.27,0.39,0.4,0.59
			c0.67,1.32,1.35,2.65,2.02,3.95c-0.7,0.36-1.26,0.65-2.09,1.08c1.19,0.67,2.05,1.14,2.82,1.57c-0.29,0.54-0.81,1.37-0.76,1.4
			c1.5,1.04,3.05,2.01,4.6,2.99c-1.41-3.76-3.18-6.93-5.05-10.05C862.59,306.14,861.86,305.96,861.35,305.65z M857.52,317.66
			c0.07,0.24,0.14,0.48,0.21,0.71c0.07-0.05,0.14-0.09,0.21-0.14C857.8,318.04,857.66,317.85,857.52,317.66
			c-0.64-2.91-1.83-5.17-4.78-6.7c-1.74-0.9-2.73-3.3-3.95-5.1c-0.65-0.97-1.07-2.09-1.59-3.15c-0.3,0.13-0.61,0.27-0.91,0.4
			c1.03,2.4,1.59,5.2,3.2,7.1c2.29,2.7,6.04,4,7.78,7.4C857.28,317.67,857.43,317.65,857.52,317.66z M734.32,344.95
			c-0.49-0.04-0.97-0.07-1.46-0.11c0.48-0.42,0.95-0.84,1.43-1.26c3.29,3.84,6.57,7.69,9.84,11.5c2.48-2.74,2.59-2.9-1.02-5.31
			c-2.78-1.85-5.85-3.25-8.8-4.84c3.83-1.99-1.34-2.96-0.37-4.62C731.81,342.12,733.78,343.45,734.32,344.95z M545.68,342.76
			L545.68,342.76c0.69-4.36-0.86-6.56-5.16-6.31c0.91,3.04,1.65,5.97,2.68,8.8c0.71,1.95,2.77,1.48,3.9,0.93
			c0.9-0.44,1.18-2.16,1.73-3.31C547.79,342.82,546.74,342.79,545.68,342.76z M846.63,314.92c-0.07-0.24-0.14-0.48-0.21-0.71
			c-0.07,0.05-0.14,0.09-0.21,0.14C846.35,314.54,846.48,314.74,846.63,314.92c2.17,2.37,4.36,4.71,6.51,7.09
			c1.18,1.31,2.58,2.54,3.32,4.08c1.24,2.56,2.09,5.32,3,8.03c0.69,2.04,2.32,3.85,1.59,6.26c-0.02,0.08,0.39,0.29,0.74,0.54
			c1.53-2.85,2.81-5.43,0.13-8.43c-0.95-1.07-1.5-3.09-1.24-4.49c0.45-2.42-0.79-3.56-2.35-4.71c-2.36-1.74-4.75-3.44-7.13-5.15
			C849.68,317.07,848.15,316,846.63,314.92z M811.73,314.39c-1.54-0.62-3.09-1.24-4.63-1.87c-0.09,0.17-0.18,0.34-0.26,0.52
			c6.91,4.14,13.81,8.27,20.72,12.41c0.26-0.34,0.52-0.68,0.78-1.02c-0.98-0.88-1.83-1.97-2.95-2.61
			c-4.77-2.74-9.51-5.37-13.16-9.77c-2.32-2.81-5.4-5.05-8.35-7.25c-2.04-1.52-4.44-2.1-5.32-5.25c-0.9-3.22-3.62-5.65-6.52-7.59
			c-1.04-0.7-1.88-1.69-2.79-2.57c-2.56-2.49-5.06-5.03-7.67-7.47c-0.69-0.64-1.68-0.95-2.71-1.51c2.14,2.99,3.83,5.85,6.03,8.24
			c2,2.16,4.69,3.67,6.84,5.71c1.62,1.54,4.25,2.39,4.19,5.29l-0.01,0.01c-2.38-1.41-4.76-2.82-7.13-4.22
			c0.13,0.81,0.48,1.34,0.96,1.67c4.39,2.95,8.97,5.65,13.15,8.87C806.1,308.44,808.81,311.55,811.73,314.39
			C811.73,314.38,811.73,314.39,811.73,314.39z M712.51,328.03c-6.27-4.07-14.2-5.56-18.91-12.29c1.01,2.68,2.39,5.03,3.88,7.3
			c3.04,4.65,7.11,8.68,8.49,14.34c0.18,0.73,0.7,1.53,1.31,1.98c2.87,2.17,4.48,5.05,5.27,8.51c0.16,0.69,0.85,1.26,1.29,1.89
			c0.53-0.63,1.35-1.18,1.54-1.89c1.27-4.77,2.43-9.58,3.56-14.39c0.11-0.45-0.12-1.04-0.34-1.49c-1.26-2.47-2.55-4.92-3.87-7.36
			c-0.41-0.75-0.94-1.43-1.42-2.15c-0.19,0.15-0.38,0.3-0.56,0.45C712.66,324.64,712.59,326.33,712.51,328.03L712.51,328.03z
			 M508.07,350.94L508.07,350.94c3.76-2.64,3.76-2.64-0.22-4.76c-1.93-1.03-2.03-3.4-0.16-4.7c1.15-0.8,2.38-1.49,3.32-2.07
			c-0.77-3.06-1.47-5.84-2.08-8.28c1.05-1.52,3-3.55,2.68-4.04c-0.96-1.42-2.72-2.47-4.37-3.22c-3.68-1.68-7.47-3.1-11.23-4.6
			c-1.05-0.42-2.13-0.78-3.2-1.16c-0.06,0.13-0.12,0.26-0.17,0.39c1.52,1.28,3.03,2.56,4.59,3.87c-0.76,1.05-1.35,1.86-1.9,2.61
			c-0.82-0.21-1.55-0.4-3.13-0.81c1.2,1.72,1.93,2.76,2.74,3.92c-0.67,0.82-1.35,1.65-1.59,1.94c0,1.99,0,3.4,0,4.07
			c-2.56,1.33-4.52,2.36-6.47,3.38c0.09,0.23,0.18,0.46,0.28,0.69c3.01-0.08,6.35-2.72,8.9,0.78c1.86,2.55,3.46,5.29,5.18,7.95
			c-0.29,0.06-0.59,0.12-0.88,0.18c-0.31,0.89-1.07,1.97-0.81,2.63c0.32,0.78,1.51,1.24,2.36,1.77c0.72,0.45,1.97,0.7,2.12,1.26
			c0.18,0.65-0.6,1.56-0.96,2.36c-2.27-1.59-4.15-2.9-6.42-4.5c-0.48,1.87-0.41,3.97-1.27,4.49c-2.62,1.58-0.98,2.44,0.1,3.67
			c1.24,1.4,2.81,2.7,1.99,5c-0.1,0.29,0.52,1.1,0.96,1.26c1.45,0.54,2.96,0.89,4.47,1.32c0.68-0.88,1.39-1.92,2.22-2.87
			c0.84-0.95,1.74-1.86,2.7-2.69c2.18-1.89,3.15-6.44,1.74-8.87C509.28,351.46,508.57,351.26,508.07,350.94z M753.37,311.62
			c4.22,5.44,10.96,7.95,13.45,14.33c-0.18,0.21-0.35,0.43-0.53,0.64c-6.86-4.62-13.71-9.24-20.57-13.86
			c-0.17,0.21-0.33,0.43-0.5,0.64c1.79,2.58,3.1,5.53,6.61,6.6c2.09,0.64,3.62,1.92,4.7,4.14c0.88,1.8,2.85,3.16,4.54,4.43
			c3.16,2.37,6.87,4.14,9.61,6.89c3.39,3.4,7.9,3.35,11.85,5.24c0-0.85-0.24-1.47-0.44-2.11c-0.49-1.52-0.93-3.06-1.43-4.58
			c-1.47-4.47-2.96-8.93-4.45-13.39c-0.5-1.5-1.02-3-1.55-4.5c-1.18-3.33-2.39-6.65-3.53-9.99c-0.52-1.51-0.9-3.07-1.38-4.6
			c-0.33-1.07-0.48-2.3-1.11-3.17c-2.36-3.29-4.92-6.44-7.32-9.7c-0.77-1.06-1.27-2.32-1.9-3.48c-0.2,0.12-0.4,0.24-0.6,0.35
			c2.11,5.73,5.72,10.56,9.69,14.58c-1.23,1.84-2.16,3.23-3.07,4.6c1.85,1.75,4.11,3.03,5.06,4.95c2.15,4.35,3.66,9.02,5.42,13.57
			c0.03,0.07-0.2,0.24-0.08,0.11c-2.23-0.82-4.34-1.59-6.78-2.49c-6.17-5.81-12.68-11.95-19.2-18.09c-0.1,0.06-0.2,0.12-0.3,0.18
			c1.95,2.75,3.9,5.51,5.94,8.4C754.86,311.4,754.3,311.48,753.37,311.62z M488.33,307.9c-0.27-0.25-0.53-0.5-0.8-0.75
			c-2.2,2.44-4.54,4.78-6.55,7.37c-1.38,1.78-2.2,4-3.49,5.86c-1.07,1.54-2.36,2.79,0.79,3.25c0.64,0.09,1.22,0.67,1.81,1.01
			c-0.69,1.79-1.36,3.5-2.12,5.48c-0.09-1.05-0.15-1.8-0.22-2.56c-0.32-0.04-0.64-0.08-0.96-0.12c-0.31,1.59-0.62,3.18-0.94,4.77
			c-1.85,0.67-4.2,1.64-4.56,3.09c-0.59,2.38-1.99,3.47-3.71,4.65c-1.19,0.82-2.31,1.75-3.34,2.76c-2,1.94-1.76,4.75,0.12,6.8
			c1.3,1.42,2.19,3.21,3.26,4.83c-0.17,0.11-0.35,0.22-0.52,0.33c-1.92-1.06-3.83-2.12-5.63-3.1c0.29-1.08,0.55-2.05,0.81-3.01
			c-0.19-0.18-0.38-0.35-0.57-0.53c-1.6,0.72-3.2,1.45-5.05,2.28c2.68,2.94,4.94,5.42,7.41,8.13c-0.85,1.32-1.72,2.67-2.98,4.63
			c-0.36-1.36-0.75-2.03-0.57-2.3c1.27-1.86,0.57-2.78-1.33-3.39c-0.45-0.14-0.72-0.77-1.15-1.08c-1.84-1.31-3.71-2.57-5.56-3.85
			c-0.22,0.29-0.43,0.58-0.65,0.87c1.33,1.1,2.65,2.21,4.06,3.38c-0.26,0.19-0.56,0.37-0.79,0.61c-1.06,1.08-2.43,2.04-2.98,3.35
			c-0.21,0.49,1.57,1.75,2.35,2.74c0.32,0.41,0.3,1.08,0.61,1.5c0.83,1.1,1.76,2.12,2.66,3.18c1.86-1.77,3.18-3.05,4.53-4.3
			c1.75-1.64,3.86-3.03,5.17-4.96c1.04-1.53,2-4.04,1.44-5.53c-0.88-2.34-0.07-3.43,1.21-4.99c1.22-1.49,2.4-3.23,2.91-5.05
			c0.77-2.74,2.01-4.77,4.61-6.08c1.03-0.52,2.02-1.56,2.5-2.61c1.03-2.26,1.72-4.67,2.59-7.13c-3.28-2.21,1.33-3.2,0.59-4.97
			c-0.74-2.08-1.82-4.4-1.37-6.37c0.45-1.94,2.42-3.55,3.78-5.26C486.53,309.83,487.46,308.88,488.33,307.9z M489.08,308.78
			c-0.21,0.35-0.43,0.7-0.64,1.05c2.79,2.09,5.58,4.18,8.37,6.27c1.01,0.76,1.95,1.62,3.02,2.26c0.82,0.49,1.79,0.8,2.73,1.01
			c3.15,0.71,6.61,0.74,9.4,2.13c6.28,3.12,12.22,6.94,18.35,10.38c0.52,0.29,1.56,0.12,2.08-0.25c0.35-0.25,0.44-1.32,0.21-1.82
			c-0.32-0.69-0.99-1.26-1.6-1.76c-2.36-1.95-4.77-3.84-7.13-5.79c-2.08-1.72-4.12-3.49-6.24-5.29c0.1-0.09,0.66-0.62,1.33-1.25
			c7.15,3.5,14.31,7.01,21.48,10.52c-2.17-2.3-4.57-4.27-7.23-5.78c-5.56-3.15-11.18-6.21-16.94-8.96
			c-1.97-0.94-4.46-0.74-6.66-1.28c-4.45-1.08-8.86-2.32-13.29-3.48c-0.82-0.22-1.64-0.4-2.47-0.6c3,1.95,6.12,3.51,9.38,4.66
			c3.53,1.24,6.38,3.19,9.07,6.93c-2.36-0.66-3.99-0.99-5.53-1.57c-2.94-1.11-5.85-2.3-8.73-3.56c-2.1-0.92-4.11-2.07-6.2-3.02
			C490.98,309.18,490.01,309.04,489.08,308.78z M689.08,362.5c0.23-0.28,0.45-0.56,0.68-0.83c-0.62-0.62-1.21-1.27-1.87-1.84
			c-3.63-3.12-7.32-6.17-10.92-9.34c-2.22-1.96-4.05-4.49-6.52-6.02c-3.82-2.38-7.79-4.69-12.66-4.53
			c-1.42,0.05-2.97-0.75-4.28-1.48c-3.08-1.72-6.01-3.7-9.1-5.41c-0.61-0.34-1.61,0.05-2.44,0.1c0.2,0.7,0.18,1.65,0.63,2.05
			c2.59,2.22,5.17,4.47,7.98,6.39c5.1,3.47,9.81,7.58,15.96,9.39c2.55,0.75,4.82,2.46,7.23,3.72c3.99,2.09,7.98,4.18,11.98,6.25
			C686.85,361.5,687.97,361.98,689.08,362.5z M691.08,270.85c2.38,3.52,6.49,3.97,8.79,6.42c2.19,2.33,3.23,5.75,4.78,8.68
			c-0.25,0.17-0.51,0.34-0.76,0.5c-1.36-0.67-2.73-1.34-4.09-2.02c-0.22,0.22-0.43,0.45-0.65,0.67c0.59,0.88,1.1,1.82,1.79,2.61
			c1.42,1.61,3.05,3.05,4.37,4.73c1.44,1.82,2.21,4.68,4.02,5.6c3.43,1.74,6.02,4.24,8.7,6.79c0.34,0.33,1.06,0.26,1.6,0.37
			c-0.01-0.57,0.16-1.24-0.07-1.7c-0.6-1.2-1.58-2.23-2.06-3.46c-1.15-2.99-1.52-6.48-3.31-8.98c-1.78-2.49-3.55-4.78-4.9-7.63
			c-1.25-2.64-3.67-5.28-7.2-4.71c-0.52-1.15-0.68-2.42-1.35-2.82C697.77,274.18,694.64,272.69,691.08,270.85z M687.96,278.94
			c0.44,2.28,1.02,3.99,1.04,5.71c0.02,1.85,0.58,3.19,2.17,4.04c2.46,1.32,3.56,3.56,4.82,5.95c1.2,2.27,3.05,5.09,5.21,5.76
			c3.41,1.06,5.67,3.34,8.25,5.28c3.61,2.71,6.91,5.81,10.44,8.63c0.63,0.5,1.7,0.44,2.57,0.65c-0.15-0.91-0.03-2.02-0.52-2.67
			c-0.8-1.05-2.66-1.64-2.91-2.7c-0.9-3.76-4.03-4.45-6.82-5.75c-1.26-0.59-2.45-1.34-3.74-2.05c-0.36-0.67-0.69-1.58-1.27-2.31
			c-1.17-1.49-2.69-2.74-3.67-4.33c-1.39-2.26-3.11-3.87-5.63-4.79c-0.89-0.32-2.08-1.38-2.13-2.16
			C695.48,282.97,690.67,282.05,687.96,278.94z M794.83,361.21c-0.29-1.49-1.23-3.49-0.7-4.03c3.63-3.66-1.97-5.54-1.43-8.49
			c0.02-0.09-0.42-0.36-0.67-0.38c-6.17-0.56-10.95-4.53-16.45-6.72c-2.92-1.16-5.81-2.38-8.72-3.57c-0.13,0.25-0.26,0.49-0.38,0.74
			c6.26,2.71,12.86,4.91,16.62,10.45c-1.3,0.45-2.79,0.96-4.39,1.51c0.27,0.85,0.47,1.47,0.65,2.03c-0.88,0.37-1.58,0.66-2.29,0.96
			c-0.04,0.28-0.07,0.57-0.11,0.85c2.99,0.85,5.95,2.29,8.97,2.41C789.57,357.13,790.99,360.71,794.83,361.21z M451.34,327.76
			c1.09,1.33,1.87,3.22,3.07,3.54c2.22,0.59,3.64,1.71,4.66,3.6c0.68,1.26,1.23,2.61,2.06,3.76c0.45,0.62,1.33,1.07,2.09,1.21
			c0.26,0.05,0.76-1.09,1.1-1.71c0.32-0.59,0.54-1.22,0.84-1.82c0.27-0.55,0.57-1.07,0.86-1.61c-1.81-0.91,0.19-2.14-0.24-3.28
			c-0.84-0.1-1.69-0.19-3.39-0.39c4.58-2.46,3.73-5.33,1.5-8.06c9.07-7.17,9.39-7.5,9.85-9.6
			C466.66,317.93,459.33,322.64,451.34,327.76z M651.34,298.3c-0.34,0.25-0.67,0.5-1.01,0.75c-4.35-2.58-8.71-5.17-13.06-7.75
			c0.7,2.21,1.62,3.92,2.72,5.51c1.39,2.01,2.92,3.93,4.41,5.86c1.05,1.36,2.17,2.67,3.22,4.04c0.55,0.72,0.86,1.75,1.56,2.18
			c0.6,0.37,1.75,0.36,2.38,0.01c0.47-0.26,0.64-1.31,0.69-2.03c0.1-1.5-0.15-3.04,0.05-4.52c0.53-3.8,2.13-7.69-1.96-10.68
			c-1.42-1.04-3.38-1.96-2.45-4.44c0.09-0.25-0.36-0.86-0.7-1.09c-2.02-1.37-4.08-2.67-6.33-4.12c-0.18,0.82-0.35,1.14-0.27,1.33
			c1.28,2.8,2.58,5.6,3.95,8.36c0.21,0.43,0.79,0.7,1.24,1c1.13,0.75,2.44,1.31,3.38,2.25C650.08,295.87,650.63,297.17,651.34,298.3
			z M814.9,334.31c2.11,2.4,4.43,4.58,6.18,7.15c1.83,2.7,3.52,5.27,6.64,6.74c3.49,1.64,6.81,3.64,10.17,5.56
			c2.5,1.42,4.99,2.87,7.39,4.45c2.53,1.67,4.95,3.52,7.42,5.28c0.19-0.2,0.38-0.4,0.57-0.59c-0.4-0.61-0.67-1.38-1.21-1.8
			c-2.51-1.98-4.93-4.14-7.68-5.71c-4.69-2.68-10.19-4.19-12.64-9.75c-0.14-0.31-0.49-0.53-0.76-0.77
			c-4.15-3.8-8.35-7.55-12.44-11.41C817.1,332.07,816.1,332.19,814.9,334.31z M759.69,350.95c-0.89-0.36-1.48-0.82-1.99-0.75
			c-0.71,0.09-1.77,0.42-1.98,0.93c-0.56,1.34,1.75,5.72,3.34,6.55c0.12-0.81,0.23-1.55,0.4-2.76c1.13,0.81,2.38,1.27,2.88,2.15
			c1.32,2.33,2.99,2.57,5.29,1.13c0.88,1.05,1.66,1.98,2.64,3.13c0.22-0.69,0.5-1.15,0.39-1.3c-2.17-2.89-4.96-5.51-3.73-9.7
			c-2.95-2.25,0.27-4.46,0.08-6.69c-0.02-0.21,0.42-0.49,0.38-0.68c-0.12-0.56-0.26-1.47-0.59-1.56c-0.96-0.27-2.06-0.43-3-0.19
			c-0.43,0.11-1.02,1.57-0.8,1.87c1.22,1.64,0.27,2.91-0.82,3.69c-0.42,0.3-1.82-0.82-2.8-1.23c-0.53-0.22-1.11-0.29-1.67-0.43
			c-0.1,0.58-0.45,1.26-0.26,1.71C757.97,348.1,758.73,349.25,759.69,350.95z M428.21,341.14c0.39,0.7,0.9,1.56,1.35,2.46
			c0.51,1.01,0.96,2.06,1.64,3.54c-1.36-0.06-2.48-0.12-3.6-0.17c-0.69,5.43,0.11,7.37,3.64,8.81c1.71,0.7,3.41,1.41,4.49,1.86
			c0.23,2,0.41,3.52,0.59,5.04c0.28-0.03,0.55-0.07,0.83-0.1c0.96-3.2,1.91-6.41,2.92-9.76c-2.4-1.03-1.59,2.15-3,2.61
			c-2.63-0.45-3.46-2.23-2.05-4.71c0.76-1.34,1.69-2.59,2.33-3.97c0.88-1.91-0.82-5.35-2.8-5.55
			C432.45,340.98,430.33,341.14,428.21,341.14z M448.14,341.04c0.61,1.99,1.15,4,1.84,5.96c0.73,2.08,2.38,2.89,4.48,2.62
			c2.24-0.28,3.3-1.52,2.94-3.92c-0.19-1.26-0.03-2.57-0.03-4.27c-1.46-1.09-4.8,0.43-5.62-2.81c-0.29-1.16-0.59-2.38-1.21-3.37
			c-0.55-0.89-1.49-2.04-2.35-2.12c-1.21-0.12-2.5,0.65-3.29,0.89C443.21,338.3,446.67,338.96,448.14,341.04z M906.09,344.51
			c0.21-0.32,0.42-0.64,0.63-0.97c-0.63-0.53-1.21-1.44-1.9-1.54c-3.33-0.51-6.28-1.8-9.08-3.64c-4.27-2.81-9.8-3.8-12.11-9.38
			c-0.85-2.06-3.17-3.51-5.62-3.06c-2.84,0.52-4.51-1.07-6.37-2.58c-0.56-0.45-1.07-1-1.7-1.33c-1.21-0.64-2.48-1.16-3.72-1.73
			c-0.1,0.22-0.21,0.45-0.31,0.67c1.67,1.27,3.34,2.54,5.01,3.81c-0.13,0.17-0.25,0.34-0.38,0.51c-0.74-0.07-1.48-0.13-2.22-0.2
			c4.5,1.54,9.33,2.12,12.35,6.52c-0.81,0.1-1.52,0.2-2.23,0.29c0.73,1.13,1.62,1.8,2.63,2.14c3.69,1.24,7.41,2.02,10.9,4.22
			C896.29,340.95,901.35,342.47,906.09,344.51z M672.6,314.17c1.47-1.9,2.67-3.18,3.54-4.66c0.68-1.15,1-2.53,1.37-3.84
			c0.13-0.47-0.34-1.26-0.11-1.51c3.05-3.26-0.59-7.43,2.01-10.71c-0.34-0.22-0.67-0.43-1.01-0.65c-2.78,2.61-5.56,5.22-8.23,7.73
			c0.52,2.3,1.06,4.36,1.43,6.45C671.99,309.15,672.22,311.35,672.6,314.17z M533.21,341.58c-0.32,0.23-0.65,0.47-0.97,0.7
			c0.27,1.41,0.42,2.85,0.84,4.21c0.36,1.16,1.56,2.26,1.49,3.32c-0.17,2.47-0.87,4.9-1.37,7.34c-0.2,0.99,2.09,5.43,3.04,5.6
			c0.4,0.07,1.02-0.22,1.31-0.55c2.17-2.47,2.07-3.84-0.29-6.32c-1.03-1.08-2.67-2.01-1.61-3.86c1.25-2.17,0.91-4.09-0.57-5.7
			c0.71-1.61,1.31-2.98,1.95-4.43c-0.89-0.37-1.5-0.62-2.27-0.94c0.39-0.85,0.71-1.54,1.01-2.2c-1.98-1.46-8.09-0.98-10.25,1.05
			c1.66,0.1,3,0,4.24,0.3C530.97,340.37,532.07,341.06,533.21,341.58z M663.55,304.69c-0.25-0.1-0.49-0.21-0.74-0.31
			c-1.49,5.85-3.38,11.48-8.57,15.01c0.38,0.53,0.45,0.75,0.59,0.81c3.3,1.48,3.26,1.46,1.86,5.18c-0.19,0.5,0.09,1.35,0.43,1.85
			c1.12,1.66,2.41,3.2,3.57,4.84c1.39,1.96,2.72,3.96,4.08,5.94c0.34-0.2,0.68-0.39,1.01-0.59c-0.74-1.53-1.48-3.06-2.23-4.59
			c-1.56-3.19-5.42-5.71-2.89-10.08c0.11-0.19,0.08-0.61-0.06-0.79c-1.54-1.98-0.12-3.65,0.33-5.54c0.57-2.41,3.5-4.33,1.67-7.32
			c-0.19-0.3,0.32-1,0.43-1.53C663.24,306.61,663.38,305.65,663.55,304.69z M829.56,330.12c1.12,1.37,2.18,2.66,3.23,3.95
			c0.43,0.53,1.02,1.02,1.25,1.63c0.87,2.3,1.89,4.59,2.38,6.98c0.94,4.63,5.72,5.9,7.67,9.6c0.66-3.3-1.21-5.15-3.47-6.81
			c-0.7-0.52-1.63-1.05-1.89-1.78c-1.14-3.15-2.09-6.38-3.07-9.58c-0.39-1.29-0.51-2.71-1.09-3.89c-0.42-0.85-1.39-1.96-2.16-2
			c-3.98-0.17-7.57,1.22-10.85,3.42c-0.22,0.15-0.27,0.57-0.61,1.38C824.23,331.91,827.06,330.96,829.56,330.12z M635.91,310.71
			c-0.23-0.05-0.46-0.1-0.69-0.15c-0.21,0.25-0.51,0.48-0.63,0.77c-1.09,2.74-2.1,5.52-3.22,8.25c-0.71,1.73-1.84,2.79-3.73,1.61
			c-0.19,0.17-0.29,0.21-0.32,0.29c-0.99,2.14-0.2,5.83-4.48,5.13c-0.16-0.03-0.53,0.31-0.57,0.52c-0.33,1.83-0.62,3.67-0.91,5.51
			c0.28,0.09,0.56,0.18,0.84,0.27c2.92-2.89,5.55-6.21,8.85-8.55c3.7-2.62,3.87-6.33,4.54-10.02
			C635.82,313.14,635.81,311.92,635.91,310.71z M683.8,308.85c0,1.46-0.52,3.36,0.11,4.71c1.12,2.38,2.81,4.55,4.52,6.58
			c2.43,2.88,2.33,5.61,0.25,8.57c-0.41,0.58-0.31,1.53-0.44,2.3c0.26,0.1,0.51,0.21,0.77,0.31c1.19-0.76,2.98-1.26,3.43-2.33
			c0.88-2.11,1.73-4.7,1.27-6.79c-0.56-2.53-2.25-4.93-3.88-7.07C688.13,312.89,685.93,311.03,683.8,308.85z M750.08,296.3
			c-0.17,0.01-0.34,0.02-0.5,0.02c0-0.44,0.12-0.93-0.03-1.31c-0.25-0.65-0.67-1.23-1.02-1.84c-0.39,0.58-0.83,1.13-1.15,1.74
			c-0.86,1.66-1.47,3.48-2.51,5.02c-3.85,5.65-3.9,5.61-1.21,9.17c2.37,0.22,2.7-1.53,3.17-3.21c0.36-1.28,0.7-2.61,1.3-3.78
			c1.56-3.04,3.29-5.98,4.87-9.01c0.26-0.49,0.3-1.26,0.09-1.75c-0.12-0.28-1.05-0.49-1.43-0.32c-0.44,0.2-0.84,0.82-0.96,1.32
			C750.41,293.65,750.28,294.98,750.08,296.3z M690.61,340.82c-0.16,0.2-0.31,0.39-0.47,0.59c1.5,2.42,0.22,6.24,3.75,7.66
			c0.11,0.05-0.02,0.55,0.09,0.78c0.64,1.31,1.12,2.76,2.03,3.87c1.41,1.72,3.19,3.14,4.68,4.81c1,1.12,2.12,1.34,2.93,0.24
			c0.37-0.51,0.04-1.94-0.44-2.62c-2.57-3.68-5.21-7.33-8-10.85C693.86,343.64,692.14,342.3,690.61,340.82z M590,313.25
			c0.35,0.18,0.69,0.36,1.04,0.54c0.5-0.91,1.51-1.86,1.42-2.71c-0.27-2.51,1.29-3.53,2.98-4.68c1.55-1.06,3.08-2.2,4.45-3.48
			c2.2-2.07,4.36-4.22,6.34-6.49c0.62-0.71,0.68-1.95,0.9-2.96c0.24-1.08,0.08-2.35,0.6-3.25c0.75-1.3,2-2.31,2.92-3.53
			c0.36-0.48,0.4-1.2,0.58-1.81c-0.71,0.05-1.83-0.17-2.07,0.2c-1.47,2.21-2.86,4.49-4.04,6.87c-1.18,2.38-1.52,5.42-3.22,7.23
			c-2.74,2.91-6.31,5.04-9.52,7.51C590.15,308.4,589.81,310.74,590,313.25z M629.66,286.33c-5.61,4.77-11.01,9.33-16.34,13.96
			c-0.52,0.45-0.62,1.4-0.91,2.12c0.21,0.09,0.42,0.18,0.63,0.27c1.61-1.28,3.21-2.56,4.82-3.83c0.33,0.8,0.61,1.48,0.98,2.37
			c0.71-1.06,1.09-1.94,1.74-2.52c1.76-1.55,3.86-2.78,3.76-5.61c-0.01-0.26,0.89-0.59,1.39-0.83c0.53-0.25,1.09-0.44,1.56-0.62
			c0.19,0.69,0.41,1.5,0.66,2.42C630.37,292.45,631.13,289.39,629.66,286.33z M521.35,350.53c-0.33,1.79,1.02,3.65-1.1,5.16
			c-0.93,0.66-0.82,2.82-1.14,4.31c-0.13,0.64-0.14,1.31-0.21,1.96c0.67-0.23,1.45-0.31,2-0.71c5.22-3.71,6.38-9.43,7.27-15.21
			c0.18-1.13-0.42-2.39-0.67-3.59c-0.66,1.4-0.45,2.74-0.95,3.74c-0.74,1.49-1.98,2.74-3.33,4.53
			C523.19,350.72,522.34,350.63,521.35,350.53z M554.76,341.13c0.46-0.31,0.92-0.63,1.38-0.94c-0.32-1.45-0.7-2.89-0.96-4.35
			c-0.36-1.96-0.46-3.98-0.99-5.89c-0.41-1.44-3.16-2.14-4.01-0.96c-0.9,1.24-1.79,1.29-3.05,1.27c-0.59-0.01-1.19,0.55-1.79,0.85
			c0.41,0.52,0.71,1.29,1.24,1.51c3.23,1.31,6.11,2.96,7.37,6.48C554.2,339.79,554.49,340.45,554.76,341.13z M882.3,307.72
			c-0.11,0.13-0.22,0.26-0.33,0.39c2.26,2.78,4.52,5.57,6.8,8.35c0.86,1.05,1.62,2.2,2.63,3.07c4.22,3.63,8.53,7.17,12.8,10.74
			c1.9,1.59,3.81,3.18,5.72,4.77c0.21-0.25,0.41-0.5,0.62-0.75C901.12,325.44,891.71,316.58,882.3,307.72z M701.61,305.63
			c0.74,0.98,1.18,1.62,1.68,2.19c2.67,3.05,5.32,6.13,8.08,9.1c0.82,0.89,1.9,1.73,3.02,2.06c0.61,0.18,1.91-0.57,2.21-1.22
			c0.22-0.48-0.51-1.64-1.09-2.21c-1.1-1.09-2.54-1.86-3.6-2.98C709.11,309.61,706.65,306.21,701.61,305.63z M634.54,357.09
			c2.13-1.9,2.63-3.44,0.58-5.17c-0.25-0.21-0.54-0.6-0.51-0.86c0.28-2.23-0.29-4.2-2.48-4.94c-1.9-0.64-4.01-0.67-6.68-1.06
			C628.71,349.36,631.57,353.15,634.54,357.09z M427.59,329.8c0,3.08,0,5.88,0,8.48c4.57-1.21,7.32-3.87,7.18-9.2
			C432.43,329.31,430.15,329.54,427.59,329.8z M878.82,316.02c-0.19,0.21-0.38,0.42-0.58,0.62c0.71,0.69,1.39,1.41,2.12,2.07
			c2.42,2.17,5.01,4.17,7.25,6.51c1.77,1.85,3.03,4.19,4.67,6.18c1.72,2.08,3.58,4.05,5.48,5.97c0.65,0.65,1.6,1,2.64,1.63
			c-5.51-7.21-10.73-14.05-16.26-21.28c0.65,1.39,1.1,2.36,1.55,3.32c-0.12,0.09-0.23,0.17-0.35,0.26
			C883.17,319.54,880.99,317.78,878.82,316.02z M737.85,330.15c-0.38,0.37-0.76,0.75-1.13,1.12c2.09,2.09,4.15,4.22,6.28,6.27
			c2.1,2.02,4.27,3.96,6.42,5.93c0.25-0.27,0.5-0.53,0.75-0.8C748.55,336.04,741.04,335.23,737.85,330.15z M941.27,362.94
			c-0.49-2.64-9.98-9.81-13.09-10.25c1.86,2.38,3.77,4.85,5.73,7.28c0.32,0.4,0.83,0.72,1.32,0.9
			C937.14,361.57,939.07,362.19,941.27,362.94z M608.76,315.66c-0.66,1.72-1.34,3.6-2.11,5.44c-0.31,0.74-0.99,1.33-1.23,2.08
			c-0.7,2.26-1.45,4.54-1.78,6.87c-0.09,0.65,1.18,1.5,1.82,2.26c0.6-0.79,1.31-1.52,1.77-2.38c0.21-0.4,0.12-1.17-0.14-1.56
			c-1.83-2.73-0.17-5.14,1.06-7.2C609.42,319.05,609.65,317.31,608.76,315.66z M507.51,344.14c3.98,0.39,17.59-6.28,21.18-10.57
			C521.85,336.99,515.01,340.4,507.51,344.14z M860.65,357.17c0.05-0.42,0.2-0.75,0.1-0.93c-2.17-3.74-5.21-6.99-6.4-11.32
			c-0.1-0.35-1.26-0.41-2-0.63c0.35,1.74,0.5,2.97,0.86,4.13c0.46,1.5,0.73,3.27,1.72,4.33
			C856.49,354.43,858.57,355.61,860.65,357.17z M559.39,362.63c0-2.01,0-4.14,0-6.27c-0.12-0.02-0.23-0.03-0.35-0.05
			c-0.18,0.43-0.35,0.85-0.81,1.95c-0.42-1.71-0.69-2.78-1.15-4.65c-1.38,1.94-2.48,3.29-3.3,4.8c-0.23,0.42,0.19,1.63,0.66,1.91
			C555.81,361.16,557.36,361.71,559.39,362.63z M790.59,301.27c-0.21,0.2-0.41,0.41-0.62,0.61c2.9,2.79,5.74,5.65,8.75,8.32
			c0.8,0.71,2.13,0.89,3.25,1.15c0.39,0.09,0.99-0.21,1.3-0.53c0.13-0.13-0.1-0.93-0.38-1.12
			C798.81,306.86,794.69,304.07,790.59,301.27z M737.19,340c-0.35,0.37-0.71,0.75-1.06,1.12c1.49,1.1,2.99,2.18,4.47,3.29
			c1.58,1.2,3.1,2.47,4.72,3.61c0.4,0.29,1.07,0.2,1.62,0.28c-0.15-0.61-0.12-1.37-0.49-1.79c-0.82-0.93-2.23-1.51-2.71-2.55
			C742.36,341.03,739.76,340.62,737.19,340z M657.35,363.83c0.28-0.21,0.57-0.41,0.85-0.62c-1.35-1.8-2.74-3.56-4.02-5.41
			c-0.66-0.95-1.17-2.01-1.63-3.07c-0.63-1.43-1.14-2.91-1.71-4.37C649.85,356.55,653.06,360.49,657.35,363.83z M894.31,306.15
			c-0.91,7.84,0.31,11.94,3.84,13.91C896.81,315.2,895.56,310.67,894.31,306.15z M549.2,355.71c-2.12,2.52-4.24,5.04-6.46,7.68
			c0.18,0.35,0.46,0.88,0.73,1.41C547.38,363.1,547.86,362.42,549.2,355.71z M823.77,314.15c0.22-0.02,0.43-0.05,0.65-0.07
			c0.12-0.21,0.28-0.41,0.34-0.64c1.37-5.23-3.28-9-3.38-13.89c0-0.15-0.55-0.29-0.93-0.47c0,1.45-0.11,2.73,0.04,3.98
			c0.11,0.92,0.32,2.07,0.93,2.64c1.37,1.3,1.88,2.7,1.8,4.56C823.17,311.55,823.57,312.85,823.77,314.15z M566.43,350.83
			c-0.41,2.26,4.09,8.08,8.28,10.52C572.67,356.71,569.82,353.67,566.43,350.83z M866.41,291.31c-2.3,4.42-2.3,4.42,2.24,8.55
			C869.83,296.55,867.63,294.28,866.41,291.31z M832.76,298.95c-0.01-2.31-6.49-8.15-9.74-8.2
			C826.53,293.71,829.5,296.2,832.76,298.95z M883.63,316.94c-1.47-7.92-3.47-9.29-8.14-10.13
			C880.02,308.78,882.13,312.62,883.63,316.94z M701.1,348.31c2.86,2.65,5.13,4.75,7.78,7.2
			C708.59,352.66,704.61,348.97,701.1,348.31z M484.57,347.44c0.22,0.13,0.44,0.26,0.66,0.4c3.72-2.18,4.82-4.23,3.75-6.9
			C487.51,343.1,486.04,345.27,484.57,347.44z M728.34,323.7c2.11-2.35,3.94-4.39,5.96-6.64
			C731.25,317.13,728.05,320.68,728.34,323.7z M726.66,328.48c3.65-1.45,6.52-4.82,6.59-6.74c0.22,0.22,0.44,0.45,0.66,0.67
			C731.49,324.43,729.08,326.46,726.66,328.48z M710.96,352.27c0.29-0.26,0.58-0.53,0.87-0.79c-1.32-1.32-2.64-2.64-3.96-3.97
			c-0.25,0.24-0.5,0.49-0.75,0.73C708.4,349.58,709.68,350.93,710.96,352.27z M722.87,332.85c0.26,0.22,0.51,0.44,0.77,0.66
			c1.01-1.08,2.02-2.15,3.04-3.23c-0.24-0.22-0.49-0.44-0.73-0.65C724.92,330.7,723.9,331.78,722.87,332.85z M699.14,344.78
			c-0.2,0.22-0.4,0.44-0.6,0.66c0.66,0.55,1.31,1.1,1.97,1.65c0.18-0.22,0.36-0.44,0.54-0.66
			C700.42,345.88,699.78,345.33,699.14,344.78z M706.32,347.09c0.24-0.19,0.49-0.38,0.73-0.57c-0.51-0.68-1.01-1.37-1.52-2.05
			c-0.21,0.15-0.42,0.3-0.63,0.45C705.37,345.65,705.84,346.37,706.32,347.09z M731,332.58c-0.19-0.24-0.38-0.47-0.57-0.71
			c-0.51,0.48-1.01,0.97-1.52,1.45c0.14,0.16,0.28,0.32,0.42,0.48C729.89,333.4,730.44,332.99,731,332.58z M744.59,311.76
			c-0.25-0.24-0.39-0.49-0.57-0.52c-0.21-0.03-0.45,0.13-0.68,0.2c0.17,0.22,0.29,0.52,0.51,0.65
			C743.97,312.16,744.25,311.92,744.59,311.76z M911,335.84c-0.16,0.12-0.35,0.19-0.37,0.29c-0.02,0.12,0.11,0.27,0.17,0.41
			c0.16-0.12,0.31-0.24,0.47-0.37C911.18,336.06,911.09,335.95,911,335.84z M631.2,285.29c0.14-0.07,0.35-0.11,0.39-0.21
			c0.04-0.1-0.08-0.28-0.12-0.42c-0.17,0.09-0.34,0.18-0.51,0.27C631.03,285.04,631.11,285.16,631.2,285.29z M805.87,311.49
			c0-0.07,0-0.15,0-0.22c-0.27,0-0.55,0-0.82,0c0,0.07,0,0.15,0,0.22C805.32,311.49,805.59,311.49,805.87,311.49z M703.94,343.45
			c0.08,0,0.15,0,0.23,0c0-0.28,0-0.56,0-0.84c-0.08,0-0.15,0-0.23,0C703.94,342.89,703.94,343.17,703.94,343.45z M702.49,340.96
			c-0.06,0.01-0.14,0.01-0.17,0.04c-0.04,0.05-0.03,0.13-0.04,0.2c0.1-0.02,0.19-0.04,0.29-0.05
			C702.54,341.09,702.52,341.02,702.49,340.96z M875.35,313.5c0.01,0.06,0.01,0.14,0.04,0.17c0.05,0.04,0.13,0.03,0.2,0.05
			c-0.02-0.1-0.04-0.19-0.06-0.29C875.48,313.45,875.42,313.48,875.35,313.5z M912.45,337.29c-0.04-0.06-0.08-0.11-0.11-0.17
			c-0.05,0.1-0.09,0.2-0.14,0.3c0.06,0.02,0.14,0.06,0.16,0.04C912.41,337.43,912.42,337.35,912.45,337.29z M764.34,303.35
			c0.06-0.04,0.11-0.09,0.17-0.13c-0.05-0.05-0.1-0.1-0.14-0.16c-0.07,0.07-0.15,0.14-0.22,0.21
			C764.21,303.3,764.28,303.32,764.34,303.35z M871.54,302.51c0.01-0.07,0.02-0.14,0.04-0.21c-0.1,0.02-0.19,0.04-0.29,0.06
			c0.03,0.06,0.04,0.14,0.08,0.18C871.4,302.56,871.48,302.52,871.54,302.51z"/>
		<path class="st2" d="M993.84,348.74c-2.2-0.37-4.39-0.73-6.59-1.1c-2.99-1.4-5.98-2.8-8.96-4.22c-1.93-0.92-3.84-1.89-5.76-2.84
			c0,0,0.02,0,0.02,0c-0.74-0.37-1.48-0.74-2.22-1.11c-2.43-1.5-4.83-3.08-7.3-4.5c-7.9-4.54-15.83-9.01-23.74-13.52
			c-2.19-1.25-4.35-2.53-6.53-3.8c-0.19-0.18-0.38-0.36-0.56-0.55c0,0,0.02,0.02,0.02,0.02c-0.55-0.19-1.1-0.37-1.65-0.56
			c0,0,0.01,0.01,0.01,0.01c-2-1.28-4.01-2.55-6.01-3.83c0,0,0.01,0.01,0.01,0.01c-0.55-0.37-1.1-0.74-1.65-1.11
			c0,0,0.01,0.01,0.01,0.01c-0.55-0.55-1.1-1.1-1.65-1.64c0,0,0.02,0,0.02,0c-0.55-0.19-1.1-0.37-1.65-0.56c0,0,0.01,0.01,0.01,0.01
			c-1.1-0.73-2.21-1.47-3.31-2.2c-2.39,0.35-3.52-1.79-5.3-2.63c-7.64-3.61-15.36-7.04-23.03-10.59c-0.8-0.37-1.46-1.04-2.18-1.57
			c0.6-0.46,1.14-1.18,1.81-1.32c5.13-1.1,10.27-1.04,15.53-0.7c8.6,0.54,17.38,3.17,25.8-1.22c0.86-0.45,2.24-0.57,3.11-0.21
			c2.62,1.1,5.11,0.77,7.69-0.01c4.4-1.33,8.88-2.44,13.22-3.94c3.98-1.38,7.88-1.33,12.01-0.94c2.84,0.26,5.83-0.63,8.69-1.25
			c1.29-0.28,2.45-1.16,3.67-1.78c3.75-1.89,7.45-2.42,11.76-1.47c4.98,1.09,10.23,0.87,15.32,1.49c3.15,0.38,6.28,1.14,9.31,2.05
			c0.46,0.14,0.59,2.05,0.53,3.13c-0.2,3.24-0.87,6.47-0.8,9.7c0.17,7.96,0.93,15.91,0.94,23.87c0.01,7.32-0.68,14.64-0.98,21.96
			c-0.13,3.22-0.05,6.45-0.07,9.67c-2.17-0.37-4.33-0.74-6.5-1.1c-3.47-1.62-6.97-3.09-10.91-1.66c-0.37,0-0.74-0.01-1.1-0.01
			C994.54,348.75,994.19,348.75,993.84,348.74z"/>
		<path class="st3" d="M527.2,290.07c-3.37-0.32-6.09-0.58-9.59-0.91C521.19,288.03,523.99,286.77,527.2,290.07z"/>
		<path class="st2" d="M508.07,350.94c0.5,0.32,1.21,0.52,1.48,0.98c1.41,2.43,0.43,6.98-1.74,8.87c-0.96,0.83-1.86,1.74-2.7,2.69
			c-0.83,0.94-1.54,1.98-2.22,2.87c-1.51-0.43-3.02-0.78-4.47-1.32c-0.44-0.16-1.07-0.98-0.96-1.26c0.82-2.3-0.75-3.6-1.99-5
			c-1.08-1.23-2.72-2.09-0.1-3.67c0.87-0.52,0.79-2.61,1.27-4.49c2.27,1.59,4.15,2.91,6.42,4.5c0.36-0.8,1.14-1.71,0.96-2.36
			c-0.15-0.57-1.4-0.81-2.12-1.26c-0.85-0.54-2.04-0.99-2.36-1.77c-0.27-0.66,0.5-1.74,0.81-2.63c0.29-0.06,0.59-0.12,0.88-0.18
			c-1.72-2.66-3.32-5.39-5.18-7.95c-2.55-3.5-5.89-0.86-8.9-0.78c-0.09-0.23-0.18-0.46-0.28-0.69c1.96-1.02,3.92-2.04,6.47-3.38
			c0-0.67,0-2.09,0-4.07c0.24-0.29,0.92-1.12,1.59-1.94c-0.81-1.16-1.54-2.2-2.74-3.92c1.58,0.41,2.31,0.59,3.13,0.81
			c0.55-0.75,1.14-1.56,1.9-2.61c-1.56-1.31-3.08-2.59-4.59-3.87c0.06-0.13,0.12-0.26,0.17-0.39c1.07,0.39,2.15,0.74,3.2,1.16
			c3.76,1.51,7.55,2.92,11.23,4.6c1.65,0.75,3.4,1.8,4.37,3.22c0.33,0.48-1.63,2.52-2.68,4.04c0.61,2.44,1.31,5.22,2.08,8.28
			c-0.93,0.58-2.16,1.27-3.32,2.07c-1.87,1.3-1.76,3.66,0.16,4.7C511.82,348.31,511.82,348.31,508.07,350.94
			c-0.04,0.08-0.08,0.16-0.12,0.24C507.99,351.1,508.03,351.02,508.07,350.94z"/>
		<path class="st2" d="M753.37,311.62c0.93-0.14,1.49-0.22,2.13-0.32c-2.04-2.89-3.99-5.64-5.94-8.4c0.1-0.06,0.2-0.12,0.3-0.18
			c6.52,6.14,13.04,12.28,19.2,18.09c2.43,0.89,4.55,1.67,6.78,2.49c-0.12,0.13,0.11-0.04,0.08-0.11
			c-1.75-4.55-3.26-9.22-5.42-13.57c-0.95-1.93-3.21-3.2-5.06-4.95c0.91-1.37,1.84-2.76,3.07-4.6c-3.98-4.02-7.58-8.84-9.69-14.58
			c0.2-0.12,0.4-0.24,0.6-0.35c0.62,1.17,1.12,2.43,1.9,3.48c2.4,3.27,4.96,6.41,7.32,9.7c0.63,0.87,0.77,2.1,1.11,3.17
			c0.47,1.53,0.86,3.09,1.38,4.6c1.15,3.34,2.36,6.66,3.53,9.99c0.53,1.5,1.05,2.99,1.55,4.5c1.49,4.46,2.97,8.93,4.45,13.39
			c0.5,1.52,0.95,3.06,1.43,4.58c0.2,0.63,0.44,1.26,0.44,2.11c-3.94-1.9-8.46-1.84-11.85-5.24c-2.74-2.75-6.45-4.52-9.61-6.89
			c-1.7-1.27-3.67-2.64-4.54-4.43c-1.08-2.22-2.61-3.5-4.7-4.14c-3.51-1.07-4.82-4.02-6.61-6.6c0.17-0.21,0.33-0.43,0.5-0.64
			c6.86,4.62,13.71,9.24,20.57,13.86c0.18-0.21,0.35-0.43,0.53-0.64C764.34,319.58,757.59,317.06,753.37,311.62z M756.37,312.38
			c0.06-0.03,0.14-0.05,0.16-0.1c0.02-0.06-0.01-0.14-0.02-0.2c-0.08,0.04-0.17,0.09-0.25,0.13
			C756.29,312.27,756.33,312.32,756.37,312.38z"/>
		<path class="st2" d="M488.33,307.9c-0.88,0.98-1.8,1.93-2.62,2.96c-1.36,1.71-3.33,3.32-3.78,5.26c-0.45,1.96,0.63,4.28,1.37,6.37
			c0.74,1.77-3.86,2.76-0.59,4.97c-0.87,2.46-1.56,4.88-2.59,7.13c-0.48,1.05-1.48,2.09-2.5,2.61c-2.6,1.31-3.84,3.34-4.61,6.08
			c-0.51,1.82-1.68,3.56-2.91,5.05c-1.28,1.56-2.1,2.64-1.21,4.99c0.56,1.49-0.4,4-1.44,5.53c-1.32,1.93-3.42,3.32-5.17,4.96
			c-1.34,1.26-2.67,2.53-4.53,4.3c-0.9-1.07-1.83-2.09-2.66-3.18c-0.31-0.42-0.29-1.09-0.61-1.5c-0.78-0.98-2.55-2.25-2.35-2.74
			c0.55-1.31,1.92-2.27,2.98-3.35c0.24-0.24,0.54-0.42,0.79-0.61c-1.41-1.17-2.73-2.27-4.06-3.38c0.22-0.29,0.43-0.58,0.65-0.87
			c1.86,1.28,3.72,2.55,5.56,3.85c0.43,0.3,0.7,0.93,1.15,1.08c1.9,0.61,2.6,1.53,1.33,3.39c-0.18,0.27,0.21,0.93,0.57,2.3
			c1.27-1.97,2.13-3.31,2.98-4.63c-2.47-2.71-4.73-5.19-7.41-8.13c1.85-0.83,3.45-1.56,5.05-2.28c0.19,0.18,0.38,0.35,0.57,0.53
			c-0.26,0.96-0.52,1.92-0.81,3.01c1.79,0.99,3.71,2.05,5.63,3.1c0.17-0.11,0.35-0.22,0.52-0.33c-1.07-1.62-1.96-3.42-3.26-4.83
			c-1.88-2.05-2.11-4.86-0.12-6.8c1.03-1,2.16-1.94,3.34-2.76c1.72-1.19,3.12-2.27,3.71-4.65c0.36-1.46,2.71-2.42,4.56-3.09
			c0.31-1.59,0.62-3.18,0.94-4.77c0.32,0.04,0.64,0.08,0.96,0.12c0.06,0.75,0.13,1.51,0.22,2.56c0.77-1.98,1.43-3.69,2.12-5.48
			c-0.59-0.34-1.17-0.92-1.81-1.01c-3.14-0.46-1.85-1.71-0.79-3.25c1.29-1.87,2.1-4.08,3.49-5.86c2.01-2.59,4.35-4.92,6.55-7.37
			C487.8,307.4,488.07,307.65,488.33,307.9z"/>
		<path class="st2" d="M489.08,308.78c0.92,0.26,1.9,0.4,2.76,0.79c2.09,0.95,4.1,2.1,6.2,3.02c2.88,1.26,5.79,2.45,8.73,3.56
			c1.54,0.58,3.17,0.91,5.53,1.57c-2.69-3.74-5.54-5.69-9.07-6.93c-3.27-1.15-6.39-2.71-9.38-4.66c0.82,0.2,1.65,0.38,2.47,0.6
			c4.43,1.17,8.84,2.4,13.29,3.48c2.2,0.54,4.69,0.34,6.66,1.28c5.76,2.75,11.38,5.81,16.94,8.96c2.66,1.51,5.06,3.47,7.23,5.78
			c-7.16-3.51-14.33-7.02-21.48-10.52c-0.68,0.64-1.24,1.16-1.33,1.25c2.12,1.8,4.16,3.57,6.24,5.29c2.36,1.95,4.77,3.84,7.13,5.79
			c0.61,0.51,1.29,1.07,1.6,1.76c0.23,0.5,0.14,1.57-0.21,1.82c-0.51,0.37-1.56,0.54-2.08,0.25c-6.13-3.44-12.07-7.25-18.35-10.38
			c-2.79-1.39-6.26-1.42-9.4-2.13c-0.94-0.21-1.91-0.52-2.73-1.01c-1.08-0.64-2.01-1.5-3.02-2.26c-2.79-2.09-5.58-4.18-8.37-6.27
			C488.65,309.48,488.87,309.13,489.08,308.78z"/>
		<path class="st2" d="M712.51,328.02c0.07-1.69,0.15-3.39,0.22-5.08c0.19-0.15,0.38-0.3,0.56-0.45c0.48,0.71,1.01,1.4,1.42,2.15
			c1.32,2.44,2.61,4.89,3.87,7.36c0.23,0.45,0.45,1.04,0.34,1.49c-1.13,4.81-2.29,9.62-3.56,14.39c-0.19,0.72-1.01,1.27-1.54,1.89
			c-0.44-0.63-1.13-1.2-1.29-1.89c-0.79-3.46-2.4-6.34-5.27-8.51c-0.6-0.45-1.13-1.25-1.31-1.98c-1.38-5.65-5.44-9.69-8.49-14.34
			c-1.49-2.27-2.86-4.62-3.88-7.3C698.3,322.47,706.24,323.96,712.51,328.02c0.07,0.05,0.15,0.09,0.23,0.13
			C712.66,328.11,712.59,328.07,712.51,328.02z"/>
		<path class="st2" d="M689.08,362.5c-1.1-0.52-2.22-1-3.31-1.56c-4-2.07-7.99-4.16-11.98-6.25c-2.41-1.26-4.68-2.97-7.23-3.72
			c-6.15-1.81-10.86-5.92-15.96-9.39c-2.81-1.91-5.4-4.17-7.98-6.39c-0.46-0.39-0.44-1.35-0.63-2.05c0.82-0.05,1.83-0.44,2.44-0.1
			c3.08,1.71,6.02,3.69,9.1,5.41c1.31,0.73,2.86,1.53,4.28,1.48c4.87-0.16,8.84,2.16,12.66,4.53c2.47,1.53,4.29,4.06,6.52,6.02
			c3.59,3.16,7.28,6.22,10.92,9.34c0.66,0.57,1.25,1.22,1.87,1.84C689.53,361.95,689.3,362.22,689.08,362.5z"/>
		<path class="st2" d="M691.08,270.85c3.56,1.83,6.69,3.33,9.67,5.07c0.67,0.39,0.83,1.66,1.35,2.82c3.53-0.57,5.95,2.08,7.2,4.71
			c1.35,2.86,3.12,5.14,4.9,7.63c1.78,2.5,2.15,5.99,3.31,8.98c0.48,1.23,1.45,2.26,2.06,3.46c0.23,0.46,0.06,1.13,0.07,1.7
			c-0.54-0.11-1.26-0.05-1.6-0.37c-2.67-2.56-5.26-5.05-8.7-6.79c-1.81-0.92-2.58-3.78-4.02-5.6c-1.33-1.68-2.96-3.11-4.37-4.73
			c-0.69-0.79-1.2-1.74-1.79-2.61c0.22-0.22,0.43-0.45,0.65-0.67c1.36,0.67,2.73,1.34,4.09,2.02c0.25-0.17,0.51-0.34,0.76-0.5
			c-1.55-2.94-2.59-6.35-4.78-8.68C697.57,274.82,693.47,274.37,691.08,270.85z"/>
		<path class="st2" d="M687.96,278.94c2.71,3.11,7.52,4.04,7.82,9.25c0.04,0.78,1.24,1.84,2.13,2.16c2.52,0.92,4.24,2.53,5.63,4.79
			c0.98,1.59,2.49,2.85,3.67,4.33c0.57,0.73,0.91,1.64,1.27,2.31c1.29,0.71,2.48,1.46,3.74,2.05c2.79,1.3,5.92,1.99,6.82,5.75
			c0.26,1.06,2.12,1.65,2.91,2.7c0.49,0.65,0.37,1.77,0.52,2.67c-0.87-0.2-1.94-0.14-2.57-0.65c-3.53-2.82-6.83-5.93-10.44-8.63
			c-2.58-1.94-4.84-4.22-8.25-5.28c-2.16-0.67-4.02-3.49-5.21-5.76c-1.25-2.38-2.36-4.63-4.82-5.95c-1.59-0.85-2.15-2.19-2.17-4.04
			C688.98,282.93,688.4,281.21,687.96,278.94z"/>
		<path class="st2" d="M794.83,361.21c-3.84-0.5-5.27-4.08-8.89-4.23c-3.02-0.13-5.98-1.56-8.97-2.41c0.04-0.28,0.07-0.57,0.11-0.85
			c0.7-0.29,1.41-0.59,2.29-0.96c-0.18-0.57-0.38-1.19-0.65-2.03c1.6-0.55,3.09-1.07,4.39-1.51c-3.76-5.54-10.36-7.74-16.62-10.45
			c0.13-0.25,0.26-0.49,0.38-0.74c2.91,1.19,5.8,2.42,8.72,3.57c5.51,2.18,10.28,6.16,16.45,6.72c0.24,0.02,0.68,0.29,0.67,0.38
			c-0.54,2.95,5.06,4.83,1.43,8.49C793.6,357.71,794.54,359.71,794.83,361.21z"/>
		<path class="st2" d="M451.34,327.76c7.99-5.13,15.32-9.84,22.37-14.36c-0.45,2.1-0.77,2.43-9.85,9.6c2.23,2.74,3.08,5.6-1.5,8.06
			c1.7,0.19,2.55,0.29,3.39,0.39c0.43,1.15-1.57,2.37,0.24,3.28c-0.29,0.54-0.59,1.06-0.86,1.61c-0.29,0.6-0.52,1.23-0.84,1.82
			c-0.34,0.62-0.84,1.76-1.1,1.71c-0.76-0.14-1.64-0.6-2.09-1.21c-0.83-1.15-1.38-2.5-2.06-3.76c-1.02-1.89-2.43-3.01-4.66-3.6
			C453.21,330.98,452.43,329.09,451.34,327.76z"/>
		<path class="st2" d="M651.34,298.3c-0.71-1.13-1.25-2.42-2.17-3.34c-0.94-0.94-2.25-1.5-3.38-2.25c-0.44-0.29-1.02-0.57-1.24-1
			c-1.37-2.76-2.66-5.56-3.95-8.36c-0.09-0.19,0.09-0.51,0.27-1.33c2.25,1.45,4.31,2.76,6.33,4.12c0.34,0.23,0.8,0.84,0.7,1.09
			c-0.94,2.48,1.02,3.4,2.45,4.44c4.09,2.99,2.48,6.89,1.96,10.68c-0.21,1.48,0.04,3.02-0.05,4.52c-0.05,0.72-0.22,1.77-0.69,2.03
			c-0.63,0.35-1.78,0.36-2.38-0.01c-0.7-0.43-1.01-1.46-1.56-2.18c-1.05-1.37-2.16-2.68-3.22-4.04c-1.5-1.94-3.02-3.86-4.41-5.86
			c-1.1-1.59-2.02-3.3-2.72-5.51c4.35,2.58,8.71,5.17,13.06,7.75C650.66,298.8,651,298.55,651.34,298.3z"/>
		<path class="st2" d="M795.92,299.65c0.06-2.9-2.57-3.75-4.19-5.29c-2.15-2.05-4.84-3.55-6.84-5.71c-2.2-2.39-3.89-5.26-6.03-8.24
			c1.03,0.56,2.02,0.87,2.71,1.51c2.61,2.43,5.11,4.98,7.67,7.47c0.91,0.88,1.75,1.87,2.79,2.57c2.9,1.94,5.62,4.37,6.52,7.59
			c0.88,3.15,3.28,3.73,5.32,5.25c2.96,2.2,6.03,4.45,8.35,7.25c3.64,4.4,8.39,7.03,13.16,9.77c1.11,0.64,1.97,1.73,2.95,2.61
			c-0.26,0.34-0.52,0.68-0.78,1.02c-6.91-4.14-13.81-8.27-20.72-12.41c0.09-0.17,0.18-0.34,0.26-0.52c1.54,0.62,3.09,1.24,4.63,1.87
			c0.19,0.14,0.39,0.27,0.58,0.41c0.05-0.07,0.09-0.14,0.14-0.21c-0.24-0.07-0.47-0.14-0.71-0.21c-2.93-2.83-5.63-5.94-8.84-8.41
			c-4.18-3.22-8.77-5.92-13.15-8.87c-0.48-0.32-0.83-0.86-0.96-1.67C791.16,296.84,793.54,298.25,795.92,299.65
			c0.19,0.14,0.38,0.28,0.58,0.41c0.05-0.07,0.09-0.14,0.14-0.21C796.4,299.78,796.16,299.71,795.92,299.65z"/>
		<path class="st2" d="M814.9,334.31c1.2-2.12,2.2-2.23,3.65-0.86c4.09,3.86,8.29,7.61,12.44,11.41c0.27,0.24,0.62,0.47,0.76,0.77
			c2.46,5.56,7.95,7.07,12.64,9.75c2.75,1.57,5.17,3.73,7.68,5.71c0.54,0.43,0.81,1.19,1.21,1.8c-0.19,0.2-0.38,0.4-0.57,0.59
			c-2.47-1.77-4.89-3.61-7.42-5.28c-2.4-1.58-4.89-3.03-7.39-4.45c-3.36-1.91-6.68-3.92-10.17-5.56c-3.13-1.47-4.81-4.04-6.64-6.74
			C819.33,338.88,817.01,336.7,814.9,334.31z"/>
		<path class="st2" d="M759.69,350.95c-0.96-1.7-1.72-2.86-2.26-4.11c-0.19-0.45,0.16-1.13,0.26-1.71c0.56,0.14,1.15,0.21,1.67,0.43
			c0.98,0.41,2.39,1.53,2.8,1.23c1.09-0.78,2.04-2.05,0.82-3.69c-0.22-0.3,0.38-1.76,0.8-1.87c0.94-0.24,2.04-0.08,3,0.19
			c0.33,0.09,0.47,1,0.59,1.56c0.04,0.19-0.4,0.46-0.38,0.68c0.2,2.23-3.03,4.44-0.08,6.69c-1.23,4.19,1.56,6.82,3.73,9.7
			c0.12,0.15-0.17,0.61-0.39,1.3c-0.97-1.16-1.76-2.09-2.64-3.13c-2.3,1.44-3.97,1.2-5.29-1.13c-0.5-0.88-1.75-1.35-2.88-2.15
			c-0.18,1.21-0.28,1.95-0.4,2.76c-1.59-0.84-3.9-5.21-3.34-6.55c0.22-0.51,1.27-0.84,1.98-0.93
			C758.21,350.14,758.79,350.59,759.69,350.95z"/>
		<path class="st2" d="M428.21,341.14c2.12,0,4.24-0.16,6.33,0.05c1.98,0.2,3.68,3.64,2.8,5.55c-0.64,1.39-1.57,2.64-2.33,3.97
			c-1.41,2.49-0.58,4.26,2.05,4.71c1.41-0.46,0.6-3.64,3-2.61c-1,3.36-1.96,6.56-2.92,9.76c-0.28,0.03-0.55,0.07-0.83,0.1
			c-0.18-1.52-0.36-3.04-0.59-5.04c-1.08-0.45-2.78-1.16-4.49-1.86c-3.52-1.44-4.33-3.38-3.64-8.81c1.12,0.05,2.24,0.1,3.6,0.17
			c-0.68-1.48-1.13-2.53-1.64-3.54C429.11,342.71,428.59,341.84,428.21,341.14z"/>
		<path class="st2" d="M448.14,341.04c-1.48-2.08-4.93-2.74-3.24-7c0.79-0.24,2.08-1.01,3.29-0.89c0.86,0.08,1.8,1.23,2.35,2.12
			c0.62,0.99,0.92,2.21,1.21,3.37c0.82,3.24,4.16,1.72,5.62,2.81c0,1.7-0.16,3.01,0.03,4.27c0.36,2.39-0.7,3.63-2.94,3.92
			c-2.1,0.26-3.75-0.54-4.48-2.62C449.29,345.04,448.75,343.03,448.14,341.04z"/>
		<path class="st2" d="M906.09,344.51c-4.74-2.04-9.8-3.56-14.11-6.28c-3.48-2.2-7.21-2.97-10.9-4.22c-1-0.34-1.9-1.01-2.63-2.14
			c0.71-0.09,1.42-0.18,2.23-0.29c-3.02-4.4-7.86-4.99-12.35-6.52c0.74,0.07,1.48,0.13,2.22,0.2c0.12-0.17,0.25-0.34,0.38-0.51
			c-1.67-1.27-3.34-2.54-5.01-3.81c0.1-0.22,0.21-0.45,0.31-0.67c1.25,0.57,2.52,1.09,3.72,1.73c0.63,0.33,1.14,0.88,1.7,1.33
			c1.85,1.51,3.53,3.1,6.37,2.58c2.45-0.45,4.77,1,5.62,3.06c2.3,5.58,7.84,6.57,12.11,9.38c2.79,1.84,5.74,3.14,9.08,3.64
			c0.7,0.11,1.27,1.01,1.9,1.54C906.51,343.86,906.3,344.19,906.09,344.51z"/>
		<path class="st2" d="M672.6,314.17c-0.38-2.83-0.61-5.02-1-7.19c-0.37-2.09-0.91-4.15-1.43-6.45c2.67-2.51,5.45-5.12,8.23-7.73
			c0.34,0.22,0.67,0.43,1.01,0.65c-2.6,3.28,1.04,7.45-2.01,10.71c-0.23,0.25,0.24,1.05,0.11,1.51c-0.36,1.31-0.69,2.69-1.37,3.84
			C675.27,310.99,674.07,312.27,672.6,314.17z"/>
		<path class="st2" d="M533.21,341.58c-1.14-0.52-2.24-1.21-3.44-1.5c-1.24-0.3-2.58-0.2-4.24-0.3c2.16-2.04,8.26-2.51,10.25-1.05
			c-0.3,0.66-0.62,1.35-1.01,2.2c0.77,0.32,1.38,0.57,2.27,0.94c-0.64,1.46-1.24,2.82-1.95,4.43c1.48,1.6,1.82,3.52,0.57,5.7
			c-1.06,1.85,0.58,2.79,1.61,3.86c2.36,2.48,2.46,3.86,0.29,6.32c-0.29,0.33-0.91,0.62-1.31,0.55c-0.95-0.18-3.25-4.61-3.04-5.6
			c0.5-2.44,1.21-4.87,1.37-7.34c0.07-1.06-1.12-2.16-1.49-3.32c-0.43-1.36-0.57-2.8-0.84-4.21
			C532.57,342.04,532.89,341.81,533.21,341.58z"/>
		<path class="st2" d="M663.55,304.69c-0.17,0.96-0.31,1.92-0.51,2.87c-0.11,0.53-0.62,1.23-0.43,1.53c1.83,2.99-1.1,4.9-1.67,7.32
			c-0.45,1.9-1.87,3.56-0.33,5.54c0.14,0.18,0.18,0.6,0.06,0.79c-2.53,4.37,1.33,6.9,2.89,10.08c0.75,1.53,1.49,3.06,2.23,4.59
			c-0.34,0.2-0.68,0.39-1.01,0.59c-1.36-1.98-2.69-3.98-4.08-5.94c-1.16-1.63-2.44-3.18-3.57-4.84c-0.34-0.5-0.61-1.35-0.43-1.85
			c1.41-3.72,1.44-3.7-1.86-5.18c-0.14-0.06-0.21-0.28-0.59-0.81c5.19-3.53,7.08-9.16,8.57-15.01
			C663.06,304.48,663.31,304.58,663.55,304.69z"/>
		<path class="st2" d="M829.56,330.12c-2.49,0.84-5.32,1.79-8.61,2.9c0.35-0.81,0.39-1.23,0.61-1.38c3.28-2.2,6.87-3.59,10.85-3.42
			c0.77,0.03,1.74,1.15,2.16,2c0.59,1.19,0.7,2.6,1.09,3.89c0.98,3.21,1.93,6.43,3.07,9.58c0.26,0.73,1.19,1.27,1.89,1.78
			c2.26,1.66,4.13,3.51,3.47,6.81c-1.94-3.7-6.73-4.97-7.67-9.6c-0.48-2.39-1.5-4.68-2.38-6.98c-0.23-0.61-0.82-1.1-1.25-1.63
			C831.74,332.78,830.68,331.49,829.56,330.12z"/>
		<path class="st2" d="M635.91,310.71c-0.1,1.2-0.1,2.43-0.31,3.61c-0.67,3.7-0.84,7.4-4.54,10.02c-3.31,2.35-5.93,5.66-8.85,8.55
			c-0.28-0.09-0.56-0.18-0.84-0.27c0.3-1.84,0.58-3.68,0.91-5.51c0.04-0.21,0.4-0.55,0.57-0.52c4.27,0.7,3.48-2.99,4.48-5.13
			c0.03-0.07,0.13-0.12,0.32-0.29c1.89,1.18,3.02,0.11,3.73-1.61c1.12-2.73,2.13-5.5,3.22-8.25c0.12-0.29,0.41-0.51,0.63-0.77
			C635.45,310.61,635.68,310.66,635.91,310.71z"/>
		<path class="st2" d="M683.8,308.85c2.13,2.18,4.33,4.04,6.03,6.28c1.62,2.14,3.32,4.54,3.88,7.07c0.46,2.1-0.39,4.68-1.27,6.79
			c-0.44,1.07-2.24,1.57-3.43,2.33c-0.26-0.1-0.51-0.21-0.77-0.31c0.13-0.78,0.03-1.72,0.44-2.3c2.08-2.96,2.18-5.69-0.25-8.57
			c-1.71-2.03-3.4-4.2-4.52-6.58C683.28,312.21,683.8,310.32,683.8,308.85z"/>
		<path class="st4" d="M750.08,296.3c0.2-1.32,0.33-2.65,0.63-3.95c0.12-0.51,0.52-1.12,0.96-1.32c0.37-0.17,1.31,0.04,1.43,0.32
			c0.21,0.49,0.17,1.26-0.09,1.75c-1.58,3.02-3.31,5.97-4.87,9.01c-0.6,1.18-0.94,2.5-1.3,3.78c-0.47,1.68-0.8,3.44-3.17,3.21
			c-2.69-3.56-2.64-3.52,1.21-9.17c1.04-1.53,1.66-3.35,2.51-5.02c0.32-0.62,0.76-1.16,1.15-1.74c0.35,0.61,0.77,1.19,1.02,1.84
			c0.15,0.38,0.03,0.87,0.03,1.31C749.75,296.31,749.92,296.3,750.08,296.3z"/>
		<path class="st2" d="M690.61,340.82c1.54,1.48,3.25,2.82,4.57,4.47c2.79,3.52,5.43,7.16,8,10.85c0.48,0.69,0.82,2.11,0.44,2.62
			c-0.81,1.11-1.93,0.88-2.93-0.24c-1.49-1.66-3.27-3.08-4.68-4.81c-0.91-1.1-1.39-2.55-2.03-3.87c-0.11-0.23,0.02-0.73-0.09-0.78
			c-3.53-1.42-2.26-5.24-3.75-7.66C690.29,341.22,690.45,341.02,690.61,340.82z"/>
		<path class="st2" d="M846.63,314.92c1.52,1.08,3.06,2.14,4.57,3.23c2.38,1.71,4.77,3.4,7.13,5.15c1.56,1.15,2.8,2.28,2.35,4.71
			c-0.26,1.4,0.29,3.43,1.24,4.49c2.68,3.01,1.4,5.58-0.13,8.43c-0.35-0.25-0.76-0.46-0.74-0.54c0.73-2.41-0.9-4.23-1.59-6.26
			c-0.92-2.71-1.76-5.47-3-8.03c-0.74-1.54-2.15-2.77-3.32-4.08c-2.15-2.39-4.34-4.73-6.52-7.08
			C846.62,314.93,846.63,314.92,846.63,314.92z"/>
		<path class="st2" d="M590,313.25c-0.19-2.5,0.15-4.85,2.39-6.57c3.21-2.47,6.78-4.6,9.52-7.51c1.7-1.81,2.04-4.85,3.22-7.23
			c1.18-2.38,2.57-4.66,4.04-6.87c0.24-0.36,1.36-0.14,2.07-0.2c-0.18,0.61-0.22,1.33-0.58,1.81c-0.92,1.22-2.17,2.23-2.92,3.53
			c-0.52,0.9-0.36,2.17-0.6,3.25c-0.22,1.02-0.28,2.25-0.9,2.96c-1.98,2.28-4.14,4.42-6.34,6.49c-1.37,1.29-2.9,2.42-4.45,3.48
			c-1.69,1.15-3.25,2.17-2.98,4.68c0.09,0.84-0.91,1.8-1.42,2.71C590.7,313.6,590.35,313.42,590,313.25z"/>
		<path class="st5" d="M629.66,286.33c1.46,3.06,0.71,6.12-1.71,7.73c-0.25-0.92-0.47-1.73-0.66-2.42
			c-0.47,0.19-1.03,0.37-1.56,0.62c-0.5,0.24-1.4,0.57-1.39,0.83c0.09,2.83-2.01,4.06-3.76,5.61c-0.65,0.57-1.03,1.46-1.74,2.52
			c-0.37-0.89-0.65-1.57-0.98-2.37c-1.6,1.28-3.21,2.56-4.82,3.83c-0.21-0.09-0.42-0.18-0.63-0.27c0.29-0.72,0.39-1.67,0.91-2.12
			C618.65,295.65,624.05,291.1,629.66,286.33z"/>
		<path class="st2" d="M521.35,350.53c0.99,0.1,1.84,0.19,1.88,0.2c1.36-1.79,2.59-3.04,3.33-4.53c0.5-0.99,0.29-2.34,0.95-3.74
			c0.24,1.2,0.84,2.45,0.67,3.59c-0.89,5.78-2.05,11.5-7.27,15.21c-0.55,0.39-1.33,0.48-2,0.71c0.07-0.66,0.07-1.32,0.21-1.96
			c0.31-1.49,0.21-3.65,1.14-4.31C522.38,354.18,521.02,352.32,521.35,350.53z"/>
		<path class="st2" d="M554.76,341.13c-0.27-0.67-0.57-1.34-0.81-2.02c-1.27-3.53-4.14-5.18-7.37-6.48
			c-0.53-0.21-0.83-0.99-1.24-1.51c0.6-0.3,1.2-0.86,1.79-0.85c1.26,0.02,2.15-0.03,3.05-1.27c0.85-1.18,3.61-0.49,4.01,0.96
			c0.54,1.9,0.64,3.93,0.99,5.89c0.26,1.46,0.64,2.9,0.96,4.35C555.68,340.5,555.22,340.81,554.76,341.13z"/>
		<path class="st2" d="M882.3,307.72c9.41,8.86,18.82,17.72,28.23,26.58c-0.21,0.25-0.41,0.5-0.62,0.75
			c-1.91-1.59-3.81-3.18-5.72-4.77c-4.27-3.57-8.57-7.11-12.8-10.74c-1.01-0.87-1.78-2.03-2.63-3.07c-2.27-2.78-4.53-5.57-6.8-8.35
			C882.08,307.97,882.19,307.85,882.3,307.72z"/>
		<path class="st2" d="M701.61,305.63c5.04,0.58,7.49,3.98,10.3,6.94c1.06,1.12,2.5,1.89,3.6,2.98c0.58,0.58,1.32,1.73,1.09,2.21
			c-0.3,0.65-1.61,1.4-2.21,1.22c-1.12-0.34-2.2-1.18-3.02-2.06c-2.76-2.97-5.41-6.05-8.08-9.1
			C702.79,307.25,702.35,306.61,701.61,305.63z"/>
		<path class="st2" d="M634.54,357.09c-2.97-3.94-5.83-7.72-9.08-12.03c2.66,0.39,4.77,0.42,6.68,1.06
			c2.19,0.74,2.76,2.71,2.48,4.94c-0.03,0.27,0.26,0.65,0.51,0.86C637.17,353.65,636.67,355.18,634.54,357.09z"/>
		<path class="st2" d="M427.59,329.8c2.56-0.26,4.84-0.49,7.18-0.72c0.14,5.33-2.61,7.99-7.18,9.2
			C427.59,335.68,427.59,332.88,427.59,329.8z"/>
		<path class="st2" d="M878.82,316.02c2.18,1.76,4.35,3.52,6.53,5.27c0.12-0.09,0.23-0.17,0.35-0.26c-0.45-0.96-0.9-1.93-1.55-3.32
			c5.52,7.23,10.75,14.07,16.26,21.28c-1.04-0.63-1.99-0.98-2.64-1.63c-1.9-1.92-3.76-3.89-5.48-5.97c-1.64-1.99-2.9-4.32-4.67-6.18
			c-2.24-2.34-4.83-4.34-7.25-6.51c-0.74-0.66-1.42-1.38-2.12-2.07C878.43,316.44,878.62,316.23,878.82,316.02z"/>
		<path class="st2" d="M545.68,342.76c1.05,0.03,2.11,0.07,3.16,0.1c-0.55,1.15-0.83,2.87-1.73,3.31c-1.13,0.55-3.19,1.03-3.9-0.93
			c-1.03-2.83-1.77-5.76-2.68-8.8C544.83,336.2,546.37,338.4,545.68,342.76c-0.04,0.08-0.08,0.15-0.12,0.23
			C545.6,342.91,545.64,342.83,545.68,342.76z"/>
		<path class="st2" d="M734.31,344.94c2.94,1.6,6.02,2.99,8.8,4.84c3.61,2.41,3.51,2.56,1.02,5.31c-3.26-3.82-6.55-7.66-9.84-11.5
			c-0.48,0.42-0.95,0.84-1.43,1.26c0.49,0.04,0.97,0.07,1.46,0.11C734.32,344.95,734.31,344.94,734.31,344.94z"/>
		<path class="st2" d="M737.85,330.15c3.18,5.08,10.7,5.89,12.32,12.52c-0.25,0.27-0.5,0.53-0.75,0.8
			c-2.14-1.97-4.32-3.91-6.42-5.93c-2.13-2.05-4.19-4.18-6.28-6.27C737.1,330.9,737.47,330.52,737.85,330.15z"/>
		<path class="st2" d="M941.27,362.94c-2.2-0.75-4.13-1.37-6.04-2.07c-0.49-0.18-1-0.5-1.32-0.9c-1.96-2.43-3.87-4.9-5.73-7.28
			C931.29,353.13,940.78,360.3,941.27,362.94z"/>
		<path class="st2" d="M608.76,315.66c0.89,1.65,0.66,3.39-0.6,5.51c-1.23,2.06-2.89,4.47-1.06,7.2c0.26,0.39,0.35,1.17,0.14,1.56
			c-0.46,0.86-1.16,1.6-1.77,2.38c-0.65-0.76-1.92-1.61-1.82-2.26c0.33-2.33,1.07-4.61,1.78-6.87c0.23-0.75,0.92-1.35,1.23-2.08
			C607.43,319.26,608.1,317.38,608.76,315.66z"/>
		<path class="st2" d="M507.51,344.14c7.5-3.74,14.34-7.16,21.18-10.57C525.09,337.86,511.48,344.53,507.51,344.14z"/>
		<path class="st2" d="M860.65,357.17c-2.08-1.55-4.16-2.74-5.72-4.41c-0.99-1.06-1.26-2.84-1.72-4.33
			c-0.36-1.16-0.51-2.38-0.86-4.13c0.74,0.22,1.9,0.28,2,0.63c1.18,4.33,4.23,7.57,6.4,11.32
			C860.86,356.42,860.7,356.75,860.65,357.17z"/>
		<path class="st2" d="M559.39,362.63c-2.04-0.92-3.58-1.47-4.95-2.31c-0.47-0.28-0.89-1.49-0.66-1.91c0.82-1.51,1.93-2.86,3.3-4.8
			c0.46,1.87,0.73,2.94,1.15,4.65c0.46-1.1,0.63-1.52,0.81-1.95c0.12,0.02,0.23,0.03,0.35,0.05
			C559.39,358.49,559.39,360.62,559.39,362.63z"/>
		<path class="st2" d="M790.59,301.27c4.11,2.8,8.22,5.59,12.3,8.43c0.28,0.19,0.51,0.99,0.38,1.12c-0.31,0.31-0.91,0.62-1.3,0.53
			c-1.12-0.26-2.45-0.44-3.25-1.15c-3.01-2.66-5.85-5.53-8.75-8.32C790.18,301.68,790.38,301.47,790.59,301.27z"/>
		<path class="st2" d="M737.19,340c2.57,0.62,5.17,1.03,6.54,3.96c0.49,1.04,1.89,1.62,2.71,2.55c0.37,0.42,0.34,1.18,0.49,1.79
			c-0.55-0.08-1.22,0.01-1.62-0.28c-1.62-1.14-3.14-2.41-4.72-3.61c-1.48-1.12-2.98-2.2-4.47-3.29
			C736.48,340.75,736.83,340.37,737.19,340z"/>
		<path class="st2" d="M657.35,363.83c-4.29-3.35-7.5-7.28-6.5-13.46c0.56,1.46,1.08,2.94,1.71,4.37c0.46,1.06,0.97,2.12,1.63,3.07
			c1.28,1.85,2.67,3.61,4.02,5.41C657.92,363.42,657.63,363.63,657.35,363.83z"/>
		<path class="st2" d="M894.31,306.15c1.25,4.53,2.5,9.05,3.84,13.91C894.62,318.08,893.4,313.99,894.31,306.15z"/>
		<path class="st2" d="M857.52,317.66c-0.09-0.01-0.24,0.01-0.26-0.04c-1.74-3.41-5.49-4.7-7.78-7.4c-1.61-1.9-2.17-4.7-3.2-7.1
			c0.3-0.13,0.61-0.27,0.91-0.4c0.52,1.05,0.94,2.18,1.59,3.15c1.22,1.8,2.21,4.21,3.95,5.1
			C855.69,312.49,856.88,314.75,857.52,317.66L857.52,317.66z"/>
		<path class="st2" d="M549.2,355.71c-1.34,6.71-1.82,7.39-5.73,9.1c-0.27-0.53-0.55-1.07-0.73-1.41
			C544.96,360.75,547.08,358.23,549.2,355.71z"/>
		<path class="st2" d="M861.35,305.65c0.52,0.31,1.24,0.5,1.52,0.95c1.87,3.12,3.64,6.29,5.05,10.05c-1.54-0.98-3.1-1.94-4.6-2.99
			c-0.04-0.03,0.47-0.87,0.76-1.4c-0.77-0.43-1.63-0.91-2.82-1.57c0.83-0.43,1.39-0.72,2.09-1.08c-0.67-1.31-1.34-2.63-2.02-3.95
			C861.33,305.66,861.35,305.65,861.35,305.65z"/>
		<path class="st2" d="M823.77,314.15c-0.2-1.29-0.6-2.6-0.54-3.88c0.08-1.86-0.43-3.26-1.8-4.56c-0.61-0.58-0.82-1.72-0.93-2.64
			c-0.15-1.25-0.04-2.53-0.04-3.98c0.38,0.18,0.92,0.32,0.93,0.47c0.09,4.89,4.75,8.67,3.38,13.89c-0.06,0.23-0.23,0.43-0.34,0.64
			C824.2,314.1,823.98,314.12,823.77,314.15z"/>
		<path class="st6" d="M972.53,340.59c1.92,0.95,3.83,1.92,5.76,2.84c2.98,1.42,5.97,2.81,8.96,4.22
			c-6.02,0.62-10.1-3.27-14.54-6.29C972.55,341.25,972.59,340.85,972.53,340.59z"/>
		<path class="st2" d="M566.43,350.83c3.39,2.84,6.24,5.88,8.28,10.52C570.52,358.91,566.02,353.09,566.43,350.83z"/>
		<path class="st7" d="M866.41,291.31c1.22,2.97,3.42,5.24,2.24,8.55C864.11,295.72,864.11,295.72,866.41,291.31z"/>
		<path class="st2" d="M832.76,298.95c-3.26-2.75-6.22-5.24-9.74-8.2C826.27,290.8,832.74,296.64,832.76,298.95z"/>
		<path class="st2" d="M883.63,316.94c-1.49-4.32-3.61-8.16-8.14-10.13C880.15,307.65,882.16,309.02,883.63,316.94z"/>
		<path class="st6" d="M996,348.76c3.94-1.43,7.43,0.04,10.91,1.66C1003.27,349.87,999.63,349.31,996,348.76z"/>
		<path class="st2" d="M701.1,348.31c3.51,0.66,7.49,4.35,7.78,7.2C706.24,353.06,703.97,350.96,701.1,348.31z"/>
		<path class="st2" d="M484.57,347.44c1.47-2.17,2.94-4.34,4.41-6.5c1.07,2.67-0.03,4.72-3.75,6.9
			C485.01,347.7,484.79,347.57,484.57,347.44z"/>
		<path class="st2" d="M728.34,323.7c-0.29-3.02,2.91-6.56,5.96-6.64C732.28,319.3,730.45,321.35,728.34,323.7z"/>
		<path class="st2" d="M726.66,328.48c2.42-2.02,4.83-4.05,7.25-6.07c-0.22-0.22-0.44-0.45-0.66-0.67
			C733.18,323.66,730.31,327.03,726.66,328.48z"/>
		<path class="st2" d="M795.92,330.2c2.65,1.23,3.71,3.81,2.72,6.95C797.69,334.75,796.8,332.48,795.92,330.2
			C795.91,330.21,795.92,330.2,795.92,330.2z"/>
		<path class="st2" d="M734.32,344.95c-0.55-1.49-2.51-2.82-0.38-4.63c-0.96,1.66,4.2,2.63,0.37,4.62
			C734.31,344.94,734.32,344.95,734.32,344.95z"/>
		<path class="st2" d="M710.96,352.27c-1.28-1.34-2.56-2.69-3.85-4.03c0.25-0.24,0.5-0.49,0.75-0.73c1.32,1.32,2.64,2.64,3.96,3.97
			C711.54,351.74,711.25,352,710.96,352.27z"/>
		<path class="st6" d="M924.56,312.76c2,1.28,4.01,2.55,6.01,3.83C928.57,315.31,926.56,314.04,924.56,312.76z"/>
		<path class="st2" d="M722.87,332.85c1.02-1.07,2.05-2.14,3.07-3.21c0.24,0.22,0.49,0.44,0.73,0.65c-1.01,1.08-2.02,2.15-3.04,3.23
			C723.38,333.29,723.13,333.07,722.87,332.85z"/>
		<path class="st2" d="M734.32,329.12c-0.63,0.93-1.27,1.87-1.9,2.8c-0.28-0.27-0.56-0.54-0.84-0.8
			C732.49,330.45,733.4,329.78,734.32,329.12C734.31,329.11,734.32,329.12,734.32,329.12z"/>
		<path class="st2" d="M699.14,344.78c0.64,0.55,1.28,1.1,1.91,1.65c-0.18,0.22-0.36,0.44-0.54,0.66c-0.66-0.55-1.31-1.1-1.97-1.65
			C698.75,345.22,698.95,345,699.14,344.78z"/>
		<path class="st2" d="M706.32,347.09c-0.47-0.72-0.95-1.44-1.42-2.17c0.21-0.15,0.42-0.3,0.63-0.45c0.51,0.68,1.01,1.37,1.52,2.05
			C706.8,346.71,706.56,346.9,706.32,347.09z"/>
		<path class="st2" d="M731,332.58c-0.56,0.41-1.11,0.82-1.67,1.23c-0.14-0.16-0.28-0.32-0.42-0.48c0.51-0.48,1.02-0.97,1.52-1.45
			C730.62,332.11,730.81,332.35,731,332.58z"/>
		<path class="st6" d="M916.36,307.29c1.1,0.73,2.21,1.47,3.31,2.2C918.56,308.76,917.46,308.03,916.36,307.29z"/>
		<path class="st6" d="M921.29,310.03c0.55,0.55,1.1,1.1,1.65,1.64C922.39,311.13,921.84,310.58,921.29,310.03z"/>
		<path class="st2" d="M744.59,311.76c-0.34,0.16-0.62,0.4-0.74,0.33c-0.22-0.12-0.35-0.42-0.51-0.65c0.23-0.08,0.47-0.23,0.68-0.2
			C744.2,311.27,744.34,311.53,744.59,311.76z"/>
		<path class="st6" d="M922.92,311.66c0.55,0.37,1.1,0.74,1.65,1.11C924.02,312.4,923.47,312.03,922.92,311.66z"/>
		<path class="st6" d="M970.33,339.49c0.74,0.37,1.48,0.74,2.22,1.11C971.81,340.23,971.07,339.86,970.33,339.49z"/>
		<path class="st2" d="M734.31,329.11c0.22-0.28,0.44-0.56,0.67-0.83c0.06,0.06,0.12,0.12,0.18,0.18
			C734.88,328.68,734.6,328.9,734.31,329.11C734.32,329.12,734.31,329.11,734.31,329.11z"/>
		<path class="st2" d="M795.91,330.21c-0.49-0.08-0.97-0.16-1.46-0.24c0.05-0.17,0.09-0.34,0.14-0.51
			C795.04,329.71,795.48,329.96,795.91,330.21C795.92,330.2,795.91,330.21,795.91,330.21z"/>
		<path class="st2" d="M911,335.84c0.09,0.11,0.18,0.22,0.27,0.33c-0.16,0.12-0.31,0.24-0.47,0.37c-0.06-0.14-0.19-0.28-0.17-0.41
			C910.64,336.03,910.83,335.96,911,335.84z"/>
		<path class="st5" d="M631.2,285.29c-0.09-0.13-0.16-0.25-0.24-0.37c0.17-0.09,0.34-0.18,0.51-0.27c0.05,0.14,0.17,0.32,0.12,0.42
			C631.55,285.18,631.34,285.22,631.2,285.29z"/>
		<path class="st2" d="M805.87,311.49c-0.27,0-0.55,0-0.82,0c0-0.07,0-0.15,0-0.22c0.27,0,0.55,0,0.82,0
			C805.87,311.35,805.87,311.42,805.87,311.49z"/>
		<path class="st2" d="M703.94,343.45c0-0.28,0-0.56,0-0.84c0.08,0,0.15,0,0.23,0c0,0.28,0,0.56,0,0.84
			C704.1,343.45,704.02,343.45,703.94,343.45z"/>
		<path class="st6" d="M919.65,309.48c0.55,0.19,1.1,0.37,1.65,0.56C920.75,309.85,920.2,309.67,919.65,309.48z"/>
		<path class="st6" d="M930.56,316.57c0.55,0.19,1.1,0.37,1.65,0.56C931.66,316.95,931.11,316.76,930.56,316.57z"/>
		<path class="st2" d="M846.62,314.93c-0.13-0.19-0.27-0.39-0.4-0.58c0.07-0.05,0.14-0.09,0.21-0.14c0.07,0.24,0.14,0.48,0.21,0.71
			C846.63,314.92,846.62,314.93,846.62,314.93z"/>
		<path class="st2" d="M702.49,340.96c0.03,0.06,0.05,0.13,0.08,0.19c-0.1,0.02-0.19,0.04-0.29,0.05c0.01-0.07,0.01-0.15,0.04-0.2
			C702.35,340.97,702.43,340.97,702.49,340.96z"/>
		<path class="st2" d="M875.35,313.5c0.06-0.02,0.13-0.05,0.19-0.07c0.02,0.1,0.04,0.19,0.06,0.29c-0.07-0.01-0.15-0.01-0.2-0.05
			C875.36,313.65,875.37,313.56,875.35,313.5z"/>
		<path class="st2" d="M912.45,337.29c-0.03,0.06-0.04,0.14-0.09,0.18c-0.03,0.02-0.11-0.03-0.16-0.04c0.05-0.1,0.09-0.2,0.14-0.3
			C912.37,337.17,912.41,337.23,912.45,337.29z"/>
		<path class="st6" d="M993.84,348.74c0.35,0,0.71,0,1.06,0.01C994.54,348.75,994.19,348.75,993.84,348.74z"/>
		<path class="st2" d="M857.53,317.65c0.14,0.19,0.27,0.39,0.41,0.58c-0.07,0.05-0.14,0.09-0.21,0.14
			C857.66,318.14,857.59,317.9,857.53,317.65C857.52,317.66,857.53,317.65,857.53,317.65z"/>
		<path class="st2" d="M861.33,305.66c-0.13-0.2-0.27-0.39-0.4-0.59c0.07-0.05,0.14-0.09,0.21-0.14c0.07,0.24,0.14,0.48,0.21,0.71
			C861.35,305.65,861.33,305.66,861.33,305.66z"/>
		<path class="st2" d="M764.34,303.35c-0.06-0.02-0.13-0.05-0.19-0.07c0.07-0.07,0.15-0.14,0.22-0.21c0.05,0.05,0.1,0.1,0.14,0.16
			C764.45,303.26,764.4,303.31,764.34,303.35z"/>
		<path class="st2" d="M871.54,302.51c-0.06,0.01-0.14,0.05-0.17,0.03c-0.05-0.04-0.06-0.12-0.08-0.18c0.1-0.02,0.19-0.04,0.29-0.06
			C871.56,302.37,871.55,302.44,871.54,302.51z"/>
		<path class="st6" d="M932.19,317.12c0.19,0.18,0.38,0.36,0.56,0.55C932.57,317.48,932.38,317.3,932.19,317.12z"/>
		<path class="st1" d="M508.07,350.94c-0.04,0.08-0.08,0.16-0.12,0.24C507.99,351.1,508.03,351.02,508.07,350.94
			C508.07,350.94,508.07,350.94,508.07,350.94z"/>
		<path class="st1" d="M756.37,312.38c-0.04-0.06-0.08-0.11-0.11-0.17c0.08-0.04,0.17-0.09,0.25-0.13c0.01,0.07,0.04,0.15,0.02,0.2
			C756.51,312.33,756.42,312.35,756.37,312.38z"/>
		<path class="st1" d="M712.51,328.02c0.08,0.04,0.15,0.09,0.23,0.13C712.66,328.11,712.58,328.07,712.51,328.02
			C712.51,328.03,712.51,328.02,712.51,328.02z"/>
		<path class="st1" d="M811.73,314.38c0.24,0.07,0.47,0.14,0.71,0.21c-0.05,0.07-0.09,0.14-0.14,0.21
			C812.12,314.66,811.92,314.52,811.73,314.38C811.73,314.39,811.73,314.38,811.73,314.38z"/>
		<path class="st1" d="M795.92,299.65c0.24,0.07,0.47,0.14,0.71,0.21c-0.05,0.07-0.09,0.14-0.14,0.21
			C796.31,299.92,796.11,299.79,795.92,299.65C795.92,299.65,795.92,299.65,795.92,299.65z"/>
		<path class="st1" d="M545.68,342.76c-0.04,0.08-0.08,0.15-0.12,0.23C545.6,342.91,545.65,342.83,545.68,342.76
			C545.69,342.76,545.68,342.76,545.68,342.76z"/>
	</g>
</g>
</svg>
