<?xml version="1.0" encoding="utf-8"?>
<!-- Generator: Adobe Illustrator 26.5.0, SVG Export Plug-In . SVG Version: 6.00 Build 0)  -->
<svg version="1.1" id="Layer_1" xmlns="http://www.w3.org/2000/svg" xmlns:xlink="http://www.w3.org/1999/xlink" x="0px" y="0px"
	 viewBox="0 0 1150 700" style="enable-background:new 0 0 1150 700;" xml:space="preserve">
<style type="text/css">
	.st0{fill:#FEFEFE;}
	.st1{fill:#E3ECFA;}
	.st2{fill:#E4ECFA;}
	.st3{fill:#E4EDFA;}
</style>
<g>
	<g>
		<path class="st0" d="M285,479.64c0-86.55,0-173.09,0-259.64c193.09,0,386.18,0,579.27,0c0,86.55,0,173.09,0,259.64
			C671.18,479.64,478.09,479.64,285,479.64z M340.04,361.27c0.38,0.31,0.74,0.67,1.15,0.94c0.64,0.41,1.42,1.17,1.94,1.03
			c0.54-0.15,1.27-1.25,1.17-1.81c-0.25-1.48-0.63-3.93-1.44-4.13c-1.99-0.5-2.36,1.62-2.78,3.17
			C340.01,360.72,340.05,361.01,340.04,361.27c-1.07-0.48,0.02-3.34-2.3-2.26c-0.68,0.32-1.45,2-1.18,2.5
			c0.51,0.94,1.76,1.46,3.14,2.49C339.87,362.62,339.95,361.94,340.04,361.27z M616.86,374.91c2.69-0.02,1.75-2.43,1.99-3.62
			c0.23-1.15-0.63-3.43-1.43-3.65c-1.3-0.35-2.95,0.58-4.63,1.02c0.87,1.37,1.39,2.18,1.9,2.99c-1.43,0.16-2.85,0.32-4.28,0.49
			c-0.02,0.42-0.03,0.83-0.05,1.25c1.2,0.3,2.4,0.73,3.61,0.76c0.21,0.01,0.47-1.63,0.71-2.5
			C615.41,372.73,616.14,373.82,616.86,374.91c-1.18,0.44-2.37,0.87-3.56,1.3c0.49,0.67,0.95,1.88,1.46,1.9
			c1.56,0.07,4.03,0.2,4.52-0.64C620.45,375.45,617.71,375.81,616.86,374.91z M583.63,362.36c0,0.82-0.17,1.68,0.05,2.44
			c0.23,0.8,0.68,1.9,1.3,2.11c0.64,0.23,1.79-0.23,2.38-0.76c1.79-1.59,1.14-3.35-0.07-5.36
			C586.02,361.33,584.82,361.85,583.63,362.36c-0.3-0.79-0.58-1.59-0.99-2.73c1.42,0,2.6,0.14,3.71-0.06
			c0.58-0.11,1.05-0.82,1.58-1.26c-0.57-0.36-1.12-0.97-1.71-1.02c-1.22-0.1-2.46,0.11-3.5,0.18c0-0.99,0.22-2.25-0.04-2.36
			c-0.79-0.33-1.77-0.21-3.28-0.31c0.74,1.21,1.12,1.83,1.5,2.45c-0.78,0.21-1.6,0.42-2.82,0.74c0.87,0.72,1.39,1.16,2.11,1.76
			c-0.92,0.27-1.59,0.47-2.15,0.63c-0.45-1.2-0.85-2.28-1.35-3.62c-2.07,2.85-1.6,6.4,0.94,7.69c0.32-1.02,0.61-1.99,0.88-2.86
			C580.28,361.86,581.96,362.11,583.63,362.36z M470.28,373.27c0.42,1.35,0.87,2.69,1.24,4.06c0.75,2.79,1.97,3.52,5.08,3.03
			c2.63-0.41,1.3-2.24,1.32-3.59c0.01-0.54,0.14-1.14-0.03-1.62c-0.5-1.35-0.88-3.56-1.76-3.8
			C474.06,370.78,471.62,370.82,470.28,373.27c-1.61,0.34-3.24,0.67-4.86,1c0.28,1.27,0.22,2.03,0.54,2.27
			c1.26,0.94,2.64,1.71,3.98,2.54c0.14-1.03,0.33-2.07,0.4-3.11C470.4,375.08,470.3,374.17,470.28,373.27z M580.36,376.54
			c4.59,0.18,9.19,0.39,13.78,0.51c0.62,0.02,1.69-0.29,1.79-0.66c0.18-0.66-0.15-1.5-0.37-2.24c-0.29-0.97-0.94-1.89-0.98-2.85
			c-0.06-1.69,0.43-3.41,0.3-5.09c-0.06-0.77-0.93-1.99-1.59-2.11c-1.12-0.2-3.42,0.34-3.41,0.53c0.07,3.09-1.53,6.48,1.55,9.46
			c-1.39,0-2.47,0-3.56,0c0.14-4.03-0.67-6.02-2.8-6.14c-0.97-0.05-2.56,0.52-2.86,1.23c-0.42,1.01-0.29,2.68,0.33,3.57
			c0.57,0.82,2.08,0.98,3.61,1.61c-1.49,0-2.48,0.04-3.48-0.01C581.11,374.27,580.24,374.88,580.36,376.54
			c-2.65-2.43-5.25,0.28-7.93-0.02c1.45,0.87,2.98,1.26,4.44,1.83C578.8,379.11,580.06,378.81,580.36,376.54z M613.6,401.64
			c-0.18-2.03-0.47-4.05-0.53-6.09c-0.1-3.52-0.25-3.7-3.61-3.24c-0.8,0.11-1.63,0.08-2.44,0.05c-1.48-0.05-2.16,0.62-2.15,2.12
			c0.03,3.76-0.04,7.53,0.04,11.29c0.03,1.37,0.56,2.19,2.35,2.14C612.43,407.78,613.23,407.11,613.6,401.64
			c0.18,0.19,0.44,0.35,0.53,0.58c1.16,3.11,1.98,3.45,4.59,1.39c0.75-0.59,1.24-1.92,1.28-2.94c0.08-1.95-0.18-3.93-0.43-5.89
			c-0.29-2.37-0.71-4.72-1.08-7.08c-1.03,1.12-1.26,2.71-2.06,3.09c-2.57,1.24-3.11,3.14-2.87,5.7
			C613.73,398.19,613.6,399.92,613.6,401.64z M569.74,417.85c0.28-3.94,0.69-7.61,0.77-11.3c0.07-3.39-2.14-5.63-4.61-4.81
			c-1.13,0.37-2.04,1.41-3.04,2.14c0.02-0.22,0.04-0.44,0.07-0.66c-2.11-0.13-4.37-0.75-6.27-0.17c-0.83,0.25-1.06,2.91-1.31,4.52
			c-0.22,1.42-0.23,2.91-0.07,4.34c0.17,1.53,0.29,3.26,1.1,4.44c0.57,0.82,2.29,1.17,3.46,1.1c0.53-0.03,1.3-1.55,1.4-2.45
			c0.33-3.17,0.41-6.37,0.59-9.56c0.8,0.89,1.06,1.82,1.09,2.75c0.07,2.18,0.04,4.36,0.02,6.54c-0.02,2.02,0.16,3.66,2.99,2.97
			C567.04,417.41,568.33,417.77,569.74,417.85z M456.1,387.63c0.15-1.1,0.31-2.48,0.54-3.86c0.31-1.89-1.02-2.6-2.37-2.55
			c-0.86,0.04-2.09,1.02-2.39,1.86c-0.4,1.12-0.35,2.6,0.02,3.75c0.62,1.89,1.59,3.34,4.25,2.93c1.39-0.21,3.03,0.85,4.48,1.52
			c1.26,0.58,2.32,1.85,3.59,2.06c2.12,0.35,4.35,0.18,6.52,0.04c0.58-0.04,1.12-0.77,1.67-1.19c-0.55-0.49-1.04-1.31-1.65-1.4
			c-1.39-0.21-2.84-0.07-4.27-0.07c1.23-0.56,2.47-0.66,3.69-0.54c2.66,0.27,5.05,0.06,5.85-3.06c0.27-1.05,0.61-2.35,0.22-3.22
			c-0.31-0.7-1.66-1.28-2.57-1.31c-4.23-0.14-8.47-0.05-12.7-0.06c-1.33,0-2.64-0.03-2.67,1.85c-0.04,2.07,1.4,1.98,2.81,1.98
			c3.05-0.01,6.09,0,9.14,0c0,0.09,0,0.17,0,0.26C465.73,386.94,461.2,387.27,456.1,387.63z M656.78,391.16
			c0.9-0.72,1.63-1.79,2.45-1.86c5.05-0.46,5.67-3.41,4.51-7.51c-0.02-0.08-0.01-0.18,0-0.27c0.3-2.12-0.61-3.16-2.76-3.3
			c-0.7-0.04-1.38-0.54-2.07-0.83c0.47-0.54,0.88-1.14,1.41-1.62c1.21-1.12,2.06-2.01,0.01-3.3c-1.78-1.13-7.91-2.1-9.74-0.98
			c-0.68,0.42-1.33,1.32-1.46,2.09c-0.37,2.13-0.53,4.3-0.62,6.46c-0.08,1.85,0.3,3.28,2.83,2.62c1.25-0.33,2.66-0.06,4.02-0.06
			C656.3,385.27,654.38,388.51,656.78,391.16z M529.32,396.21c0.1,2.09,0.28,3.79,0.24,5.47c-0.06,2.43-0.38,4.86-0.35,7.29
			c0.01,0.73,0.8,2.06,1.23,2.06c3.4,0.02,6.81-0.15,10.19-0.45c0.57-0.05,1.49-1.02,1.51-1.58c0.13-4.13,0.21-8.27-0.05-12.38
			c-0.05-0.86-1.48-1.74-2.43-2.39c-0.34-0.24-1.56,0.02-1.64,0.28c-0.91,2.91-2.87,2.25-4.99,1.75
			C531.87,395.98,530.59,396.21,529.32,396.21z M514.88,378.05c-0.21,0.11-0.94,0.29-0.95,0.52c-0.15,2.74-0.22,5.48-0.22,8.23
			c0,0.19,0.86,0.63,1.08,0.51c0.49-0.26,1.05-0.75,1.18-1.25c0.36-1.33,0.5-2.72,0.73-4.09c0.45,2.05,0.29,4.06,0.53,6.03
			c0.09,0.71,1.09,1.79,1.74,1.85c2.65,0.23,5.34,0.19,8,0.09c0.39-0.01,1.04-0.84,1.07-1.32c0.11-1.94,0.1-3.9-0.01-5.84
			c-0.15-2.79-2.32-4.38-5.17-4.03c-2.17,0.27-4.36,0.39-6.55,0.58c-0.3-0.34-0.6-0.68-0.9-1.02c4.15,0.02,8.6-0.01,5.31-5.19
			c-0.64-1-3.79-1.22-5.35-0.65C512.01,373.71,515.67,375.93,514.88,378.05z M572.64,393.7c0.25-0.3,0.46-0.43,0.46-0.57
			c0.04-4.4,0.08-8.8,0.05-13.2c0-0.36-0.4-0.85-0.74-1.05c-2.64-1.56-5.44-2.53-8.45-1.2c-2.8,1.24-5.66,2.58-4.34,6.63
			c0.19,0.57,0.03,1.26,0.03,1.9c0,1.92,0,3.83,0,5.47C564.69,390.26,568.49,392.81,572.64,393.7z M550.03,397.05c0-0.2,0-0.4,0-0.6
			c-1.81,0.41-3.61,0.81-5.64,1.27c0,3.73-0.01,7.44,0,11.15c0.01,2.95,1.04,3.98,3.7,4.84c1.3,1.09,2.6,2.18,3.81,3.2
			c0.47-0.3,0.74-0.38,0.75-0.49c0.51-5.54,1.03-11.09,1.44-16.64c0.03-0.41-0.65-1.01-1.13-1.3
			C552.04,397.91,551.02,397.51,550.03,397.05z M624.45,402.32c4.77-2.65,3.9-6.77,3.83-10.6c-0.05-2.6-0.57-5.22-0.45-7.8
			c0.12-2.53-1.24-2.52-3.02-2.48c-1.68,0.04-3.2-0.25-3.09,2.39c0.2,4.79,0.11,9.6,0.03,14.39
			C621.71,400.52,621.59,402.7,624.45,402.32z M567.91,376.31c1.58-4.99,1.46-9.93,0.16-14.86c-0.15-0.55-1.54-1.31-2-1.12
			c-0.66,0.28-1.43,1.39-1.36,2.06c0.17,1.6-0.34,2.15-1.86,2.19c-0.76,0.02-1.51,0.34-1.95,0.44c-0.21,2.38-0.32,4.43-0.6,6.46
			c-0.42,3.07,0.74,4.48,3.86,4.54C565.23,376.03,566.3,376.17,567.91,376.31z M639.21,383.73c0-2.9,0.11-5.52-0.08-8.11
			c-0.05-0.63-0.97-1.38-1.66-1.73c-0.58-0.29-1.42-0.01-2.14-0.1c-5.4-0.66-5.4-0.66-5.39,4.78c0.01,4.12,0.81,4.89,5.11,5.1
			c0.74,0.04,2.07,0.4,2.09,0.68c0.22,3.43,2.82,2.35,4.66,2.48c0.46,0.03,0.98-0.8,1.47-1.23c-0.45-0.47-0.83-1.14-1.38-1.35
			C641.03,383.91,640.04,383.87,639.21,383.73z M711.47,376.13c0.29-7.17,0.29-7.17-5.55-8.16c-0.09-0.02-0.18-0.05-0.26-0.06
			c-3.45-0.42-4.96,0.98-4.89,4.36c0.03,1.33-0.15,2.69-0.38,4.01c-0.44,2.52,0.51,3.51,2.96,2.75
			C706.08,378.18,708.76,377.11,711.47,376.13z M596.79,390.16c2.25,0,3.78-0.06,5.3,0.01c3.19,0.15,6.39,0.6,9.58,0.49
			c3.2-0.11,1.65-2.82,1.89-4.44c0.26-1.73-0.97-2.12-2.44-2.04c-4.4,0.24-8.79,0.45-13.18,0.75c-0.4,0.03-1.07,0.59-1.1,0.94
			C596.72,387.41,596.79,388.96,596.79,390.16z M707.75,356.91c-0.72,0-1.45,0-2.17,0c-2.96,0.02-3.51,0.67-3.12,3.52
			c0.22,1.6,0.35,3.21,0.51,4.81c0.14,1.46,0.73,1.94,2.32,1.66c1.65-0.28,3.46-0.3,5.09,0.05c1.55,0.34,2.33,0.1,2.38-1.47
			c0.07-2.17,0.21-4.37-0.1-6.49c-0.12-0.78-1.32-1.62-2.22-2.01C709.67,356.65,708.65,356.91,707.75,356.91z M632.7,372.21
			c0.77-0.45,2.37-0.85,2.86-1.82c0.64-1.27,0.32-3,0.59-4.5c0.49-2.73-0.46-4.03-3.28-4.05c-1.24-0.01-2.6,0.61-3.71,0.28
			c-3.66-1.1-3.3,1.84-3.86,3.69c-0.63,2.1-0.37,3.89,2.31,4.53C629.27,370.73,630.85,371.51,632.7,372.21z M450.12,384.57
			c0-3.66,0-3.7-3.67-3.64c-1.7,0.03-3.41,0.2-5.09,0.47c-1.09,0.18-2.8,0.39-3.06,1.04c-0.61,1.55-0.29,3.37,1.69,3.99
			c2.13,0.66,4.31,1.3,6.51,1.51C450.1,388.29,450.12,388.14,450.12,384.57z M642.6,366.23c2.27-2.86,3.82-5.71,3.17-9.37
			c-0.57-3.21-1-6.45-1.53-9.9C640.43,349.35,639.47,362.91,642.6,366.23z M582.7,386.16c-2.12,0.28-3.63,0.35-5.08,0.71
			c-0.76,0.19-2,0.85-2,1.3c0,2.69,0.27,5.38,0.54,8.07c0.03,0.31,0.57,0.77,0.92,0.82c1.45,0.22,2.92,0.31,5.08,0.51
			C582.33,393.92,582.5,390.39,582.7,386.16z M646.34,384.11c0.37-2.14,0.87-4.1,1-6.09c0.13-1.91,0.7-4.27-1.66-5.24
			c-1.31-0.54-2.95-0.44-4.41-0.31c-0.22,0.02-0.3,1.79-0.42,2.75c-0.18,1.43-0.3,2.86-0.5,4.29c-0.33,2.4,0.39,3.18,2.78,3.32
			C643.93,382.87,644.71,383.44,646.34,384.11z M660.4,367.42c-0.18-3.42-0.15-6.93-0.73-10.33c-0.13-0.74-2.44-1.39-3.79-1.5
			c-0.59-0.05-1.8,1.32-1.85,2.1c-0.13,1.85,0.29,3.74,0.43,5.62C654.8,367.96,655.41,368.42,660.4,367.42z M587.42,405.73
			c0.06-2.63-1.4-3.72-3.52-3.17c-1.04,0.27-2.1,0.7-3.13,0.66c-1.64-0.07-3.23,0.37-3.32,1.94c-0.11,1.96,0.58,3.97,1.04,5.93
			c0.04,0.18,1.08,0.39,1.45,0.2c2.17-1.16,4.33-2.36,6.36-3.73C586.94,407.12,587.2,406.1,587.42,405.73z M301.39,363.46
			c0.27-0.12,1.81-0.32,2.17-1.09c0.81-1.68,1.09-3.64,1.39-5.52c0.04-0.25-1.03-0.9-1.64-0.98c-1.95-0.27-3.93-0.51-5.88-0.44
			c-0.67,0.02-1.73,0.86-1.91,1.51C294.44,360.96,296.41,363.45,301.39,363.46z M437.58,375.02c0-1.17,0.23-2.41-0.07-3.5
			c-0.26-0.95-1.26-2.52-1.69-2.44c-1.27,0.23-3.21,0.9-3.47,1.82c-0.66,2.28-0.76,4.79-0.68,7.19c0.06,1.81,1.34,2.94,3.29,2.78
			c1.67-0.14,2.94-0.76,2.65-2.87C437.47,377.02,437.58,376.01,437.58,375.02z M404.89,373.71c-0.04,3.07,2.57,5.18,5.56,4.24
			c0.42-0.13,0.91-0.96,0.9-1.45c-0.08-2.67-0.26-5.34-0.54-7.99c-0.05-0.44-0.67-1.05-1.13-1.17c-3.39-0.88-4.78,0.37-4.51,3.85
			C405.23,371.98,405,372.78,404.89,373.71z M448.44,372.18c-2.59,0-4.66-0.14-6.71,0.07c-0.86,0.09-2.29,0.83-2.36,1.41
			c-0.21,1.67-0.96,3.96,1.24,4.78c1.79,0.66,3.88,0.75,5.82,0.71c0.68-0.02,1.78-1.1,1.91-1.84
			C448.64,375.67,448.44,373.94,448.44,372.18z M684.62,381.97c0.32-1.37,0.83-3.04,1.03-4.74c0.08-0.65-0.57-1.99-0.87-1.98
			c-2.47,0.05-5.06-0.06-7.36,0.67c-2.15,0.69-0.17,2.41-0.1,3.67c0.02,0.27,0.01,0.54,0.04,0.81c0.19,2.21,1.55,3.2,3.58,2.61
			C682.13,382.67,683.32,382.34,684.62,381.97z M639.31,356.41c-0.62-1.68,1.1-4.6-1.98-4.81c-3.47-0.24-5.23,1.58-5.19,4.29
			c0.05,3.87,1.2,5.11,4.74,5.08C640.54,360.95,638.69,358.07,639.31,356.41z M600.06,381.66c0.01-0.07,0.02-0.14,0.02-0.21
			c1.36,0,2.74,0.14,4.06-0.06c0.63-0.09,1.17-0.83,1.74-1.27c-0.56-0.46-1.1-1.27-1.7-1.32c-5.11-0.44-10.22-0.78-15.34-1.01
			c-0.61-0.03-1.78,0.78-1.78,1.2c0,0.89,0.43,1.93,1.02,2.62c0.28,0.33,1.32,0.1,2.01,0.01c1.37-0.18,2.73-0.65,4.08-0.62
			C596.14,381.04,598.1,381.42,600.06,381.66z M508.65,401.47c0.45-0.07,0.91-0.15,1.36-0.22c0-3.08,0-6.16,0-9.19
			c-6.32-0.68-6.32-0.68-5.96,5.19c0.03,0.54-0.14,1.16,0.05,1.62c0.35,0.81,0.91,1.52,1.38,2.27c0.28-0.08,0.56-0.16,0.84-0.23
			c0-1.76,0-3.53,0-5.29c0.11,0,0.23,0,0.34,0C507.33,397.56,507.99,399.51,508.65,401.47z M556.94,368.91
			c0.38-0.05,0.76-0.11,1.14-0.16c0.16-0.82,0.24-1.67,0.52-2.45c0.34-0.96,0.62-2.15,1.35-2.71c1.51-1.17,3.22-4.4,2.23-4.88
			c-1.63-0.79-3.66-0.89-5.53-0.92c-0.41-0.01-1.18,1.5-1.2,2.32c-0.05,1.95,0.15,3.93,0.44,5.87
			C556.02,366.99,556.57,367.94,556.94,368.91z M631.65,351.25c-3.76-0.29-5.22,0.47-5.46,2.83c-0.17,1.61-0.22,3.28,0.04,4.86
			c0.12,0.68,1.18,1.66,1.83,1.67c0.97,0.01,2.67-0.59,2.78-1.17C631.35,356.76,631.42,353.99,631.65,351.25z M511.78,364.47
			c0.97,0,1.88,0.24,2.53-0.08c0.5-0.24,0.65-1.18,0.96-1.81c-1.33-0.41-2.66-0.81-3.99-1.22c-0.63,2.53-2.69,1.42-4.15,1.49
			c-1.52,0.07-2.86,0.16-2.71,2.06c0.12,1.62,0.38,3.12,2.62,3.51C510.37,368.99,511.33,367.05,511.78,364.47z M813.97,351.78
			c0.65-3.68-1.51-4.08-3.51-4.05c-1.31,0.02-3.48,0.63-3.74,1.46c-0.8,2.51,2,6.05,4.47,6.01
			C813.87,355.17,813.62,352.79,813.97,351.78z M821.07,347.75c-1.15,0.7-4.21-0.69-4.62,2.34c-0.38,2.79,1.5,4.16,5.22,4.01
			c2.31-0.09,2.67-2.02,2.84-3.93C824.68,348.07,823.62,347.4,821.07,347.75z M428.97,379.61c0.21-3.11,0.5-5.95,0.49-8.8
			c0-0.51-1.23-1.32-1.98-1.43c-1.08-0.17-2.24,0.17-3.94,0.36C425.76,373.03,423.1,378.09,428.97,379.61z M456.11,374.02
			c0.01-3.97,0.02-3.76-3.39-3.55c-2.55,0.16-2.62,1.65-2.6,3.46c0.02,2.02,0.42,3.85,2.82,4.23
			C455.53,378.57,456.11,377.77,456.11,374.02z M487.06,358.55c-3.29-0.01-3.53,0.28-2.89,3.25c0.13,0.61,0.2,1.23,0.28,1.85
			c0.3,2.18,1.56,2.97,4.14,2.51c2.05-0.37,1.96-1.7,1.41-3.25c-0.14-0.41-0.14-0.9-0.09-1.34
			C490.17,359.21,489.21,358.14,487.06,358.55z M690.13,365.55c-0.38-1.48-1.06-3.01-1.09-4.54c-0.03-1.98-1.23-2.24-2.42-1.78
			c-0.73,0.28-1.44,1.6-1.49,2.49c-0.11,1.76,0.16,3.56,0.43,5.32c0.12,0.79,0.49,2.03,1,2.17c0.83,0.23,2.18,0.03,2.71-0.55
			C689.9,367.99,689.85,366.73,690.13,365.55z M719.49,370.93c-0.78-1.21-1.3-3.04-2.39-3.48c-1.65-0.67-5.08,1.67-4.76,2.85
			c0.48,1.75-0.01,4.3,2.86,4.53C716.68,374.95,719,372.68,719.49,370.93z M376.75,360.83c-0.91,1.4-1.76,2.11-1.75,2.82
			c0.02,2.6,0.19,5.22,0.61,7.78c0.11,0.69,1.31,1.21,2.01,1.8c0.53-0.62,1.5-1.24,1.5-1.87c0.03-2.6-0.14-5.21-0.46-7.79
			C378.56,362.83,377.73,362.19,376.75,360.83z M578.18,370.84c0-0.27-0.04-0.55,0.01-0.81c0.39-2.21-0.73-3.18-2.77-3.26
			c-2.22-0.09-1.83,1.79-2.11,3.07c-0.21,0.95-0.49,2.03-0.24,2.9c0.27,0.9,1.09,2.23,1.77,2.3
			C577.1,375.26,578.57,374.91,578.18,370.84z M530.16,384.67c0.23,6.33,0.23,6.33,6.24,6.01
			C537.3,385.57,534.83,383.2,530.16,384.67z M502.05,385.71c-0.11-0.05-0.57-0.12-0.88-0.38c-1.3-1.07-2.4-0.47-2.76,0.74
			c-0.16,0.56,0.82,1.95,1.53,2.17c1.19,0.37,2.58,0.1,3.97,0.1c0.06-0.98,0.1-1.72,0.15-2.41c1.17-0.13,2.12-0.23,3.8-0.41
			c-0.69-1.53-0.92-3.03-1.78-3.66c-0.67-0.48-2.52-0.25-3.13,0.37C502.25,382.95,502.34,384.44,502.05,385.71z M594.18,399.8
			c0.4,1.63,0.55,2.73,0.95,3.74c0.41,1.04,1.06,1.99,1.6,2.97c1.37-0.77,3.58-0.37,3.78-2.75c0.11-1.32,0.24-2.64,0.36-3.97
			C598.58,399.8,596.42,399.8,594.18,399.8z M451.59,359.09c-0.86,0-1.49-0.01-2.12,0c-1.98,0.03-2.79,1.17-2.58,3
			c0.24,2.05,1.68,2.02,3.23,1.64c0.44-0.11,0.88-0.23,1.32-0.26c1.81-0.1,4.19,0.59,4.09-2.45
			C455.41,357.92,452.84,359.56,451.59,359.09z M601.13,366.41c-0.26-0.25-0.97-1.32-1.29-1.21c-1.28,0.44-3.01,0.96-3.5,1.98
			c-0.61,1.24-0.44,3.09-0.04,4.51c0.23,0.82,1.53,1.53,2.5,1.84c0.35,0.11,1.44-1,1.62-1.71
			C600.82,370.28,600.87,368.64,601.13,366.41z M624.52,354.02c0.2-1.14,0.44-2.08,0.5-3.04c0.08-1.28,0.18-2.72-1.71-2.77
			c-1.88-0.06-3.75-0.01-5.62-0.01C617.64,351.65,619.27,353.03,624.52,354.02z M496.91,383.23c-2.91,0.49-4.94,0.7-6.84,1.33
			c-0.21,0.07-0.02,3.38,0.69,3.72c1.43,0.69,3.7,1,4.95,0.28C496.62,388.04,496.44,385.62,496.91,383.23z M388.2,373.88
			c-0.28-4.02-0.49-7.58-0.83-11.13c-0.04-0.46-0.71-0.86-1.09-1.29c-0.52,0.52-1.47,1.05-1.47,1.57c-0.01,2.15,0.36,4.29,0.4,6.45
			C385.25,371.3,385.43,372.9,388.2,373.88z M574.68,360.87c-0.36-1.03-0.43-2.41-1.15-3.04c-2-1.74-3.05-0.93-3.57,2.61
			c-0.36,2.46,0.66,4.65,2.34,4.51C574.85,364.75,574.27,362.62,574.68,360.87z M414.4,369.54c0.33,2.49,0.42,4.56,0.95,6.51
			c0.21,0.78,1.4,1.3,2.14,1.94c0.34-0.74,0.84-1.45,0.98-2.23c0.17-0.96,0.08-1.97,0.05-2.96c-0.04-1.18-0.14-2.35-0.22-3.53
			C417.04,369.36,415.79,369.44,414.4,369.54z M458.59,368.25c-0.71-0.77-1.31-1.96-1.87-1.94c-3.08,0.11-6.42-1.11-9.29,1.19
			C449.08,369.93,453.45,370.23,458.59,368.25z M359.5,370.26c-0.48-2.17-0.35-4.18-1.17-4.7c-1.1-0.69-2.96-0.42-4.43-0.17
			c-0.69,0.12-1.74,1.18-1.71,1.78c0.04,0.79,0.82,1.97,1.54,2.21C355.29,369.89,357.01,369.92,359.5,370.26z M596.86,414.51
			c2.16-0.83,4.25-0.45,4.24-3.08c-0.01-1.49-0.5-2.93-1.95-2.51c-1.69,0.49-4.62-0.68-4.84,2.17
			C594.22,412.19,596.01,413.44,596.86,414.51z M329.76,362.14c0.44-1.74,1.03-3.54,1.28-5.38c0.05-0.4-1.03-1.21-1.7-1.38
			c-0.93-0.25-1.99-0.22-2.94-0.02c-0.57,0.12-1.37,0.71-1.47,1.21c-0.14,0.68,0.05,1.73,0.52,2.18
			C326.74,359.96,328.24,360.97,329.76,362.14z M547.42,363.23c-3.51-0.59-3.57-0.55-3.57,2.64c0,0.63-0.25,1.49,0.06,1.84
			c0.78,0.88,1.81,1.52,2.74,2.26c0.51-0.88,1.38-1.73,1.45-2.64C548.2,366.04,547.7,364.71,547.42,363.23z M465.44,373.21
			c-0.15-2.02-0.21-3.84-0.45-5.64c-0.1-0.76-0.49-2.05-0.88-2.1c-0.86-0.12-2.02,0.16-2.66,0.73c-0.44,0.4-0.37,1.56-0.25,2.34
			c0.12,0.75,0.8,1.43,0.86,2.18C462.21,372.63,463.39,373.02,465.44,373.21z M743.04,367.39c0.34-0.14,0.67-0.27,1.01-0.41
			c-0.33-2.95-0.61-5.91-1.04-8.84c-0.06-0.43-0.83-0.75-1.27-1.13c-0.39,0.53-1.12,1.07-1.11,1.58c0.07,2.32,0.21,4.66,0.62,6.94
			C741.39,366.24,742.42,366.78,743.04,367.39z M720.36,362.61c0.2,0.12,0.4,0.23,0.6,0.35c0,0.45,0.04,0.91-0.01,1.36
			c-0.16,1.68,0.69,2.81,2.26,2.72c1.79-0.1,1.75-1.46,1.17-2.83c-0.13-0.32-0.21-0.74-0.13-1.07c0.44-1.82,0.59-3.74-1.82-3.78
			C721.76,359.34,721.05,361.46,720.36,362.61z M542.56,380.97c-2.51,0.57-4.12,0.94-5.73,1.31c0.42,1.23,0.5,2.89,1.35,3.58
			c0.83,0.67,3.32,0.83,3.56,0.38C542.41,385.03,542.27,383.38,542.56,380.97z M434.24,386.76c0.35-0.39,0.7-0.77,1.05-1.16
			c-0.55-1.23-0.78-3.04-1.72-3.54c-1.13-0.6-2.85-0.1-4.32-0.07c0.12,1.02-0.12,2.57,0.44,2.96
			C431.01,385.85,432.71,386.19,434.24,386.76z M770.66,362.03c1.02,0.81,2.5,2.5,2.97,2.26c1.36-0.71,2.32-2.2,3.43-3.38
			c-1.15-0.61-2.24-1.52-3.46-1.74C772.14,358.92,770.92,359.63,770.66,362.03z M670.02,359.16c-0.53,0.26-0.95,0.35-0.96,0.48
			c-0.28,3.16-0.55,6.32-0.69,9.49c-0.01,0.24,1.17,0.88,1.46,0.72c0.48-0.27,0.97-1.04,0.94-1.58
			C670.61,365.33,670.3,362.4,670.02,359.16z M475.83,364.18c0.15,2.6,1.52,3.28,3.36,3.03c0.84-0.11,2.04-0.84,2.25-1.53
			c0.38-1.26-2.67-4.63-3.56-4.12C476.99,362.05,476.5,363.27,475.83,364.18z M608.54,369.54c0-1.75,0.54-3.57-0.14-4.51
			c-0.78-1.08-2.6-1.51-4.05-1.93c-0.37-0.11-1.06,0.92-1.6,1.43c0.8,0.86,1.55,1.78,2.43,2.57
			C605.96,367.81,606.9,368.37,608.54,369.54z M317.78,361.63c1.4,1.93,4.39,2.57,5.46,1.02c0.56-0.82,0.55-3.06-0.03-3.46
			C320.19,357.08,319.55,360.6,317.78,361.63z M471.08,359.61c-0.1,0.19-0.21,0.38-0.31,0.57c-0.54,0-1.14-0.16-1.6,0.04
			c-0.75,0.31-1.41,0.85-2.11,1.29c0.7,0.65,1.34,1.39,2.13,1.9c0.38,0.25,1.05,0.09,1.59,0.04c1.49-0.14,3.68,0.54,3.63-1.84
			C474.4,360.92,472.25,360.27,471.08,359.61z M737.55,366.17c0.14-1.17,0.32-1.94,0.3-2.71c-0.05-1.4-0.22-2.8-0.34-4.21
			c-1.05,0.94-2.11,1.87-3.15,2.82c-1.57,1.43-0.81,2.31,0.72,3C735.72,365.36,736.38,365.65,737.55,366.17z M510.37,347.09
			c-0.3,0.09-0.6,0.17-0.91,0.26c-0.39,0.64-0.71,1.34-1.19,1.91c-0.39,0.46-0.95,0.78-1.44,1.16c0.54,0.53,0.99,1.26,1.64,1.55
			c1.3,0.6,2.72,0.96,4.51,1.57c0.1-1.21,0.19-2.34,0.31-3.73c-1.2,0.23-1.95,0.37-2.51,0.48
			C510.64,349.13,510.51,348.11,510.37,347.09z M470.2,370.55c0.09-0.18,0.18-0.37,0.27-0.55c0.54,0,1.12,0.12,1.62-0.03
			c0.68-0.2,1.3-0.59,1.95-0.9c-0.53-0.75-0.97-1.6-1.63-2.21c-0.31-0.28-1.11-0.28-1.57-0.1c-1.46,0.56-2.87,1.27-4.29,1.92
			C467.76,369.3,468.98,369.92,470.2,370.55z M394.16,362.09c0.74,1.35,5.5,2.96,6.65,2.17c0.42-0.29,0.69-1.02,0.73-1.57
			c0.03-0.42-0.33-1.19-0.64-1.26C398.62,360.95,396.22,360.02,394.16,362.09z M558.04,399.15c1.61,1.05,2.73,2.34,3.49,2.15
			c1.25-0.3,2.27-1.57,3.39-2.43c-1.44-0.69-2.84-1.54-4.35-1.95C560.14,396.8,559.36,397.95,558.04,399.15z M600.5,349.44
			c1.59,2.9,4.45,1.59,6.61,2.31c0.19,0.06,0.87-0.65,0.93-1.07c0.08-0.55-0.03-1.35-0.39-1.7
			C606.65,348.01,602.01,348.33,600.5,349.44z M731.04,367.1c0.41-0.15,0.82-0.3,1.23-0.46c-0.51-1.98-0.87-4.01-1.61-5.9
			c-0.22-0.57-1.47-0.75-2.25-1.1c-0.25,0.82-0.94,1.88-0.65,2.43C728.66,363.85,729.92,365.44,731.04,367.1z M530.96,371.97
			c0.5-0.01,1-0.02,1.5-0.03c0.31-1.95,0.77-3.9,0.81-5.85c0.01-0.49-1.36-1-2.09-1.5c-0.26,0.64-0.61,1.27-0.74,1.93
			c-0.15,0.76-0.19,1.57-0.1,2.34C530.46,369.9,530.74,370.93,530.96,371.97z M365.63,370.25c0.03,0,0.07-0.01,0.1-0.01
			c-0.09-0.89,0.1-1.99-0.35-2.61c-0.37-0.51-1.71-0.84-2.27-0.56c-1.15,0.57-0.48,5.64,0.77,5.96c0.48,0.12,1.37-0.43,1.69-0.93
			C365.86,371.66,365.63,370.88,365.63,370.25z M503.19,351.14c-0.3,2.5-0.54,4.5,1.84,4.93c0.78,0.14,2.61-1.23,2.64-1.96
			C507.8,351.16,504.96,352.44,503.19,351.14z M346.49,363.21c-0.96,1.2-1.93,1.86-1.97,2.58c-0.08,1.53,0.7,2.99,2.45,2.85
			c0.77-0.06,2.16-1.49,2.03-1.89C348.63,365.62,347.62,364.7,346.49,363.21z M545.49,381.11c1.06-0.96,1.73-1.57,2.41-2.19
			c-1.18-0.61-2.31-1.52-3.55-1.72c-0.77-0.12-1.72,0.82-2.59,1.29C542.89,379.29,544.02,380.08,545.49,381.11z M609.94,377.04
			c0.21-0.18,0.8-0.71,1.39-1.23c-0.63-0.48-1.21-1.27-1.89-1.37c-1.41-0.2-2.88-0.11-4.32,0.02c-0.4,0.04-0.74,0.62-1.11,0.96
			c0.34,0.36,0.64,0.95,1.03,1.03C606.44,376.71,607.87,376.81,609.94,377.04z M537.49,369.13c1.3,1.11,2.04,1.95,2.98,2.4
			c0.25,0.12,1.64-1.11,1.54-1.47c-0.35-1.33-1.11-2.54-1.71-3.8C539.53,367.05,538.75,367.84,537.49,369.13z M496.11,362.13
			c-1.36,1.08-2.38,1.89-3.4,2.7c0.89,0.45,1.85,1.35,2.67,1.24c1.12-0.15,2.14-1.07,3.2-1.65
			C497.89,363.78,497.2,363.15,496.11,362.13z M527.9,361.08c0-1.79,0.06-3.58-0.05-5.35c-0.02-0.33-0.72-0.77-1.17-0.87
			c-0.31-0.06-0.85,0.29-1.09,0.61C524.69,356.71,525.52,360,527.9,361.08z M521.93,361.54c0.24-2.3,0.48-4.08,0.55-5.87
			c0.01-0.29-0.69-0.81-1.1-0.85c-0.44-0.05-1.32,0.34-1.32,0.54C520.04,357.29,519.01,359.5,521.93,361.54z M587.42,396.7
			c0.64-1.41,1.27-2.8,1.9-4.19c-1.22-0.28-2.43-0.56-3.65-0.84C585,395.29,585.02,395.35,587.42,396.7z M504.19,347.34
			c-0.98,0.33-1.75,0.55-2.48,0.84c-0.65,0.26-1.27,0.6-1.91,0.91c0.61,0.25,1.22,0.52,1.84,0.75c0.57,0.22,1.14,0.5,1.73,0.58
			c0.72,0.1,1.63,0.28,2.15-0.06c0.41-0.27,0.69-1.45,0.44-1.87C505.61,347.91,504.71,347.66,504.19,347.34z M746.87,361.44
			c1.64,0.81,3.07,1.52,4.5,2.23c0.09-1.15,0.7-2.8,0.17-3.36C750.28,359.01,748.65,359.3,746.87,361.44z M688.63,353.03
			c1.2-0.56,2.28-1.06,3.36-1.57c-1.14-0.37-2.28-1.03-3.41-1.01c-1.13,0.02-2.25,0.73-3.38,1.14
			C686.27,352.03,687.34,352.48,688.63,353.03z M724.05,369.26c1.43,1.69,4.9,2.45,6,1.49c0.39-0.34,0.59-1.1,0.54-1.64
			c-0.03-0.28-0.81-0.73-1.21-0.69C727.71,368.6,726.07,368.93,724.05,369.26z M632.29,388.03c0.83-0.87,1.71-1.41,1.88-2.11
			c0.11-0.45-0.85-1.66-1.29-1.64c-1.29,0.07-2.55,0.58-3.83,0.92C630,386.03,630.94,386.85,632.29,388.03z M341.6,368.99
			c0.36-0.26,0.71-0.52,1.07-0.78c-0.66-1.16-1.07-2.73-2.07-3.35c-0.68-0.42-2.18,0.51-3.31,0.83c0,0.34,0,0.67,0,1.01
			C338.72,367.47,340.16,368.23,341.6,368.99z M516.89,360.66c0.58-0.05,1.16-0.09,1.75-0.14c0-1.6,0.07-3.2-0.06-4.79
			c-0.03-0.34-0.84-0.93-1.15-0.86c-0.5,0.13-1.27,0.74-1.25,1.1C516.29,357.55,516.64,359.1,516.89,360.66z M459.4,374.36
			c0.84-0.75,1.99-1.56,1.9-1.73c-0.47-0.93-1.26-1.7-1.93-2.53c-0.88,0.79-1.75,1.58-2.63,2.37
			C457.54,373.04,458.33,373.61,459.4,374.36z M530.49,361.46c0.92-1.39,1.91-2.24,1.77-2.84c-0.22-0.97-1.18-1.77-1.82-2.64
			c-0.61,0.65-1.74,1.34-1.7,1.96C528.79,358.91,529.62,359.84,530.49,361.46z M366.29,364.34c-0.22,0.53-0.44,1.06-0.66,1.59
			c1.35,0.75,2.7,1.51,4.05,2.26c0.25-0.88,0.82-2.49,0.71-2.54C369.08,365.08,367.67,364.74,366.29,364.34z M639.6,345.18
			c-0.4-0.07-0.8-0.15-1.21-0.22c-0.41,0.95-1.23,1.94-1.14,2.83c0.14,1.36,0.77,2.86,3.23,2.16
			C640.18,348.33,639.89,346.76,639.6,345.18z M501.62,401.01c1.71-1.16,1.76-5.43,0.85-5.91c-0.31-0.16-1.56,0.57-1.55,0.84
			C501.02,397.64,501.36,399.32,501.62,401.01z M581.24,378.54c-1.13,0.85-1.8,1.35-2.47,1.85c0.8,0.7,1.51,1.6,2.44,2.01
			c0.31,0.14,1.61-0.93,1.65-1.49C582.9,380.28,582.01,379.59,581.24,378.54z M430.03,349.71c2.11,1.84-2.16,3.28,0.43,4.15
			c2.25,0.76,2.11-2.29,3.67-3.8C432.74,349.93,431.9,349.86,430.03,349.71z M754.77,359.32c-0.12,0.31-0.25,0.61-0.37,0.92
			c1.79,3.33,2.44,3.53,5.16,1.39C757.87,360.81,756.32,360.07,754.77,359.32z M394.33,360.17c-1.34-0.78-2.15-1.62-2.76-1.5
			c-0.71,0.14-1.24,1.14-1.85,1.77c0.78,0.46,1.52,1.12,2.36,1.28C392.52,361.81,393.13,361.03,394.33,360.17z M440.7,350.97
			c-3.43-1.49-4.39,0.87-6.26,2.06C437.58,354.74,438.46,352.04,440.7,350.97z M760.09,353.65c-3,0.16-3.51,1.39-3.03,3
			c0.15,0.51,1.19,0.74,1.82,1.11C759.24,356.53,759.6,355.3,760.09,353.65z M513.26,370.62c0.48-0.13,0.95-0.27,1.43-0.4
			c-0.09-1.11-0.18-2.23-0.27-3.34c-0.88,0.2-1.75,0.39-2.63,0.59C512.28,368.51,512.77,369.56,513.26,370.62z M767.5,352.96
			c-0.33,0.21-0.67,0.43-1,0.64c0.52,1.16,1.05,2.33,1.74,3.88c1.04-1.17,1.58-1.78,2.35-2.64
			C769.53,354.19,768.51,353.58,767.5,352.96z M371.9,359.3c0.39-0.23,0.77-0.46,1.16-0.69c-0.36-1.03-0.72-2.06-1.08-3.09
			c-0.8,0.43-1.6,0.86-2.4,1.29C370.35,357.64,371.12,358.47,371.9,359.3z M724.03,354.14c-0.04,0.26-0.08,0.52-0.12,0.78
			c2.38,1.8,4.05,1.95,6.04,0.08C727.73,354.68,725.88,354.41,724.03,354.14z M570.41,354.86c-0.05-0.38-0.1-0.76-0.14-1.15
			c-1.26,0.19-2.51,0.39-3.77,0.58c0.14,0.53,0.11,1.31,0.45,1.54C568.47,356.85,569.63,356.34,570.41,354.86z M403.15,353.94
			c2.12,2.5,3.74,2.48,5.32,0C406.71,353.94,405.13,353.94,403.15,353.94z M506.86,386.58c0.25,0.58,0.3,0.98,0.45,1.02
			c1.23,0.31,2.46,0.6,3.72,0.76c0.13,0.02,0.36-0.82,0.55-1.27c-1.05-0.24-2.1-0.53-3.16-0.71
			C508.01,386.32,507.56,386.49,506.86,386.58z M659.3,349.05c-0.17,0.47-0.34,0.94-0.51,1.42c1.16,0.46,2.32,0.96,3.52,1.29
			c0.1,0.03,0.51-1.12,0.78-1.73C661.83,349.7,660.57,349.37,659.3,349.05z M580.52,369.38c0-1.87,0-3.46,0-5.38
			C578.09,366.11,578.1,367.41,580.52,369.38z M384.06,357.46c0.36-0.1,0.73-0.21,1.09-0.31c-0.18-1.07-0.37-2.13-0.55-3.2
			c-0.88,0.3-1.76,0.6-3.11,1.07C382.7,356.17,383.38,356.81,384.06,357.46z M794.51,356.54c0.09-0.4,0.18-0.8,0.27-1.2
			c-1.76-0.42-3.53-0.83-5.29-1.25c-0.1,0.44-0.2,0.89-0.3,1.33C790.96,355.8,792.74,356.17,794.51,356.54z M761.9,362.34
			c0.52-0.01,1.04-0.02,1.56-0.03c0-1.12,0-2.25,0-3.37c-0.57,0.02-1.13,0.04-1.7,0.06C761.81,360.11,761.86,361.22,761.9,362.34z
			 M604.85,370.98c0.34,2.64,1.81,2.39,3.06,2.13c0.3-0.06,0.4-1.1,0.6-1.69C607.37,371.29,606.23,371.15,604.85,370.98z
			 M375.92,359.19c0.47-0.2,0.94-0.4,1.41-0.61c-0.39-1.05-0.78-2.11-1.17-3.16c-0.56,0.31-1.64,0.81-1.6,0.91
			C374.9,357.32,375.44,358.25,375.92,359.19z M422.18,350.77c-2.92-2.38-2.04,1.84-3.91,1.7
			C420.58,353.93,420.58,353.93,422.18,350.77z M647.78,352.32c0.51-0.11,1.02-0.23,1.53-0.34c-0.39-1.24-0.77-2.49-1.16-3.73
			c-0.41,0.25-1.2,0.56-1.17,0.75C647.14,350.12,647.49,351.22,647.78,352.32z M395.85,351.83c0,0.46,0.01,0.92,0.01,1.38
			c1.21,0,2.41,0,3.62,0c-0.03-0.46-0.03-1.31-0.08-1.32C398.21,351.81,397.03,351.83,395.85,351.83z M363.53,358.98
			c1.66,0.56,2.8,0.94,4.26,1.43C366.97,357.2,366.19,356.89,363.53,358.98z M723.11,350.84c-0.03,0.37-0.06,0.73-0.08,1.1
			c1.74,0.2,3.48,0.4,5.22,0.6c0.04-0.42,0.08-0.85,0.12-1.27C726.62,351.12,724.87,350.98,723.11,350.84z M463.87,364.08
			c0.4-0.2,0.79-0.4,1.19-0.61c-0.48-1.06-0.97-2.12-1.45-3.18c-0.47,0.32-1.38,0.85-1.33,0.94
			C462.72,362.23,463.32,363.14,463.87,364.08z"/>
		<path class="st1" d="M569.74,417.85c-1.41-0.08-2.7-0.44-3.83-0.16c-2.82,0.69-3-0.95-2.99-2.97c0.02-2.18,0.05-4.36-0.02-6.54
			c-0.03-0.93-0.29-1.86-1.09-2.75c-0.18,3.19-0.26,6.39-0.59,9.56c-0.09,0.9-0.87,2.42-1.4,2.45c-1.17,0.07-2.89-0.28-3.46-1.1
			c-0.82-1.18-0.93-2.92-1.1-4.44c-0.16-1.43-0.15-2.92,0.07-4.34c0.25-1.61,0.48-4.27,1.31-4.52c1.9-0.57,4.16,0.04,6.27,0.17
			c-0.02,0.22-0.04,0.44-0.07,0.66c1.01-0.73,1.92-1.77,3.04-2.14c2.47-0.82,4.69,1.42,4.61,4.81
			C570.43,410.24,570.02,413.92,569.74,417.85z"/>
		<path class="st1" d="M456.1,387.63c5.1-0.37,9.63-0.69,14.15-1.01c0-0.09,0-0.17,0-0.26c-3.05,0-6.09-0.01-9.14,0
			c-1.41,0-2.85,0.09-2.81-1.98c0.03-1.88,1.34-1.85,2.67-1.85c4.24,0.01,8.47-0.07,12.7,0.06c0.91,0.03,2.26,0.61,2.57,1.31
			c0.39,0.88,0.05,2.17-0.22,3.22c-0.8,3.13-3.19,3.33-5.85,3.06c-1.22-0.12-2.46-0.02-3.69,0.54c1.43,0,2.87-0.14,4.27,0.07
			c0.61,0.09,1.1,0.91,1.65,1.4c-0.56,0.41-1.09,1.15-1.67,1.19c-2.17,0.14-4.4,0.31-6.52-0.04c-1.27-0.21-2.34-1.48-3.59-2.06
			c-1.44-0.67-3.09-1.74-4.48-1.52c-2.66,0.41-3.63-1.04-4.25-2.93c-0.38-1.15-0.42-2.63-0.02-3.75c0.3-0.84,1.54-1.82,2.39-1.86
			c1.35-0.06,2.67,0.65,2.37,2.55C456.41,385.15,456.25,386.54,456.1,387.63z"/>
		<path class="st2" d="M656.78,391.16c-2.4-2.65-0.48-5.89-1.43-8.55c-1.36,0-2.77-0.27-4.02,0.06c-2.53,0.66-2.91-0.76-2.83-2.62
			c0.09-2.16,0.25-4.33,0.62-6.46c0.13-0.77,0.79-1.67,1.46-2.09c1.82-1.12,7.95-0.15,9.74,0.98c2.04,1.29,1.2,2.18-0.01,3.3
			c-0.52,0.48-0.94,1.08-1.41,1.62c0.69,0.29,1.36,0.78,2.07,0.83c2.16,0.14,3.06,1.17,2.76,3.3c-0.01,0.09-0.02,0.19,0,0.27
			c1.16,4.1,0.54,7.05-4.51,7.51C658.41,389.37,657.68,390.44,656.78,391.16z"/>
		<path class="st1" d="M529.32,396.21c1.27,0,2.56-0.23,3.73,0.05c2.11,0.5,4.07,1.16,4.99-1.75c0.08-0.26,1.29-0.52,1.64-0.28
			c0.94,0.65,2.37,1.53,2.43,2.39c0.25,4.11,0.17,8.25,0.05,12.38c-0.02,0.57-0.94,1.53-1.51,1.58c-3.39,0.3-6.79,0.47-10.19,0.45
			c-0.44,0-1.22-1.34-1.23-2.06c-0.03-2.43,0.29-4.86,0.35-7.29C529.59,399.99,529.42,398.3,529.32,396.21z"/>
		<path class="st1" d="M514.88,378.05c0.8-2.13-2.86-4.35,0.49-5.58c1.57-0.58,4.72-0.35,5.35,0.65c3.3,5.19-1.15,5.22-5.31,5.19
			c0.3,0.34,0.6,0.68,0.9,1.02c2.18-0.19,4.37-0.32,6.55-0.58c2.86-0.35,5.02,1.24,5.17,4.03c0.11,1.94,0.12,3.9,0.01,5.84
			c-0.03,0.48-0.68,1.3-1.07,1.32c-2.67,0.1-5.35,0.14-8-0.09c-0.66-0.06-1.66-1.14-1.74-1.85c-0.24-1.96-0.08-3.97-0.53-6.03
			c-0.23,1.37-0.38,2.76-0.73,4.09c-0.13,0.5-0.69,0.99-1.18,1.25c-0.22,0.12-1.08-0.32-1.08-0.51c0-2.74,0.07-5.49,0.22-8.23
			C513.94,378.35,514.67,378.16,514.88,378.05z"/>
		<path class="st1" d="M572.64,393.7c-4.14-0.9-7.95-3.45-12.99-2.02c0-1.64,0-3.56,0-5.47c0-0.64,0.16-1.33-0.03-1.9
			c-1.33-4.05,1.53-5.39,4.34-6.63c3-1.33,5.8-0.36,8.45,1.2c0.34,0.2,0.74,0.69,0.74,1.05c0.03,4.4-0.01,8.8-0.05,13.2
			C573.1,393.27,572.88,393.41,572.64,393.7z"/>
		<path class="st1" d="M550.03,397.05c0.99,0.46,2.01,0.86,2.94,1.42c0.48,0.29,1.16,0.89,1.13,1.3c-0.41,5.55-0.93,11.1-1.44,16.64
			c-0.01,0.11-0.28,0.19-0.75,0.49c-1.21-1.02-2.51-2.11-3.81-3.2c-2.66-0.86-3.69-1.9-3.7-4.84c-0.01-3.71,0-7.42,0-11.15
			c2.03-0.46,3.84-0.86,5.64-1.27C550.03,396.65,550.03,396.85,550.03,397.05z"/>
		<path class="st1" d="M613.6,401.63c-0.37,5.48-1.16,6.14-6.33,6.27c-1.79,0.04-2.32-0.78-2.35-2.14
			c-0.08-3.76-0.01-7.52-0.04-11.29c-0.01-1.5,0.67-2.16,2.15-2.12c0.81,0.03,1.64,0.06,2.44-0.05c3.36-0.45,3.51-0.28,3.61,3.24
			C613.14,397.59,613.42,399.61,613.6,401.63L613.6,401.63z"/>
		<path class="st1" d="M624.45,402.32c-2.87,0.38-2.74-1.79-2.7-4.1c0.08-4.8,0.16-9.6-0.03-14.39c-0.11-2.64,1.42-2.36,3.09-2.39
			c1.78-0.04,3.14-0.05,3.02,2.48c-0.12,2.59,0.4,5.2,0.45,7.8C628.36,395.54,629.23,399.66,624.45,402.32z"/>
		<path class="st1" d="M580.36,376.55c-0.12-1.67,0.74-2.28,2.32-2.19c0.99,0.05,1.99,0.01,3.48,0.01
			c-1.53-0.63-3.05-0.79-3.61-1.61c-0.61-0.89-0.75-2.55-0.33-3.57c0.3-0.71,1.89-1.29,2.86-1.23c2.13,0.12,2.94,2.11,2.8,6.14
			c1.09,0,2.17,0,3.56,0c-3.08-2.98-1.48-6.37-1.55-9.46c0-0.19,2.29-0.73,3.41-0.53c0.66,0.12,1.53,1.33,1.59,2.11
			c0.12,1.68-0.36,3.4-0.3,5.09c0.03,0.96,0.68,1.89,0.98,2.85c0.22,0.74,0.56,1.58,0.37,2.24c-0.1,0.37-1.17,0.68-1.79,0.66
			C589.54,376.94,584.95,376.73,580.36,376.55C580.36,376.54,580.36,376.55,580.36,376.55z"/>
		<path class="st1" d="M567.91,376.31c-1.61-0.13-2.68-0.27-3.75-0.3c-3.11-0.06-4.28-1.47-3.86-4.54c0.28-2.02,0.38-4.07,0.6-6.46
			c0.45-0.11,1.2-0.42,1.95-0.44c1.53-0.04,2.03-0.59,1.86-2.19c-0.07-0.67,0.7-1.78,1.36-2.06c0.46-0.19,1.85,0.57,2,1.12
			C569.37,366.37,569.5,371.31,567.91,376.31z"/>
		<path class="st1" d="M639.21,383.73c0.83,0.14,1.82,0.18,2.69,0.52c0.55,0.22,0.93,0.89,1.38,1.35c-0.49,0.43-1.01,1.26-1.47,1.23
			c-1.85-0.12-4.44,0.95-4.66-2.48c-0.02-0.28-1.35-0.65-2.09-0.68c-4.3-0.21-5.1-0.97-5.11-5.1c-0.02-5.45-0.02-5.44,5.39-4.78
			c0.71,0.09,1.56-0.2,2.14,0.1c0.69,0.35,1.61,1.1,1.66,1.73C639.32,378.21,639.21,380.82,639.21,383.73z"/>
		<path class="st1" d="M711.47,376.13c-2.71,0.98-5.39,2.05-8.12,2.9c-2.45,0.77-3.39-0.23-2.96-2.75c0.23-1.32,0.4-2.68,0.38-4.01
			c-0.07-3.39,1.44-4.78,4.89-4.36c0.09,0.01,0.18,0.04,0.26,0.06C711.76,368.96,711.76,368.96,711.47,376.13z"/>
		<path class="st1" d="M596.79,390.16c0-1.21-0.07-2.75,0.05-4.28c0.03-0.35,0.69-0.91,1.1-0.94c4.39-0.3,8.79-0.51,13.18-0.75
			c1.46-0.08,2.69,0.31,2.44,2.04c-0.24,1.62,1.31,4.33-1.89,4.44c-3.18,0.11-6.38-0.34-9.58-0.49
			C600.56,390.1,599.03,390.16,596.79,390.16z"/>
		<path class="st1" d="M707.75,356.91c0.9,0,1.92-0.26,2.68,0.07c0.89,0.4,2.1,1.23,2.22,2.01c0.31,2.12,0.17,4.32,0.1,6.49
			c-0.05,1.57-0.83,1.81-2.38,1.47c-1.63-0.35-3.43-0.34-5.09-0.05c-1.59,0.27-2.18-0.2-2.32-1.66c-0.15-1.61-0.29-3.21-0.51-4.81
			c-0.39-2.85,0.16-3.5,3.12-3.52C706.31,356.9,707.03,356.91,707.75,356.91z"/>
		<path class="st1" d="M632.7,372.21c-1.85-0.7-3.43-1.48-5.09-1.87c-2.68-0.63-2.94-2.42-2.31-4.53c0.55-1.85,0.2-4.79,3.86-3.69
			c1.11,0.33,2.47-0.29,3.71-0.28c2.82,0.02,3.78,1.32,3.28,4.05c-0.27,1.5,0.06,3.23-0.59,4.5
			C635.07,371.36,633.47,371.76,632.7,372.21z"/>
		<path class="st1" d="M613.6,401.64c0-1.72,0.13-3.45-0.03-5.15c-0.24-2.56,0.3-4.46,2.87-5.7c0.8-0.39,1.03-1.97,2.06-3.09
			c0.36,2.36,0.78,4.71,1.08,7.08c0.24,1.95,0.5,3.93,0.43,5.89c-0.04,1.01-0.53,2.34-1.28,2.94c-2.61,2.06-3.43,1.72-4.59-1.39
			C614.04,401.99,613.78,401.82,613.6,401.64C613.6,401.63,613.6,401.64,613.6,401.64z"/>
		<path class="st1" d="M450.12,384.57c0,3.58-0.02,3.73-3.61,3.38c-2.2-0.21-4.38-0.86-6.51-1.51c-1.98-0.61-2.3-2.44-1.69-3.99
			c0.26-0.66,1.97-0.87,3.06-1.04c1.68-0.27,3.39-0.44,5.09-0.47C450.12,380.86,450.12,380.91,450.12,384.57z"/>
		<path class="st1" d="M642.6,366.23c-3.13-3.31-2.17-16.88,1.64-19.27c0.53,3.44,0.96,6.68,1.53,9.9
			C646.42,360.51,644.87,363.36,642.6,366.23z"/>
		<path class="st1" d="M582.7,386.16c-0.2,4.22-0.37,7.76-0.55,11.41c-2.16-0.2-3.63-0.29-5.08-0.51c-0.35-0.05-0.89-0.51-0.92-0.82
			c-0.27-2.68-0.54-5.38-0.54-8.07c0-0.45,1.24-1.12,2-1.3C579.07,386.52,580.58,386.44,582.7,386.16z"/>
		<path class="st1" d="M646.34,384.11c-1.63-0.68-2.4-1.24-3.21-1.29c-2.39-0.14-3.11-0.92-2.78-3.32c0.2-1.43,0.32-2.86,0.5-4.29
			c0.12-0.96,0.2-2.73,0.42-2.75c1.46-0.13,3.1-0.23,4.41,0.31c2.36,0.97,1.8,3.33,1.66,5.24
			C647.2,380.01,646.71,381.97,646.34,384.11z"/>
		<path class="st1" d="M660.4,367.42c-4.99,1-5.6,0.54-5.94-4.11c-0.14-1.88-0.56-3.77-0.43-5.62c0.06-0.79,1.27-2.15,1.85-2.1
			c1.35,0.12,3.66,0.76,3.79,1.5C660.26,360.49,660.22,364,660.4,367.42z"/>
		<path class="st1" d="M587.42,405.73c-0.22,0.37-0.48,1.39-1.13,1.83c-2.03,1.37-4.19,2.57-6.36,3.73c-0.37,0.2-1.4-0.01-1.45-0.2
			c-0.46-1.96-1.14-3.97-1.04-5.93c0.08-1.57,1.68-2.01,3.32-1.94c1.03,0.04,2.1-0.39,3.13-0.66
			C586.02,402.01,587.49,403.1,587.42,405.73z"/>
		<path class="st1" d="M301.39,363.46c-4.98,0-6.95-2.49-5.87-6.52c0.18-0.65,1.23-1.49,1.91-1.51c1.96-0.07,3.93,0.17,5.88,0.44
			c0.61,0.08,1.68,0.74,1.64,0.98c-0.3,1.88-0.58,3.83-1.39,5.52C303.2,363.13,301.66,363.33,301.39,363.46z"/>
		<path class="st1" d="M437.58,375.02c0,0.99-0.11,2,0.03,2.98c0.29,2.11-0.98,2.72-2.65,2.87c-1.95,0.17-3.23-0.96-3.29-2.78
			c-0.08-2.4,0.02-4.92,0.68-7.19c0.27-0.91,2.2-1.59,3.47-1.82c0.43-0.08,1.43,1.49,1.69,2.44
			C437.81,372.61,437.58,373.84,437.58,375.02z"/>
		<path class="st1" d="M404.89,373.71c0.11-0.93,0.33-1.73,0.27-2.52c-0.27-3.48,1.12-4.73,4.51-3.85c0.46,0.12,1.09,0.73,1.13,1.17
			c0.28,2.66,0.46,5.32,0.54,7.99c0.02,0.49-0.47,1.31-0.9,1.45C407.47,378.89,404.85,376.78,404.89,373.71z"/>
		<path class="st1" d="M448.44,372.18c0,1.76,0.2,3.49-0.09,5.12c-0.13,0.74-1.23,1.82-1.91,1.84c-1.95,0.04-4.03-0.04-5.82-0.71
			c-2.21-0.82-1.45-3.11-1.24-4.78c0.07-0.58,1.49-1.32,2.36-1.41C443.78,372.04,445.85,372.18,448.44,372.18z"/>
		<path class="st1" d="M684.62,381.97c-1.3,0.37-2.49,0.71-3.68,1.05c-2.03,0.59-3.39-0.4-3.58-2.61c-0.02-0.27-0.02-0.54-0.04-0.81
			c-0.07-1.27-2.05-2.99,0.1-3.67c2.3-0.74,4.89-0.62,7.36-0.67c0.3-0.01,0.94,1.33,0.87,1.98
			C685.44,378.93,684.93,380.6,684.62,381.97z"/>
		<path class="st1" d="M470.28,373.28c1.34-2.46,3.78-2.5,5.84-1.93c0.88,0.24,1.26,2.45,1.76,3.8c0.18,0.48,0.04,1.08,0.03,1.62
			c-0.02,1.35,1.32,3.18-1.32,3.59c-3.11,0.49-4.33-0.24-5.08-3.03C471.15,375.96,470.69,374.62,470.28,373.28L470.28,373.28z"/>
		<path class="st1" d="M639.31,356.41c-0.62,1.66,1.24,4.54-2.44,4.56c-3.53,0.03-4.69-1.22-4.74-5.08
			c-0.03-2.71,1.72-4.53,5.19-4.29C640.41,351.82,638.69,354.74,639.31,356.41z"/>
		<path class="st1" d="M600.06,381.66c-1.96-0.24-3.92-0.62-5.88-0.67c-1.35-0.03-2.71,0.44-4.08,0.62
			c-0.68,0.09-1.72,0.33-2.01-0.01c-0.59-0.7-1.02-1.73-1.02-2.62c0-0.42,1.17-1.23,1.78-1.2c5.12,0.23,10.23,0.58,15.34,1.01
			c0.6,0.05,1.13,0.86,1.7,1.32c-0.58,0.44-1.11,1.18-1.74,1.27c-1.33,0.2-2.71,0.06-4.06,0.06
			C600.07,381.52,600.07,381.59,600.06,381.66z"/>
		<path class="st1" d="M583.63,362.36c-1.68-0.25-3.35-0.5-5.12-0.77c-0.27,0.87-0.57,1.83-0.88,2.86
			c-2.54-1.29-3.02-4.84-0.94-7.69c0.5,1.33,0.91,2.42,1.35,3.62c0.56-0.17,1.23-0.36,2.15-0.63c-0.72-0.6-1.24-1.03-2.11-1.76
			c1.22-0.32,2.04-0.54,2.82-0.74c-0.38-0.61-0.76-1.24-1.5-2.45c1.51,0.09,2.49-0.02,3.28,0.31c0.26,0.11,0.04,1.37,0.04,2.36
			c1.04-0.07,2.28-0.28,3.5-0.18c0.59,0.05,1.14,0.66,1.71,1.02c-0.52,0.44-0.99,1.16-1.58,1.26c-1.12,0.2-2.3,0.06-3.71,0.06
			C583.05,360.77,583.34,361.57,583.63,362.36L583.63,362.36z"/>
		<path class="st1" d="M508.65,401.47c-0.66-1.96-1.32-3.91-1.98-5.87c-0.11,0-0.23,0-0.34,0c0,1.76,0,3.53,0,5.29
			c-0.28,0.08-0.56,0.16-0.84,0.23c-0.47-0.75-1.03-1.46-1.38-2.27c-0.2-0.46-0.02-1.07-0.05-1.62c-0.36-5.87-0.36-5.87,5.96-5.19
			c0,3.03,0,6.11,0,9.19C509.56,401.32,509.11,401.39,508.65,401.47z"/>
		<path class="st1" d="M556.94,368.91c-0.37-0.97-0.92-1.92-1.07-2.93c-0.29-1.94-0.49-3.92-0.44-5.87c0.02-0.82,0.79-2.33,1.2-2.32
			c1.87,0.03,3.9,0.14,5.53,0.92c0.99,0.48-0.72,3.71-2.23,4.88c-0.72,0.56-1,1.76-1.35,2.71c-0.28,0.78-0.35,1.63-0.52,2.45
			C557.7,368.81,557.32,368.86,556.94,368.91z"/>
		<path class="st1" d="M631.65,351.25c-0.23,2.74-0.3,5.51-0.81,8.19c-0.11,0.58-1.81,1.17-2.78,1.17c-0.64,0-1.71-0.99-1.83-1.67
			c-0.27-1.58-0.21-3.25-0.04-4.86C626.43,351.72,627.89,350.96,631.65,351.25z"/>
		<path class="st1" d="M511.78,364.47c-0.45,2.59-1.42,4.52-4.76,3.95c-2.24-0.38-2.5-1.89-2.62-3.51c-0.14-1.9,1.2-1.98,2.71-2.06
			c1.47-0.07,3.52,1.05,4.15-1.49c1.33,0.41,2.66,0.81,3.99,1.22c-0.31,0.63-0.46,1.56-0.96,1.81
			C513.67,364.71,512.75,364.47,511.78,364.47z"/>
		<path class="st1" d="M813.97,351.78c-0.36,1.01-0.11,3.39-2.78,3.43c-2.47,0.03-5.27-3.5-4.47-6.01c0.26-0.83,2.43-1.44,3.74-1.46
			C812.46,347.69,814.62,348.09,813.97,351.78z"/>
		<path class="st1" d="M821.07,347.75c2.55-0.35,3.61,0.32,3.43,2.42c-0.16,1.91-0.53,3.83-2.84,3.93c-3.72,0.15-5.6-1.22-5.22-4.01
			C816.86,347.06,819.92,348.45,821.07,347.75z"/>
		<path class="st1" d="M428.97,379.61c-5.86-1.53-3.21-6.58-5.42-9.87c1.7-0.19,2.86-0.53,3.94-0.36c0.75,0.12,1.97,0.93,1.98,1.43
			C429.47,373.66,429.18,376.51,428.97,379.61z"/>
		<path class="st1" d="M456.11,374.02c-0.01,3.75-0.59,4.55-3.17,4.14c-2.4-0.38-2.8-2.21-2.82-4.23c-0.02-1.81,0.05-3.3,2.6-3.46
			C456.13,370.25,456.12,370.05,456.11,374.02z"/>
		<path class="st1" d="M487.06,358.55c2.15-0.41,3.11,0.66,2.85,3.02c-0.05,0.44-0.05,0.93,0.09,1.34c0.54,1.55,0.64,2.89-1.41,3.25
			c-2.57,0.46-3.83-0.33-4.14-2.51c-0.09-0.62-0.15-1.24-0.28-1.85C483.53,358.83,483.76,358.53,487.06,358.55z"/>
		<path class="st1" d="M690.13,365.55c-0.28,1.18-0.24,2.45-0.85,3.11c-0.53,0.58-1.89,0.78-2.71,0.55c-0.51-0.14-0.88-1.38-1-2.17
			c-0.27-1.76-0.54-3.56-0.43-5.32c0.06-0.89,0.76-2.2,1.49-2.49c1.19-0.46,2.39-0.2,2.42,1.78
			C689.07,362.54,689.75,364.07,690.13,365.55z"/>
		<path class="st1" d="M719.49,370.93c-0.48,1.75-2.8,4.02-4.29,3.9c-2.87-0.23-2.38-2.78-2.86-4.53c-0.32-1.18,3.11-3.52,4.76-2.85
			C718.19,367.9,718.71,369.73,719.49,370.93z"/>
		<path class="st1" d="M376.75,360.83c0.98,1.36,1.81,2,1.91,2.74c0.32,2.58,0.49,5.19,0.46,7.79c-0.01,0.63-0.98,1.25-1.5,1.87
			c-0.7-0.6-1.9-1.11-2.01-1.8c-0.42-2.56-0.59-5.18-0.61-7.78C374.99,362.94,375.84,362.23,376.75,360.83z"/>
		<path class="st1" d="M578.18,370.84c0.39,4.07-1.08,4.42-3.34,4.2c-0.68-0.07-1.5-1.4-1.77-2.3c-0.26-0.87,0.03-1.95,0.24-2.9
			c0.28-1.28-0.1-3.16,2.11-3.07c2.04,0.08,3.16,1.05,2.77,3.26C578.14,370.29,578.18,370.57,578.18,370.84z"/>
		<path class="st1" d="M530.16,384.67c4.67-1.47,7.14,0.91,6.24,6.01C530.39,391,530.39,391,530.16,384.67z"/>
		<path class="st1" d="M502.05,385.71c0.28-1.27,0.19-2.76,0.89-3.47c0.61-0.62,2.46-0.85,3.13-0.37c0.86,0.62,1.1,2.12,1.78,3.66
			c-1.68,0.18-2.63,0.28-3.8,0.41c-0.04,0.68-0.09,1.43-0.15,2.41c-1.38,0-2.77,0.27-3.97-0.1c-0.71-0.22-1.7-1.61-1.53-2.17
			c0.35-1.21,1.45-1.81,2.76-0.74C501.48,385.59,501.94,385.67,502.05,385.71z"/>
		<path class="st1" d="M594.18,399.8c2.23,0,4.4,0,6.69,0c-0.12,1.32-0.24,2.64-0.36,3.97c-0.2,2.38-2.42,1.98-3.78,2.75
			c-0.54-0.99-1.19-1.93-1.6-2.97C594.73,402.54,594.58,401.44,594.18,399.8z"/>
		<path class="st1" d="M451.59,359.09c1.25,0.47,3.83-1.17,3.93,1.93c0.1,3.03-2.28,2.34-4.09,2.45c-0.44,0.03-0.88,0.15-1.32,0.26
			c-1.56,0.38-3,0.41-3.23-1.64c-0.21-1.83,0.61-2.96,2.58-3C450.1,359.09,450.73,359.09,451.59,359.09z"/>
		<path class="st1" d="M601.13,366.41c-0.26,2.22-0.31,3.86-0.71,5.41c-0.18,0.7-1.28,1.82-1.62,1.71c-0.96-0.31-2.26-1.02-2.5-1.84
			c-0.41-1.42-0.57-3.27,0.04-4.51c0.5-1.01,2.22-1.54,3.5-1.98C600.16,365.1,600.87,366.16,601.13,366.41z"/>
		<path class="st1" d="M624.52,354.02c-5.25-0.99-6.88-2.37-6.83-5.83c1.87,0,3.74-0.04,5.62,0.01c1.89,0.06,1.78,1.5,1.71,2.77
			C624.97,351.94,624.72,352.89,624.52,354.02z"/>
		<path class="st1" d="M496.91,383.23c-0.47,2.4-0.29,4.81-1.2,5.33c-1.25,0.72-3.52,0.42-4.95-0.28c-0.71-0.35-0.9-3.66-0.69-3.72
			C491.97,383.93,494,383.71,496.91,383.23z"/>
		<path class="st1" d="M388.2,373.88c-2.77-0.98-2.95-2.58-2.98-4.4c-0.04-2.15-0.42-4.3-0.4-6.45c0-0.53,0.96-1.05,1.47-1.57
			c0.38,0.43,1.04,0.83,1.09,1.29C387.71,366.3,387.92,369.86,388.2,373.88z"/>
		<path class="st1" d="M574.68,360.87c-0.41,1.75,0.16,3.88-2.38,4.09c-1.68,0.13-2.7-2.05-2.34-4.51c0.52-3.54,1.56-4.35,3.57-2.61
			C574.25,358.46,574.32,359.83,574.68,360.87z"/>
		<path class="st1" d="M414.4,369.54c1.4-0.1,2.65-0.18,3.9-0.27c0.08,1.18,0.18,2.35,0.22,3.53c0.03,0.99,0.13,2-0.05,2.96
			c-0.14,0.78-0.64,1.49-0.98,2.23c-0.74-0.64-1.93-1.16-2.14-1.94C414.81,374.1,414.73,372.03,414.4,369.54z"/>
		<path class="st1" d="M458.59,368.25c-5.14,1.98-9.52,1.68-11.15-0.75c2.86-2.3,6.2-1.08,9.29-1.19
			C457.28,366.29,457.88,367.48,458.59,368.25z"/>
		<path class="st1" d="M359.5,370.26c-2.49-0.34-4.21-0.36-5.77-0.88c-0.72-0.24-1.5-1.42-1.54-2.21c-0.03-0.59,1.02-1.66,1.71-1.78
			c1.47-0.25,3.32-0.52,4.43,0.17C359.15,366.07,359.02,368.09,359.5,370.26z"/>
		<path class="st1" d="M596.86,414.51c-0.85-1.07-2.64-2.32-2.55-3.42c0.22-2.85,3.14-1.68,4.84-2.17c1.45-0.42,1.95,1.02,1.95,2.51
			C601.11,414.06,599.01,413.68,596.86,414.51z"/>
		<path class="st1" d="M329.76,362.14c-1.52-1.17-3.03-2.17-4.32-3.41c-0.47-0.45-0.66-1.5-0.52-2.18c0.1-0.5,0.89-1.09,1.47-1.21
			c0.95-0.2,2.01-0.22,2.94,0.02c0.68,0.18,1.76,0.99,1.7,1.38C330.79,358.6,330.21,360.4,329.76,362.14z"/>
		<path class="st1" d="M616.87,374.91c-0.73-1.09-1.46-2.19-2.19-3.28l0.01,0.01c-0.52-0.81-1.03-1.63-1.9-2.99
			c1.68-0.44,3.33-1.37,4.63-1.02c0.8,0.22,1.66,2.51,1.43,3.65C618.61,372.48,619.55,374.89,616.87,374.91L616.87,374.91z"/>
		<path class="st1" d="M547.42,363.23c0.28,1.48,0.78,2.81,0.68,4.1c-0.07,0.91-0.94,1.76-1.45,2.64c-0.93-0.74-1.97-1.38-2.74-2.26
			c-0.31-0.36-0.06-1.21-0.06-1.84C543.85,362.68,543.91,362.64,547.42,363.23z"/>
		<path class="st1" d="M465.44,373.21c-2.05-0.19-3.22-0.59-3.38-2.48c-0.06-0.74-0.75-1.42-0.86-2.18
			c-0.12-0.78-0.19-1.95,0.25-2.34c0.64-0.57,1.8-0.85,2.66-0.73c0.39,0.05,0.78,1.34,0.88,2.1
			C465.23,369.37,465.29,371.2,465.44,373.21z"/>
		<path class="st1" d="M743.04,367.39c-0.62-0.61-1.66-1.15-1.78-1.85c-0.41-2.28-0.56-4.62-0.62-6.94
			c-0.01-0.52,0.72-1.06,1.11-1.58c0.44,0.37,1.2,0.7,1.27,1.13c0.43,2.94,0.71,5.89,1.04,8.84
			C743.72,367.12,743.38,367.26,743.04,367.39z"/>
		<path class="st1" d="M720.36,362.61c0.69-1.14,1.4-3.27,2.07-3.26c2.42,0.04,2.27,1.96,1.82,3.78c-0.08,0.33-0.01,0.75,0.13,1.07
			c0.58,1.38,0.62,2.73-1.17,2.83c-1.57,0.09-2.41-1.04-2.26-2.72c0.04-0.45,0.01-0.91,0.01-1.36
			C720.76,362.84,720.56,362.72,720.36,362.61z"/>
		<path class="st1" d="M542.56,380.97c-0.29,2.42-0.15,4.07-0.81,5.28c-0.25,0.45-2.74,0.29-3.56-0.38
			c-0.85-0.69-0.93-2.35-1.35-3.58C538.44,381.91,540.05,381.54,542.56,380.97z"/>
		<path class="st1" d="M434.24,386.76c-1.54-0.57-3.23-0.92-4.54-1.82c-0.56-0.39-0.32-1.94-0.44-2.96
			c1.47-0.03,3.19-0.53,4.32,0.07c0.94,0.5,1.17,2.31,1.72,3.54C434.95,385.99,434.59,386.38,434.24,386.76z"/>
		<path class="st1" d="M770.66,362.03c0.26-2.41,1.48-3.11,2.95-2.85c1.22,0.21,2.31,1.13,3.46,1.74c-1.12,1.18-2.07,2.67-3.43,3.38
			C773.16,364.53,771.68,362.84,770.66,362.03z"/>
		<path class="st1" d="M670.02,359.16c0.28,3.24,0.59,6.17,0.75,9.11c0.03,0.54-0.46,1.31-0.94,1.58c-0.29,0.16-1.47-0.48-1.46-0.72
			c0.14-3.17,0.41-6.33,0.69-9.49C669.07,359.52,669.49,359.42,670.02,359.16z"/>
		<path class="st2" d="M475.83,364.18c0.67-0.91,1.16-2.13,2.05-2.63c0.9-0.51,3.94,2.87,3.56,4.12c-0.21,0.7-1.41,1.42-2.25,1.53
			C477.35,367.45,475.98,366.77,475.83,364.18z"/>
		<path class="st1" d="M608.54,369.54c-1.64-1.18-2.57-1.74-3.37-2.45c-0.87-0.78-1.62-1.7-2.43-2.57c0.54-0.51,1.23-1.53,1.6-1.43
			c1.45,0.42,3.27,0.85,4.05,1.93C609.07,365.97,608.54,367.79,608.54,369.54z"/>
		<path class="st1" d="M470.28,373.27c0.03,0.9,0.12,1.81,0.06,2.7c-0.06,1.04-0.26,2.07-0.4,3.11c-1.34-0.83-2.72-1.6-3.98-2.54
			c-0.33-0.24-0.26-1.01-0.54-2.27C467.04,373.94,468.66,373.61,470.28,373.27C470.28,373.28,470.28,373.27,470.28,373.27z"/>
		<path class="st1" d="M583.62,362.37c1.2-0.52,2.4-1.04,3.66-1.58c1.21,2.01,1.86,3.77,0.07,5.36c-0.59,0.53-1.74,0.99-2.38,0.76
			c-0.62-0.22-1.07-1.32-1.3-2.11C583.46,364.04,583.63,363.18,583.62,362.37C583.63,362.36,583.62,362.37,583.62,362.37z"/>
		<path class="st1" d="M317.78,361.63c1.77-1.03,2.42-4.55,5.42-2.45c0.58,0.41,0.59,2.64,0.03,3.46
			C322.17,364.2,319.17,363.56,317.78,361.63z"/>
		<path class="st1" d="M471.08,359.61c1.17,0.67,3.32,1.31,3.33,2c0.05,2.38-2.14,1.7-3.63,1.84c-0.53,0.05-1.21,0.21-1.59-0.04
			c-0.79-0.51-1.43-1.25-2.13-1.9c0.7-0.44,1.36-0.98,2.11-1.29c0.46-0.19,1.06-0.04,1.6-0.04
			C470.87,359.99,470.98,359.8,471.08,359.61z"/>
		<path class="st1" d="M737.55,366.17c-1.17-0.52-1.82-0.81-2.48-1.1c-1.52-0.69-2.29-1.57-0.72-3c1.04-0.95,2.1-1.88,3.15-2.82
			c0.12,1.4,0.29,2.8,0.34,4.21C737.87,364.22,737.68,365,737.55,366.17z"/>
		<path class="st1" d="M510.37,347.09c0.13,1.02,0.27,2.05,0.42,3.2c0.56-0.11,1.31-0.25,2.51-0.48c-0.12,1.39-0.21,2.52-0.31,3.73
			c-1.8-0.6-3.21-0.97-4.51-1.57c-0.65-0.3-1.1-1.02-1.64-1.55c0.49-0.38,1.06-0.69,1.44-1.16c0.47-0.57,0.8-1.27,1.19-1.91
			C509.77,347.26,510.07,347.17,510.37,347.09z"/>
		<path class="st1" d="M470.2,370.55c-1.22-0.62-2.44-1.25-3.66-1.87c1.43-0.65,2.83-1.36,4.29-1.92c0.46-0.18,1.26-0.19,1.57,0.1
			c0.66,0.61,1.1,1.46,1.63,2.21c-0.65,0.31-1.27,0.71-1.95,0.9c-0.5,0.14-1.08,0.03-1.62,0.03
			C470.37,370.18,470.28,370.36,470.2,370.55z"/>
		<path class="st1" d="M394.16,362.09c2.06-2.07,4.45-1.14,6.75-0.66c0.3,0.06,0.67,0.84,0.64,1.26c-0.04,0.55-0.31,1.28-0.73,1.57
			C399.67,365.04,394.9,363.44,394.16,362.09z"/>
		<path class="st1" d="M558.04,399.15c1.32-1.2,2.1-2.35,2.53-2.23c1.51,0.41,2.91,1.27,4.35,1.95c-1.12,0.86-2.14,2.12-3.39,2.43
			C560.77,401.48,559.65,400.19,558.04,399.15z"/>
		<path class="st2" d="M600.5,349.44c1.51-1.11,6.14-1.43,7.15-0.46c0.36,0.35,0.47,1.15,0.39,1.7c-0.06,0.41-0.74,1.13-0.93,1.07
			C604.95,351.03,602.09,352.35,600.5,349.44z"/>
		<path class="st1" d="M731.04,367.1c-1.12-1.66-2.38-3.25-3.28-5.02c-0.28-0.56,0.41-1.61,0.65-2.43c0.78,0.36,2.03,0.53,2.25,1.1
			c0.74,1.89,1.1,3.92,1.61,5.9C731.86,366.79,731.45,366.95,731.04,367.1z"/>
		<path class="st1" d="M340.04,361.28c0.01-0.27-0.03-0.55,0.04-0.81c0.42-1.56,0.79-3.68,2.78-3.17c0.8,0.2,1.19,2.65,1.44,4.13
			c0.09,0.56-0.63,1.66-1.17,1.81c-0.52,0.14-1.3-0.62-1.94-1.03C340.77,361.94,340.42,361.58,340.04,361.28
			C340.04,361.27,340.04,361.28,340.04,361.28z"/>
		<path class="st1" d="M530.96,371.97c-0.21-1.04-0.5-2.06-0.62-3.11c-0.09-0.77-0.05-1.58,0.1-2.34c0.13-0.67,0.48-1.29,0.74-1.93
			c0.73,0.5,2.1,1.02,2.09,1.5c-0.04,1.96-0.5,3.9-0.81,5.85C531.96,371.95,531.46,371.96,530.96,371.97z"/>
		<path class="st1" d="M616.86,374.91c0.84,0.91,3.59,0.54,2.42,2.56c-0.49,0.84-2.96,0.71-4.52,0.64c-0.51-0.02-0.97-1.24-1.46-1.9
			C614.49,375.77,615.68,375.34,616.86,374.91C616.87,374.91,616.86,374.91,616.86,374.91z"/>
		<path class="st1" d="M365.63,370.25c0,0.63,0.23,1.41-0.06,1.86c-0.32,0.49-1.21,1.05-1.69,0.93c-1.25-0.32-1.92-5.39-0.77-5.96
			c0.57-0.28,1.91,0.05,2.27,0.56c0.45,0.62,0.26,1.72,0.35,2.61C365.7,370.24,365.66,370.24,365.63,370.25z"/>
		<path class="st1" d="M503.19,351.14c1.77,1.31,4.61,0.02,4.48,2.97c-0.03,0.73-1.86,2.1-2.64,1.96
			C502.65,355.63,502.89,353.63,503.19,351.14z"/>
		<path class="st1" d="M346.49,363.21c1.13,1.49,2.14,2.41,2.51,3.54c0.13,0.4-1.26,1.83-2.03,1.89c-1.75,0.14-2.53-1.32-2.45-2.85
			C344.56,365.07,345.54,364.41,346.49,363.21z"/>
		<path class="st1" d="M580.36,376.54c-0.3,2.27-1.56,2.56-3.48,1.81c-1.46-0.57-2.99-0.96-4.44-1.83
			C575.11,376.82,577.71,374.12,580.36,376.54C580.36,376.55,580.36,376.54,580.36,376.54z"/>
		<path class="st1" d="M545.49,381.11c-1.47-1.03-2.6-1.82-3.73-2.62c0.87-0.47,1.82-1.41,2.59-1.29c1.24,0.2,2.37,1.11,3.55,1.72
			C547.22,379.54,546.54,380.15,545.49,381.11z"/>
		<path class="st1" d="M609.94,377.04c-2.07-0.23-3.51-0.33-4.91-0.6c-0.4-0.08-0.69-0.67-1.03-1.03c0.37-0.33,0.72-0.92,1.11-0.96
			c1.43-0.13,2.91-0.22,4.32-0.02c0.68,0.1,1.27,0.89,1.89,1.37C610.74,376.33,610.15,376.86,609.94,377.04z"/>
		<path class="st1" d="M537.49,369.13c1.26-1.29,2.04-2.08,2.81-2.88c0.6,1.26,1.36,2.48,1.71,3.8c0.09,0.36-1.29,1.59-1.54,1.47
			C539.54,371.08,538.79,370.23,537.49,369.13z"/>
		<path class="st1" d="M496.11,362.13c1.1,1.02,1.78,1.65,2.46,2.29c-1.06,0.59-2.08,1.5-3.2,1.65c-0.82,0.11-1.77-0.79-2.67-1.24
			C493.72,364.02,494.74,363.21,496.11,362.13z"/>
		<path class="st1" d="M527.9,361.08c-2.38-1.08-3.21-4.37-2.31-5.61c0.23-0.32,0.77-0.67,1.09-0.61c0.45,0.09,1.14,0.54,1.17,0.87
			C527.96,357.5,527.9,359.29,527.9,361.08z"/>
		<path class="st1" d="M521.93,361.54c-2.93-2.04-1.89-4.25-1.87-6.18c0-0.2,0.89-0.59,1.32-0.54c0.41,0.05,1.11,0.57,1.1,0.85
			C522.41,357.46,522.17,359.23,521.93,361.54z"/>
		<path class="st2" d="M587.42,396.7c-2.4-1.35-2.42-1.41-1.75-5.03c1.22,0.28,2.43,0.56,3.65,0.84
			C588.69,393.9,588.06,395.29,587.42,396.7z"/>
		<path class="st1" d="M504.19,347.34c0.52,0.31,1.42,0.57,1.77,1.16c0.25,0.42-0.03,1.6-0.44,1.87c-0.52,0.33-1.43,0.16-2.15,0.06
			c-0.59-0.08-1.16-0.36-1.73-0.58c-0.62-0.24-1.23-0.5-1.84-0.75c0.64-0.31,1.26-0.65,1.91-0.91
			C502.44,347.89,503.2,347.67,504.19,347.34z"/>
		<path class="st1" d="M746.87,361.44c1.78-2.14,3.41-2.44,4.66-1.13c0.53,0.56-0.08,2.21-0.17,3.36
			C749.94,362.97,748.51,362.26,746.87,361.44z"/>
		<path class="st1" d="M688.63,353.03c-1.29-0.54-2.36-0.99-3.43-1.44c1.12-0.41,2.24-1.11,3.38-1.14c1.13-0.02,2.27,0.65,3.41,1.01
			C690.91,351.96,689.83,352.47,688.63,353.03z"/>
		<path class="st1" d="M724.05,369.26c2.01-0.34,3.66-0.67,5.32-0.84c0.4-0.04,1.18,0.41,1.21,0.69c0.05,0.54-0.15,1.3-0.54,1.64
			C728.95,371.72,725.48,370.96,724.05,369.26z"/>
		<path class="st2" d="M632.29,388.03c-1.35-1.18-2.29-2-3.24-2.82c1.27-0.34,2.54-0.85,3.83-0.92c0.43-0.02,1.4,1.19,1.29,1.64
			C634,386.63,633.13,387.16,632.29,388.03z"/>
		<path class="st1" d="M341.6,368.99c-1.44-0.76-2.87-1.53-4.31-2.29c0-0.34,0-0.67,0-1.01c1.13-0.32,2.63-1.25,3.31-0.83
			c1,0.61,1.41,2.18,2.07,3.35C342.31,368.47,341.95,368.73,341.6,368.99z"/>
		<path class="st1" d="M516.89,360.66c-0.26-1.56-0.61-3.11-0.71-4.69c-0.02-0.36,0.75-0.97,1.25-1.1c0.31-0.08,1.12,0.52,1.15,0.86
			c0.12,1.59,0.06,3.19,0.06,4.79C518.06,360.57,517.48,360.62,516.89,360.66z"/>
		<path class="st1" d="M459.4,374.36c-1.06-0.76-1.86-1.33-2.66-1.89c0.88-0.79,1.75-1.58,2.63-2.37c0.68,0.83,1.46,1.6,1.93,2.53
			C461.39,372.81,460.24,373.61,459.4,374.36z"/>
		<path class="st1" d="M530.49,361.46c-0.86-1.62-1.7-2.55-1.75-3.52c-0.03-0.62,1.1-1.3,1.7-1.96c0.65,0.87,1.6,1.67,1.82,2.64
			C532.4,359.22,531.4,360.07,530.49,361.46z"/>
		<path class="st1" d="M366.29,364.34c1.38,0.4,2.79,0.74,4.1,1.31c0.11,0.05-0.45,1.66-0.71,2.54c-1.35-0.75-2.7-1.51-4.05-2.26
			C365.85,365.41,366.07,364.88,366.29,364.34z"/>
		<path class="st1" d="M639.6,345.18c0.29,1.57,0.58,3.15,0.89,4.78c-2.46,0.7-3.09-0.8-3.23-2.16c-0.09-0.89,0.73-1.88,1.14-2.83
			C638.79,345.04,639.19,345.11,639.6,345.18z"/>
		<path class="st1" d="M501.62,401.01c-0.26-1.69-0.6-3.37-0.7-5.07c-0.02-0.27,1.24-1.01,1.55-0.84
			C503.38,395.58,503.33,399.85,501.62,401.01z"/>
		<path class="st2" d="M340.04,361.27c-0.08,0.67-0.16,1.35-0.33,2.74c-1.38-1.03-2.64-1.55-3.14-2.49
			c-0.28-0.51,0.49-2.18,1.18-2.5C340.05,357.93,338.96,360.79,340.04,361.27C340.04,361.28,340.04,361.27,340.04,361.27z"/>
		<path class="st1" d="M581.24,378.54c0.77,1.05,1.65,1.74,1.62,2.37c-0.03,0.56-1.34,1.63-1.65,1.49c-0.93-0.41-1.64-1.3-2.44-2.01
			C579.44,379.89,580.11,379.39,581.24,378.54z"/>
		<path class="st2" d="M430.03,349.71c1.87,0.16,2.71,0.23,4.11,0.34c-1.57,1.52-1.42,4.56-3.67,3.8
			C427.87,352.98,432.14,351.55,430.03,349.71z"/>
		<path class="st1" d="M754.77,359.32c1.55,0.75,3.1,1.49,4.79,2.3c-2.73,2.14-3.37,1.94-5.16-1.39
			C754.52,359.93,754.64,359.63,754.77,359.32z"/>
		<path class="st2" d="M394.33,360.17c-1.19,0.86-1.81,1.64-2.25,1.56c-0.84-0.16-1.58-0.83-2.36-1.28
			c0.61-0.63,1.14-1.63,1.85-1.77C392.18,358.55,392.98,359.39,394.33,360.17z"/>
		<path class="st1" d="M440.7,350.97c-2.24,1.06-3.12,3.77-6.26,2.06C436.31,351.84,437.27,349.48,440.7,350.97z"/>
		<path class="st1" d="M760.09,353.65c-0.49,1.66-0.85,2.88-1.22,4.1c-0.63-0.36-1.66-0.6-1.82-1.11
			C756.57,355.03,757.09,353.81,760.09,353.65z"/>
		<path class="st1" d="M513.26,370.62c-0.49-1.05-0.98-2.11-1.47-3.16c0.88-0.2,1.75-0.39,2.63-0.59c0.09,1.11,0.18,2.23,0.27,3.34
			C514.22,370.35,513.74,370.48,513.26,370.62z"/>
		<path class="st3" d="M614.69,371.63c-0.24,0.88-0.5,2.51-0.71,2.5c-1.21-0.04-2.41-0.47-3.61-0.76c0.02-0.42,0.03-0.83,0.05-1.25
			C611.84,371.96,613.27,371.8,614.69,371.63C614.69,371.64,614.69,371.63,614.69,371.63z"/>
		<path class="st1" d="M767.5,352.96c1.01,0.62,2.02,1.23,3.09,1.88c-0.77,0.87-1.31,1.47-2.35,2.64c-0.7-1.55-1.22-2.72-1.74-3.88
			C766.83,353.39,767.17,353.17,767.5,352.96z"/>
		<path class="st3" d="M371.9,359.3c-0.77-0.83-1.55-1.66-2.32-2.49c0.8-0.43,1.6-0.86,2.4-1.29c0.36,1.03,0.72,2.06,1.08,3.09
			C372.67,358.84,372.28,359.07,371.9,359.3z"/>
		<path class="st1" d="M724.03,354.14c1.85,0.27,3.7,0.54,5.92,0.86c-2,1.86-3.66,1.72-6.04-0.08
			C723.95,354.66,723.99,354.4,724.03,354.14z"/>
		<path class="st1" d="M570.41,354.86c-0.78,1.48-1.94,1.99-3.46,0.97c-0.34-0.23-0.31-1.01-0.45-1.54
			c1.26-0.19,2.51-0.39,3.77-0.58C570.31,354.09,570.36,354.48,570.41,354.86z"/>
		<path class="st1" d="M403.15,353.94c1.98,0,3.56,0,5.32,0C406.9,356.42,405.27,356.44,403.15,353.94z"/>
		<path class="st1" d="M506.86,386.58c0.7-0.1,1.15-0.27,1.56-0.2c1.06,0.18,2.11,0.47,3.16,0.71c-0.19,0.44-0.42,1.28-0.55,1.27
			c-1.25-0.16-2.49-0.45-3.72-0.76C507.16,387.56,507.11,387.16,506.86,386.58z"/>
		<path class="st3" d="M659.3,349.05c1.26,0.33,2.53,0.65,3.79,0.98c-0.27,0.6-0.69,1.75-0.78,1.73c-1.2-0.33-2.35-0.83-3.52-1.29
			C658.97,349.99,659.14,349.52,659.3,349.05z"/>
		<path class="st1" d="M580.52,369.38c-2.43-1.97-2.44-3.27,0-5.38C580.52,365.92,580.52,367.51,580.52,369.38z"/>
		<path class="st1" d="M384.06,357.46c-0.68-0.65-1.36-1.29-2.57-2.45c1.35-0.46,2.23-0.77,3.11-1.07c0.18,1.07,0.37,2.13,0.55,3.2
			C384.79,357.25,384.42,357.35,384.06,357.46z"/>
		<path class="st1" d="M794.51,356.54c-1.77-0.37-3.55-0.75-5.32-1.12c0.1-0.44,0.2-0.89,0.3-1.33c1.76,0.42,3.53,0.83,5.29,1.25
			C794.69,355.74,794.6,356.14,794.51,356.54z"/>
		<path class="st1" d="M761.9,362.34c-0.05-1.11-0.09-2.23-0.14-3.34c0.57-0.02,1.13-0.04,1.7-0.06c0,1.12,0,2.25,0,3.37
			C762.94,362.32,762.42,362.33,761.9,362.34z"/>
		<path class="st3" d="M604.85,370.98c1.37,0.17,2.52,0.31,3.66,0.45c-0.19,0.59-0.3,1.62-0.6,1.69
			C606.67,373.37,605.2,373.62,604.85,370.98z"/>
		<path class="st1" d="M375.92,359.19c-0.48-0.94-1.02-1.87-1.37-2.86c-0.04-0.1,1.04-0.6,1.6-0.91c0.39,1.05,0.78,2.11,1.17,3.16
			C376.86,358.79,376.39,358.99,375.92,359.19z"/>
		<path class="st2" d="M422.18,350.77c-1.59,3.16-1.59,3.16-3.91,1.7C420.13,352.61,419.26,348.39,422.18,350.77z"/>
		<path class="st1" d="M647.78,352.32c-0.29-1.1-0.63-2.2-0.8-3.32c-0.03-0.19,0.76-0.49,1.17-0.75c0.39,1.24,0.77,2.49,1.16,3.73
			C648.8,352.1,648.29,352.21,647.78,352.32z"/>
		<path class="st1" d="M395.85,351.83c1.18,0,2.37-0.02,3.54,0.06c0.06,0,0.06,0.86,0.08,1.32c-1.21,0-2.41,0-3.62,0
			C395.85,352.74,395.85,352.29,395.85,351.83z"/>
		<path class="st2" d="M363.53,358.98c2.67-2.08,3.45-1.78,4.26,1.43C366.32,359.92,365.19,359.54,363.53,358.98z"/>
		<path class="st1" d="M723.11,350.84c1.75,0.14,3.51,0.28,5.26,0.42c-0.04,0.42-0.08,0.85-0.12,1.27c-1.74-0.2-3.48-0.4-5.22-0.6
			C723.06,351.57,723.09,351.2,723.11,350.84z"/>
		<path class="st1" d="M463.87,364.08c-0.55-0.94-1.15-1.85-1.59-2.84c-0.04-0.1,0.87-0.62,1.33-0.94c0.48,1.06,0.97,2.12,1.45,3.18
			C464.67,363.68,464.27,363.88,463.87,364.08z"/>
	</g>
</g>
</svg>
