<?xml version="1.0" encoding="utf-8"?>
<!-- Generator: Adobe Illustrator 26.5.0, SVG Export Plug-In . SVG Version: 6.00 Build 0)  -->
<svg version="1.1" id="Layer_1" xmlns="http://www.w3.org/2000/svg" xmlns:xlink="http://www.w3.org/1999/xlink" x="0px" y="0px"
	 viewBox="0 0 1150 700" style="enable-background:new 0 0 1150 700;" xml:space="preserve">
<style type="text/css">
	.st0{fill:#FEFEFE;}
	.st1{fill:#F6E4BD;}
	.st2{fill:#EDCE8D;}
	.st3{fill:#5273AF;}
</style>
<g>
	<g>
		<path class="st0" d="M395,328.81c0-0.54,0-1.09,0-1.63c0.18-0.84,0.52-1.68,0.52-2.53c0.03-15.52,0.03-31.05,0-46.57
			c0-0.84-0.34-1.69-0.52-2.53c0.09-0.18,0.17-0.51,0.27-0.52c0.72-0.05,1.45-0.02,2.18-0.02c119.18,0,238.37,0,357.55,0
			c0,50.18,0,100.36,0,150.54c-120,0-240,0-360,0c0-5.98,0-11.96,0-17.93c0.18-0.57,0.52-1.15,0.52-1.72
			c0-15.93-0.03-31.86-0.06-47.79c0.03-9.2,0.07-18.4,0.06-27.6C395.52,329.94,395.18,329.37,395,328.81z M410.13,308.21
			c2.89,0.79,2.36,2.94,2.28,4.8c-0.1,2.33-0.46,4.64-0.49,6.97c-0.22,16.72-0.42,33.43-0.57,50.15
			c-0.07,7.51-0.02,15.03-0.01,22.55c0,1.6,0.07,2.98,2.37,3.01c7.59,0.09,15.18,0.49,22.77,0.48
			c89.44-0.14,178.89-0.34,268.33-0.52c7.44-0.01,14.88,0,22.67,0c-0.62-1.17-1.1-2.4-1.85-3.43c-1.78-2.45-3.55-4.92-5.58-7.17
			c-1.25-1.39-2.83-2.61-4.5-3.46c-1.93-0.98-3.89-1.54-5.02-3.79c-0.61-1.23-2.34-2.56-3.65-2.65c-3.48-0.25-7.01,0.32-10.5,0.2
			c-1.38-0.05-3.18-0.7-3.99-1.71c-1.71-2.13-2.76-4.77-4.35-7.01c-0.75-1.06-2.06-2.27-3.21-2.37c-2.66-0.23-5.42-0.08-8.05,0.38
			c-4.64,0.81-9.96-2.34-11.2-6.76c-0.22-0.78-1.39-1.72-2.21-1.81c-1.66-0.17-3.41,0.03-5.07,0.35c-3.41,0.66-5.96-0.01-6.61-2.42
			c-0.56-2.06-1.7-1.92-3.23-1.71c-2.65,0.37-5.35,1.06-7.96,0.84c-2.65-0.22-5.23-1.38-7.83-2.13c0.18-0.17,0.36-0.33,0.53-0.5
			c-0.55-0.77-0.96-1.76-1.7-2.24c-1.09-0.72-2.39-1.21-3.66-1.57c-3.71-1.05-7.28-3.06-11.43-1.68c-0.27-0.74-0.62-1.46-0.81-2.23
			c-1.21-4.71-2.3-5.73-6.82-4.65c-3.82,0.92-4.6,0.7-6.29-3.59c-0.9-2.27-3.09-3.54-5.34-2.78c-2.5,0.85-4.87,2.05-7.33,3.02
			c-2.08,0.82-4.17,1.92-6.34,2.14c-1.88,0.19-3.91-0.54-5.8-1.1c-1.82-0.54-3.92-0.97-5.24-2.17c-2.83-2.56-5.83-4.01-9.68-3.8
			c-2.29,0.12-4.54,0.32-6.6-1.47c-0.89-0.78-2.88-0.94-4.11-0.56c-3.13,0.98-5.85,0.22-8.48-1.26c-2.11-1.19-4.15-1.3-6.44-0.58
			c-1.31,0.41-2.81,0.55-4.18,0.39c-4.37-0.48-8.71-1.24-13.08-1.73c-3.6-0.41-7.48,0.13-10.79-1.03
			c-9.29-3.25-18.76-5.33-28.45-6.91c-3.59-0.58-8.01,1.05-10.72-2.98c-0.13-0.19-0.69-0.17-1.04-0.14
			c-4.93,0.38-9.67,0.04-13.8-3.15c-0.52-0.41-1.33-0.46-2.02-0.64c-2.92-0.77-5.81-1.72-8.78-2.23c-1.52-0.26-3.32-0.05-4.76,0.53
			c-2.76,1.11-5.41,2.5-8.42,1.17c-2.16-0.95-4.14-2.54-6.38-3.07C419.79,305.04,414.9,305.54,410.13,308.21z"/>
		<path class="st1" d="M395,275.55c0.18,0.84,0.52,1.68,0.52,2.53c0.03,15.52,0.03,31.05,0,46.57c0,0.84-0.34,1.69-0.52,2.53
			C395,309.97,395,292.76,395,275.55z"/>
		<path class="st1" d="M395.46,358.11c0.03,15.93,0.06,31.86,0.06,47.79c0,0.57-0.34,1.15-0.52,1.72c0-16.49,0-32.97,0-49.46
			C395.16,358.16,395.31,358.14,395.46,358.11z"/>
		<path class="st2" d="M395.46,358.11c-0.15,0.04-0.31,0.05-0.46,0.05c0-9.78,0-19.56,0-29.35c0.18,0.57,0.52,1.13,0.52,1.7
			C395.53,339.7,395.49,348.9,395.46,358.11z"/>
		<path class="st3" d="M410.13,308.21c4.77-2.68,9.67-3.17,14.6-2c2.24,0.53,4.22,2.12,6.38,3.07c3.01,1.33,5.66-0.06,8.42-1.17
			c1.44-0.58,3.23-0.79,4.76-0.53c2.97,0.5,5.86,1.45,8.78,2.23c0.69,0.18,1.49,0.23,2.02,0.64c4.13,3.19,8.87,3.54,13.8,3.15
			c0.35-0.03,0.91-0.05,1.04,0.14c2.71,4.03,7.13,2.4,10.72,2.98c9.68,1.57,19.16,3.66,28.45,6.91c3.31,1.16,7.19,0.62,10.79,1.03
			c4.37,0.5,8.71,1.25,13.08,1.73c1.37,0.15,2.87,0.02,4.18-0.39c2.29-0.71,4.33-0.6,6.44,0.58c2.63,1.48,5.35,2.23,8.48,1.26
			c1.23-0.38,3.22-0.22,4.11,0.56c2.06,1.79,4.32,1.59,6.6,1.47c3.85-0.2,6.86,1.24,9.68,3.8c1.32,1.2,3.42,1.63,5.24,2.17
			c1.89,0.56,3.92,1.29,5.8,1.1c2.16-0.22,4.25-1.32,6.34-2.14c2.46-0.96,4.83-2.17,7.33-3.02c2.25-0.76,4.45,0.51,5.34,2.78
			c1.69,4.29,2.47,4.51,6.29,3.59c4.51-1.08,5.61-0.06,6.82,4.65c0.19,0.76,0.54,1.48,0.81,2.23c4.15-1.38,7.72,0.63,11.43,1.68
			c1.27,0.36,2.57,0.85,3.66,1.57c0.74,0.49,1.14,1.48,1.7,2.24c-0.18,0.17-0.36,0.33-0.53,0.5c2.61,0.75,5.18,1.91,7.83,2.13
			c2.61,0.22,5.31-0.47,7.96-0.84c1.53-0.21,2.67-0.35,3.23,1.71c0.65,2.41,3.21,3.08,6.61,2.42c1.66-0.32,3.41-0.53,5.07-0.35
			c0.82,0.09,1.99,1.03,2.21,1.81c1.24,4.41,6.55,7.57,11.2,6.76c2.64-0.46,5.39-0.61,8.05-0.38c1.15,0.1,2.47,1.31,3.21,2.37
			c1.59,2.24,2.64,4.89,4.35,7.01c0.81,1.01,2.61,1.66,3.99,1.71c3.5,0.12,7.03-0.45,10.5-0.2c1.31,0.09,3.03,1.42,3.65,2.65
			c1.13,2.25,3.08,2.81,5.02,3.79c1.66,0.85,3.25,2.07,4.5,3.46c2.02,2.24,3.8,4.71,5.58,7.17c0.75,1.03,1.23,2.26,1.85,3.43
			c-7.79,0-15.23-0.01-22.67,0c-89.44,0.18-178.89,0.37-268.33,0.52c-7.59,0.01-15.18-0.4-22.77-0.48c-2.3-0.03-2.37-1.41-2.37-3.01
			c-0.01-7.52-0.06-15.03,0.01-22.55c0.15-16.72,0.34-33.43,0.57-50.15c0.03-2.32,0.39-4.64,0.49-6.97
			C412.49,311.15,413.02,309,410.13,308.21z"/>
	</g>
</g>
</svg>
