<?xml version="1.0" encoding="utf-8"?>
<!-- Generator: Adobe Illustrator 26.5.0, SVG Export Plug-In . SVG Version: 6.00 Build 0)  -->
<svg version="1.1" id="Layer_1" xmlns="http://www.w3.org/2000/svg" xmlns:xlink="http://www.w3.org/1999/xlink" x="0px" y="0px"
	 viewBox="0 0 1150 700" style="enable-background:new 0 0 1150 700;" xml:space="preserve">
<style type="text/css">
	.st0{fill:#FEFEFE;}
	.st1{fill:#82A1DA;}
</style>
<g>
	<g>
		<path class="st0" d="M356,238c146.28,0,292.37,0,438.55,0c0,74.91,0,149.82,0,224.73c-146.16,0-292.35,0-438.55,0
			C356,387.84,356,312.96,356,238z M470.76,411.88c-1.45-0.71-2.91-1.78-4.54-2.13c-2.09-0.45-4.71-1.15-6.38-0.3
			c-3.77,1.91-7.22,1.63-10.89,0.28c-3.04-1.12-6.05-1.6-9.14,0.01c-0.77,0.4-1.93,0.46-2.79,0.23c-6.29-1.69-6.91-1.56-9.71,4.51
			c-1.64,3.55-4.3,5.53-7.94,6.21c-5.08,0.95-9.66,3.1-13.59,6.25c-4.97,3.99-10.77,5.95-16.6,7.96c-1.51,0.52-3.41,0.44-4.58,1.34
			c-2.43,1.87-5.04,2.07-7.86,1.97c-1.67-0.06-3.48,2.16-3.29,3.82c0.16,1.42,0.94,2.1,2.19,1.23c3.33-2.31,7.11-2.87,10.97-2.85
			c5.24,0.02,10.48,0.49,15.71,0.48c64.21-0.14,128.41-0.4,192.62-0.5c59.57-0.09,119.15-0.02,178.72-0.03
			c1.07,0,2.19-0.03,3.2-0.33c0.56-0.16,1.33-0.87,1.37-1.39c0.3-3.6,0.58-7.21,0.58-10.82c0.04-35.54,0.02-71.09,0.02-106.63
			c0-1.53,0-3.05,0-4.42c-1.35-0.25-2.58-0.46-3.81-0.7c-4.12-0.79-6.84,0.99-8.27,5.05c-0.36,1.01-1.53,1.87-2.51,2.5
			c-1.04,0.66-2.39,0.84-3.46,1.46c-2.81,1.65-5.53,3.48-8.32,5.16c-5.12,3.08-10.88,3.43-16.63,3.76
			c-2.17,0.12-4.47-0.28-6.48,0.33c-3.46,1.04-6.95,2.34-10.05,4.17c-4.93,2.91-10.49,2.9-15.76,4.19c-2.51,0.62-5.15,0.7-7.7,1.16
			c-2.54,0.46-5.06,1.02-7.56,1.67c-1.64,0.43-3.18,1.37-4.83,1.59c-6.07,0.83-11.89,2.41-17.62,4.6c-1.87,0.71-4.31,0.3-6.41-0.05
			c-7.91-1.33-15.52-1.24-22.64,3.18c-2.17,1.35-4.6,2.62-7.07,3.06c-4.32,0.76-8.77,0.74-13.14,1.26
			c-1.83,0.22-3.62,0.92-5.38,1.54c-3.54,1.24-7.02,2.63-10.56,3.83c-1.59,0.54-3.33,0.64-4.93,1.16
			c-3.66,1.19-7.21,2.78-10.92,3.71c-3.54,0.88-7.3,0.9-10.86,1.72c-5.83,1.35-11.62,2.88-17.33,4.66
			c-4.24,1.33-8.31,3.2-12.48,4.78c-3.92,1.48-7.86,2.93-11.82,4.3c-2.26,0.78-4.65,1.23-6.88,2.1c-3.32,1.3-6.52,2.88-9.8,4.27
			c-0.81,0.34-1.75,0.62-2.6,0.57c-3.03-0.18-5,1.47-7.02,3.44c-2.14,2.09-4.36,4.37-7,5.57c-2.51,1.14-5.6,0.99-8.44,1.39
			c-4.48,0.64-9.31-0.02-13.07,3.31C475.22,407.46,473.14,409.6,470.76,411.88z"/>
		<path class="st1" d="M470.76,411.88c2.38-2.28,4.47-4.42,6.7-6.39c3.77-3.32,8.6-2.66,13.07-3.31c2.84-0.41,5.93-0.26,8.44-1.39
			c2.64-1.2,4.86-3.49,7-5.57c2.02-1.97,3.99-3.62,7.02-3.44c0.86,0.05,1.8-0.22,2.6-0.57c3.28-1.39,6.49-2.97,9.8-4.27
			c2.22-0.87,4.61-1.32,6.88-2.1c3.96-1.37,7.9-2.82,11.82-4.3c4.17-1.57,8.24-3.45,12.48-4.78c5.71-1.78,11.51-3.31,17.33-4.66
			c3.56-0.83,7.32-0.84,10.86-1.72c3.72-0.93,7.27-2.52,10.92-3.71c1.6-0.52,3.34-0.62,4.93-1.16c3.55-1.2,7.03-2.59,10.56-3.83
			c1.76-0.62,3.55-1.32,5.38-1.54c4.37-0.52,8.82-0.5,13.14-1.26c2.47-0.43,4.9-1.71,7.07-3.06c7.12-4.43,14.73-4.52,22.64-3.18
			c2.1,0.35,4.54,0.77,6.41,0.05c5.73-2.19,11.56-3.76,17.62-4.6c1.65-0.23,3.19-1.17,4.83-1.59c2.5-0.65,5.02-1.21,7.56-1.67
			c2.55-0.46,5.19-0.55,7.7-1.16c5.27-1.29,10.84-1.28,15.76-4.19c3.1-1.83,6.59-3.12,10.05-4.17c2.01-0.61,4.31-0.21,6.48-0.33
			c5.75-0.32,11.51-0.67,16.63-3.76c2.8-1.68,5.51-3.51,8.32-5.16c1.07-0.63,2.42-0.8,3.46-1.46c0.99-0.63,2.16-1.49,2.51-2.5
			c1.43-4.06,4.14-5.84,8.27-5.05c1.23,0.24,2.46,0.45,3.81,0.7c0,1.37,0,2.9,0,4.42c0,35.54,0.02,71.09-0.02,106.63
			c0,3.61-0.29,7.22-0.58,10.82c-0.04,0.52-0.81,1.22-1.37,1.39c-1.01,0.3-2.13,0.33-3.2,0.33c-59.57,0.01-119.15-0.06-178.72,0.03
			c-64.21,0.1-128.41,0.36-192.62,0.5c-5.24,0.01-10.48-0.46-15.71-0.48c-3.86-0.01-7.64,0.54-10.97,2.85
			c-1.24,0.86-2.03,0.19-2.19-1.23c-0.19-1.66,1.62-3.88,3.29-3.82c2.83,0.1,5.43-0.09,7.86-1.97c1.17-0.9,3.07-0.82,4.58-1.34
			c5.83-2.01,11.63-3.98,16.6-7.96c3.93-3.15,8.51-5.3,13.59-6.25c3.65-0.68,6.31-2.66,7.94-6.21c2.8-6.06,3.42-6.2,9.71-4.51
			c0.86,0.23,2.01,0.17,2.79-0.23c3.09-1.6,6.1-1.12,9.14-0.01c3.67,1.35,7.12,1.63,10.89-0.28c1.67-0.85,4.29-0.15,6.38,0.3
			C467.84,410.1,469.31,411.17,470.76,411.88z"/>
	</g>
</g>
</svg>
