<?xml version="1.0" encoding="utf-8"?>
<!-- Generator: Adobe Illustrator 26.5.0, SVG Export Plug-In . SVG Version: 6.00 Build 0)  -->
<svg version="1.1" id="Layer_1" xmlns="http://www.w3.org/2000/svg" xmlns:xlink="http://www.w3.org/1999/xlink" x="0px" y="0px"
	 viewBox="0 0 1150 700" style="enable-background:new 0 0 1150 700;" xml:space="preserve">
<style type="text/css">
	.st0{fill:#FEFEFE;}
	.st1{fill:#FEEECC;}
</style>
<g>
	<g>
		<path class="st0" d="M890.55,542c-210.18,0-420.36,0-630.55,0c0-128,0-256,0-384c210.18,0,420.36,0,630.55,0
			C890.55,286,890.55,414,890.55,542z M878.63,209.8c-2.03,0.72-3.56,1.04-4.87,1.76c-5.18,2.85-8.72,8.67-15.94,7.83
			c-4.73-0.55-9.58,0.02-14.38-0.03c-3.56-0.03-7.2-0.76-10.65-0.23c-3.49,0.54-6.15,0.35-8.35-2.65c-0.49-0.66-1.72-1.26-2.51-1.15
			c-8.55,1.17-17.05,2.64-25.61,3.66c-3.03,0.36-6.19-0.24-9.29-0.47c-4.49-0.33-8.97-0.7-13.45-1.11c-4.34-0.4-9,0-12.96-1.47
			c-10.8-4.01-22.01-5.43-33.29-6.7c-6.99-0.79-14.04-1-21.02-1.78c-2.25-0.25-4.52-1.27-6.53-2.38c-4.3-2.38-8.46-4.96-13.66-4.6
			c-3.08,0.21-5.51-0.93-7.78-3.09c-3.24-3.08-6.43-6.34-11.71-5.77c-1.52,0.16-3.43-1.14-4.8-2.23c-3.23-2.56-6.13-5.54-9.38-8.07
			c-5.18-4.03-10.78-6.91-17.74-5.94c-2.83,0.39-5.76,0.35-8.63,0.22c-4.06-0.18-7.87-0.12-9.79,4.38c-0.2,0.47-0.68,0.84-1.09,1.19
			c-2.38,2.07-4.76,4.15-7.18,6.18c-3.15,2.64-6.01,5.67-10.56,6.11c-2.18,0.21-4.47,0.97-6.36,2.07
			c-5.12,2.98-11.18,4.41-15.29,9.12c-0.68,0.78-1.78,1.24-2.76,1.7c-10.13,4.87-20.97,7.78-31.57,11.37
			c-3.48,1.18-7.02,2.2-10.58,3.07c-0.9,0.22-2.34-0.08-2.95-0.7c-3.15-3.2-6.63-5.01-11.29-4.11c-5.17,1.01-10.12,3.21-15.63,2.55
			c-2.55-0.31-5.21,0.36-7.82,0.41c-1.89,0.04-3.8-0.08-5.66-0.35c-6.04-0.86-12.02-1.56-17.78,1.39c-1.25,0.64-2.72,1.03-4.12,1.15
			c-5.48,0.46-10.98,0.74-16.47,1.13c-7.15,0.51-13.92,2.54-20.09,6.06c-3.49,1.99-7.07,3.14-10.92,3.69
			c-2.58,0.37-5.33,0.07-7.79,0.79c-3.76,1.11-7.23,1.02-10.85-0.39c-1.64-0.64-3.53-0.63-5.31-0.9c-3.81-0.58-7.58-0.88-11.23-2.67
			c-5.25-2.57-10.85-3.92-16.81-1.84c-1.24,0.43-2.87-0.25-4.32-0.41c-2.1-0.23-4.2-0.5-6.3-0.65c-1.88-0.13-3.79,0.02-5.66-0.19
			c-5.08-0.56-10.15-1.22-15.22-1.87c-3.83-0.49-7.66-0.95-11.47-1.58c-2.48-0.41-4.91-1.15-7.38-1.67
			c-3.07-0.64-6.13-1.37-9.23-1.75c-2.88-0.36-5.81-0.29-8.71-0.44c-2-0.1-4.01-0.13-5.98-0.44c-2.55-0.4-5.05-1.44-7.59-1.47
			c-2.35-0.03-4.72,0.89-7.07,1.41c-1.41,0.31-2.75,1.04-1.43,2.5c1.59,1.76,1.01,3.37,0.55,5.2c-0.33,1.3-0.54,2.67-0.54,4
			c-0.02,95.77-0.01,191.55-0.07,287.32c0,2.63,0.71,3.31,3.32,3.31c198.92-0.06,397.83-0.06,596.75,0c2.6,0,3.33-0.65,3.33-3.29
			c-0.07-90.51-0.06-181.01-0.06-271.52c0-0.9-0.12-1.8-0.14-2.71c-0.12-5.52-0.26-11.03-0.31-16.55
			C878.59,221.01,878.63,215.82,878.63,209.8z"/>
		<path class="st1" d="M878.63,209.8c0,6.02-0.04,11.21,0.01,16.4c0.06,5.52,0.2,11.03,0.31,16.55c0.02,0.9,0.14,1.81,0.14,2.71
			c0.01,90.51-0.01,181.01,0.06,271.52c0,2.64-0.73,3.3-3.33,3.29c-198.92-0.06-397.83-0.06-596.75,0c-2.61,0-3.32-0.68-3.32-3.31
			c0.07-95.77,0.05-191.55,0.07-287.32c0-1.34,0.21-2.7,0.54-4c0.46-1.83,1.04-3.44-0.55-5.2c-1.32-1.47,0.02-2.19,1.43-2.5
			c2.36-0.52,4.72-1.44,7.07-1.41c2.53,0.03,5.04,1.07,7.59,1.47c1.97,0.31,3.98,0.33,5.98,0.44c2.91,0.15,5.83,0.09,8.71,0.44
			c3.1,0.38,6.16,1.11,9.23,1.75c2.47,0.52,4.89,1.26,7.38,1.67c3.81,0.63,7.64,1.09,11.47,1.58c5.07,0.65,10.14,1.31,15.22,1.87
			c1.87,0.21,3.78,0.06,5.66,0.19c2.11,0.15,4.2,0.42,6.3,0.65c1.45,0.16,3.08,0.84,4.32,0.41c5.96-2.08,11.56-0.73,16.81,1.84
			c3.65,1.79,7.42,2.09,11.23,2.67c1.78,0.27,3.67,0.26,5.31,0.9c3.63,1.41,7.09,1.5,10.85,0.39c2.46-0.73,5.2-0.42,7.79-0.79
			c3.85-0.56,7.43-1.71,10.92-3.69c6.17-3.51,12.94-5.54,20.09-6.06c5.49-0.39,10.99-0.67,16.47-1.13c1.4-0.12,2.88-0.5,4.12-1.15
			c5.76-2.95,11.74-2.26,17.78-1.39c1.87,0.27,3.78,0.39,5.66,0.35c2.61-0.05,5.27-0.72,7.82-0.41c5.51,0.66,10.46-1.55,15.63-2.55
			c4.66-0.91,8.14,0.91,11.29,4.11c0.61,0.62,2.06,0.92,2.95,0.7c3.56-0.87,7.1-1.9,10.58-3.07c10.6-3.58,21.44-6.49,31.57-11.37
			c0.97-0.47,2.08-0.93,2.76-1.7c4.11-4.71,10.17-6.14,15.29-9.12c1.89-1.1,4.18-1.86,6.36-2.07c4.55-0.44,7.4-3.47,10.56-6.11
			c2.42-2.03,4.8-4.11,7.18-6.18c0.41-0.35,0.89-0.72,1.09-1.19c1.92-4.5,5.73-4.56,9.79-4.38c2.87,0.13,5.8,0.17,8.63-0.22
			c6.96-0.97,12.56,1.91,17.74,5.94c3.25,2.53,6.15,5.51,9.38,8.07c1.37,1.08,3.28,2.39,4.8,2.23c5.29-0.57,8.48,2.69,11.71,5.77
			c2.27,2.16,4.7,3.31,7.78,3.09c5.2-0.36,9.36,2.22,13.66,4.6c2.01,1.11,4.29,2.13,6.53,2.38c6.99,0.79,14.04,0.99,21.02,1.78
			c11.27,1.28,22.49,2.69,33.29,6.7c3.96,1.47,8.62,1.08,12.96,1.47c4.48,0.41,8.96,0.77,13.45,1.11c3.1,0.23,6.25,0.83,9.29,0.47
			c8.56-1.02,17.07-2.5,25.61-3.66c0.79-0.11,2.02,0.49,2.51,1.15c2.19,2.99,4.86,3.18,8.35,2.65c3.46-0.53,7.09,0.2,10.65,0.23
			c4.8,0.04,9.65-0.52,14.38,0.03c7.22,0.83,10.76-4.98,15.94-7.83C875.07,210.84,876.6,210.52,878.63,209.8z"/>
	</g>
</g>
</svg>
