<?xml version="1.0" encoding="utf-8"?>
<!-- Generator: Adobe Illustrator 26.5.0, SVG Export Plug-In . SVG Version: 6.00 Build 0)  -->
<svg version="1.1" id="Layer_1" xmlns="http://www.w3.org/2000/svg" xmlns:xlink="http://www.w3.org/1999/xlink" x="0px" y="0px"
	 viewBox="0 0 1150 700" style="enable-background:new 0 0 1150 700;" xml:space="preserve">
<style type="text/css">
	.st0{fill:#FEFEFE;}
	.st1{fill:#EDCE8C;}
</style>
<g>
	<g>
		<path class="st0" d="M59,174c344,0,688,0,1032,0c0,117.09,0,234.18,0,351.27c-344,0-688,0-1032,0C59,408.18,59,291.09,59,174z
			 M678.23,491.29c126.69,0,253.28,0,380.05,0c-0.84-4.25-0.48-8.23-2.71-12.06c-3.45-5.93-6.28-12.26-8.9-18.62
			c-3.93-9.53-8.66-18.2-16.78-25.14c-11.22-9.6-21.86-19.93-32.43-30.26c-8.42-8.24-16.4-16.93-24.52-25.47
			c-3.81-4.01-7.44-8.18-11.22-12.21c-1.47-1.57-2.89-3.45-4.74-4.36c-6.02-2.95-12.14-5.73-18.39-8.16
			c-7.8-3.04-15.67-5.94-24.12-6.84c-2.28-0.24-4.84-0.76-6.66-2.03c-12.36-8.58-24.53-17.43-36.81-26.12
			c-4.73-3.35-9.26-7.22-14.44-9.63c-16.49-7.66-33.44-14.26-50.95-19.25c-4.91-1.4-8.62-4.07-11.64-8.17
			c-2.17-2.95-4.57-6.09-7.6-7.99c-6.13-3.85-12.73-6.96-19.18-10.29c-1.9-0.98-3.9-1.86-5.95-2.48
			c-10.42-3.16-21.04-5.75-31.25-9.47c-9.26-3.37-18.07-7.95-27.09-11.97c-7.15-3.19-13.99-7.23-22.13-7.59
			c-1.36-0.06-3.19-0.31-3.96-1.21c-3.09-3.57-7.17-4.39-11.47-5.2c-7.24-1.37-14.42-3.1-21.62-4.67
			c-7.65-1.67-15.22-3.81-23.19-3.47c-1.03,0.04-2.07-0.55-3.13-0.68c-2.09-0.26-4.22-0.71-6.28-0.52c-4.2,0.39-8.35,1.38-12.55,1.7
			c-2.88,0.22-5.94,0.17-8.71-0.54c-4.84-1.24-9.6-2.53-14.65-2.11c-1.97,0.17-4.02,0.8-5.9,0.46c-5.54-0.99-11.29-1.15-16.45-3.95
			c-1.59-0.87-3.6-0.99-5.43-1.4c-4.02-0.9-8.25-1.24-12.02-2.74c-8.63-3.43-17.1-7.08-26.72-6.01c-1.43,0.16-2.91,0.06-4.35-0.07
			c-3.13-0.28-6.25-0.81-9.38-0.96c-6.51-0.29-13.03-0.37-19.55-0.6c-2.13-0.08-4.26-0.3-6.37-0.55c-8.42-0.98-16.65-3.1-25.22-3.4
			c-7.97-0.28-15.9-1.72-23.86-2.54c-1.46-0.15-2.98,0.09-4.46,0.29c-3.01,0.39-6,0.89-9,1.31c-0.89,0.12-1.8,0.13-2.7,0.19
			c-5.13,0.3-10.27,0.88-15.4,0.82c-7.35-0.09-14.69-0.88-22.04-0.9c-3.52-0.01-7.29,0.31-9.86,3.54c-0.31,0.39-1.17,0.66-1.65,0.53
			c-3.6-0.96-7.02-0.14-10.31,1.12c-4.06,1.55-8.05,1.43-12.24,0.6c-2.02-0.4-4.79-0.65-6.24,0.4c-3.83,2.76-7.75,3.12-12.29,3.23
			c-3.55,0.09-6.21-0.92-9.14-2.35c-2.47-1.2-5.14-2.02-7.79-2.77c-1.89-0.53-3.88-0.71-5.84-0.95c-6.42-0.81-12.84-1.68-19.29-2.3
			c-2.12-0.2-4.42,0.81-6.43,0.36c-3.21-0.71-6.07,0.06-8.98,0.95c-2.67,0.82-5.16,0.86-7.92-0.01c-2.11-0.66-4.58-0.49-6.84-0.25
			c-1.84,0.2-3.74,1.75-5.38,1.45c-3.52-0.65-6.16,1.03-8.83,2.5c-1.97,1.08-3.52,1.95-5.96,1.1c-1.65-0.57-3.76-0.1-5.61,0.22
			c-3.79,0.66-7.54,2.04-11.33,2.16c-2.89,0.09-5.58,0.35-8.4,1c-2.59,0.59-5.41,0.16-8.13,0.19c-1.49,0.02-3.36-0.49-4.4,0.21
			c-4.35,2.9-9.23,3.2-14.15,3.56c-1.25,0.09-2.49,0.36-3.74,0.5c-5.37,0.57-10.79,1.88-16.09,1.47
			c-6.92-0.54-13.74-2.46-20.55-3.77c-0.58-4.09-1.41-4.76-5.16-3.79c-5.85,1.51-11.69,0.52-17.46-0.19
			c-5.01-0.62-9.9-1.74-15.02-0.72c-4.27,0.85-8.63,1.26-12.95,1.86c-2.4,0.33-4.15,2.26-4.08,4.7c0.16,6.07,0.57,12.15,0.57,18.22
			c0.04,86.41,0.03,172.82,0.04,259.23c0,0.96,0.09,1.91,0.15,3.04c1.58,0,2.84,0,4.1,0c196.26,0.01,392.52,0.03,588.77,0.01
			c1.88,0,3.4,0.25,4.85,1.74C675.28,495.8,677.03,495.21,678.23,491.29z"/>
		<path class="st1" d="M678.23,491.29c-1.2,3.92-2.95,4.51-5.46,1.93c-1.45-1.49-2.97-1.74-4.85-1.74
			c-196.26,0.01-392.52,0-588.77-0.01c-1.26,0-2.53,0-4.1,0c-0.06-1.13-0.15-2.09-0.15-3.04c-0.01-86.41,0-172.82-0.04-259.23
			c0-6.07-0.4-12.14-0.57-18.22c-0.07-2.44,1.69-4.37,4.08-4.7c4.32-0.6,8.68-1.01,12.95-1.86c5.12-1.02,10.01,0.1,15.02,0.72
			c5.77,0.71,11.61,1.7,17.46,0.19c3.75-0.97,4.59-0.3,5.16,3.79c6.81,1.31,13.62,3.23,20.55,3.77c5.29,0.41,10.72-0.9,16.09-1.47
			c1.25-0.13,2.49-0.4,3.74-0.5c4.92-0.36,9.8-0.66,14.15-3.56c1.05-0.7,2.91-0.19,4.4-0.21c2.72-0.03,5.54,0.4,8.13-0.19
			c2.82-0.64,5.51-0.91,8.4-1c3.79-0.12,7.53-1.5,11.33-2.16c1.85-0.32,3.96-0.79,5.61-0.22c2.44,0.85,3.99-0.02,5.96-1.1
			c2.68-1.47,5.31-3.15,8.83-2.5c1.64,0.3,3.54-1.26,5.38-1.45c2.26-0.24,4.73-0.42,6.84,0.25c2.76,0.87,5.25,0.83,7.92,0.01
			c2.91-0.89,5.77-1.67,8.98-0.95c2.02,0.45,4.32-0.56,6.43-0.36c6.44,0.62,12.86,1.49,19.29,2.3c1.96,0.25,3.96,0.42,5.84,0.95
			c2.65,0.75,5.32,1.57,7.79,2.77c2.93,1.42,5.59,2.44,9.14,2.35c4.53-0.12,8.46-0.47,12.29-3.23c1.45-1.04,4.22-0.79,6.24-0.4
			c4.18,0.83,8.18,0.95,12.24-0.6c3.29-1.26,6.71-2.08,10.31-1.12c0.48,0.13,1.34-0.14,1.65-0.53c2.57-3.23,6.34-3.55,9.86-3.54
			c7.35,0.02,14.69,0.81,22.04,0.9c5.13,0.06,10.27-0.53,15.4-0.82c0.9-0.05,1.81-0.06,2.7-0.19c3-0.42,5.99-0.92,9-1.31
			c1.48-0.19,3-0.44,4.46-0.29c7.96,0.83,15.89,2.27,23.86,2.54c8.57,0.3,16.8,2.42,25.22,3.4c2.12,0.25,4.24,0.47,6.37,0.55
			c6.52,0.23,13.04,0.3,19.55,0.6c3.14,0.14,6.25,0.68,9.38,0.96c1.44,0.13,2.92,0.23,4.35,0.07c9.62-1.07,18.09,2.58,26.72,6.01
			c3.77,1.5,8,1.84,12.02,2.74c1.83,0.41,3.84,0.54,5.43,1.4c5.16,2.81,10.9,2.97,16.45,3.95c1.88,0.33,3.93-0.29,5.9-0.46
			c5.05-0.43,9.82,0.86,14.65,2.11c2.78,0.71,5.83,0.76,8.71,0.54c4.2-0.32,8.35-1.31,12.55-1.7c2.06-0.19,4.19,0.26,6.28,0.52
			c1.06,0.13,2.1,0.72,3.13,0.68c7.96-0.34,15.54,1.8,23.19,3.47c7.2,1.57,14.38,3.3,21.62,4.67c4.31,0.82,8.39,1.64,11.47,5.2
			c0.77,0.89,2.6,1.15,3.96,1.21c8.14,0.37,14.98,4.4,22.13,7.59c9.02,4.02,17.83,8.6,27.09,11.97c10.21,3.72,20.83,6.3,31.25,9.47
			c2.05,0.62,4.05,1.49,5.95,2.48c6.45,3.33,13.05,6.44,19.18,10.29c3.03,1.9,5.43,5.04,7.6,7.99c3.02,4.1,6.73,6.78,11.64,8.17
			c17.52,4.99,34.47,11.58,50.95,19.25c5.19,2.41,9.72,6.28,14.44,9.63c12.28,8.69,24.45,17.54,36.81,26.12
			c1.82,1.26,4.38,1.78,6.66,2.03c8.45,0.9,16.32,3.8,24.12,6.84c6.25,2.43,12.37,5.22,18.39,8.16c1.85,0.91,3.27,2.79,4.74,4.36
			c3.78,4.03,7.41,8.21,11.22,12.21c8.12,8.55,16.1,17.24,24.52,25.47c10.57,10.34,21.2,20.66,32.43,30.26
			c8.12,6.94,12.85,15.61,16.78,25.14c2.62,6.36,5.45,12.69,8.9,18.62c2.23,3.83,1.87,7.81,2.71,12.06
			C931.51,491.29,804.92,491.29,678.23,491.29z"/>
	</g>
</g>
</svg>
