<?xml version="1.0" encoding="utf-8"?>
<!-- Generator: Adobe Illustrator 26.5.0, SVG Export Plug-In . SVG Version: 6.00 Build 0)  -->
<svg version="1.1" id="Layer_1" xmlns="http://www.w3.org/2000/svg" xmlns:xlink="http://www.w3.org/1999/xlink" x="0px" y="0px"
	 viewBox="0 0 1150 700" style="enable-background:new 0 0 1150 700;" xml:space="preserve">
<style type="text/css">
	.st0{fill:#FEFEFE;}
	.st1{fill:#BF8F3C;}
	.st2{fill:#BF8F3D;}
	.st3{fill:#C08F3D;}
	.st4{fill:#C0903E;}
</style>
<g>
	<g>
		<path class="st0" d="M298,521.55c0-114.18,0-228.36,0-342.55c184.73,0,369.45,0,554.18,0c0,114.18,0,228.36,0,342.55
			C667.45,521.55,482.73,521.55,298,521.55z M336,414.99c0.33-0.01,0.66-0.02,0.99-0.03c0.14-1.8,0.27-3.6,0.4-5.38
			c3.3-0.6,4.98-2.78,6.61-8.59c-2.61-0.02-2.37-0.99-1.14-2.79c2.23-3.27,1.06-7.03-2.27-8.14c-1.63-0.55-3.18-1.38-4.84-1.82
			c-1.07-0.28-2.4-0.51-2.09,1.62c0.2,1.33-0.27,2.77-0.44,4.12c-2.86,0.28-6.09,3.87-5.57,6.05c0.56,2.33,1.13,4.66,1.66,6.84
			c1.86,0.59,3.6,1.14,5.96,1.88C335.46,410.32,335.73,412.66,336,414.99z M811.21,310.72c-0.83,1.38-1.61,2.11-1.66,2.9
			c-0.06,0.84,0.51,2.44,0.88,2.47c2.29,0.16,1.96,1.7,1.97,3.13c0.01,1.26,0,2.52,0,3.78c0.33-0.01,0.66-0.01,0.99-0.02
			c0-4.51,0-9.03,0-13.67c-0.07,0.02,0.18-0.09,0.44-0.12c3.94-0.45,4.64-1.23,4.58-5.04c-0.01-0.44-0.02-1.07,0.24-1.28
			c1.75-1.41,0.9-2.9-0.18-3.89c-2.07-1.92-2.77-4.2-2.68-6.82c0.63-0.09,1.3-0.18,2.21-0.31c-1.53-1.3-2.59-2.56-3.95-3.21
			c-0.67-0.32-2.2,0.21-2.79,0.85c-1.21,1.34-2.17,2.95-2.99,4.57c-0.5,0.98-0.61,2.18-0.79,3.3c-0.41,2.53-0.76,5.06-1.13,7.54
			C808.01,306.86,809.8,309.02,811.21,310.72z M479.78,338.72c1.46-0.93,2.76-1.52,3.75-2.44c1.01-0.94-0.83-5.24-2.19-5.91
			c-1.54-0.75-2.93-1.81-4.38-2.73c-0.27-0.51-0.81-0.52-1.36-0.51c-2.8,0.04-2.8,0.19-1.9,2.84c0.22,0.66-0.57,1.69-0.98,2.51
			c-0.39,0.78-0.88,1.51-1.32,2.27c0.15,0.07,0.31,0.13,0.46,0.2c-1.28,0.79-2.56,1.57-3.31,2.03c0.61,2.12,1.18,3.89,1.6,5.7
			c0.21,0.91,0.16,1.88,0.23,2.82c0.79-0.36,1.57-0.73,2.44-1.13c1.33,1.46,2.84,3.11,4.56,4.99c0.8-2.6,1.61-5.24,2.46-8.02
			c1.24,0.82,1.96,1.3,2.67,1.77C484.34,340.79,484.33,340.77,479.78,338.72z M596.77,435.21c2.2-1.65,3.95-2.86,5.57-4.21
			c1.01-0.84,2.71-2.03,2.58-2.81c-0.45-2.63-0.88-5.94-2.64-7.48c-1.95-1.7-5.34-1.77-8.13-2.47c-0.19-0.05-0.57,0.6-0.85,0.94
			c-0.63,0.76-1.25,1.53-1.99,2.43c0.27,0.32,0.59,0.71,0.88,1.07c-0.47,0.33-0.97,0.65-1.42,1.02c-0.46,0.38-0.81,0.88-1.3,1.2
			c-2,1.3-2.12,2.67-0.05,4c2.15,1.38,4.48,2.48,7.03,3.86C596.53,433.23,596.66,434.32,596.77,435.21z M557.79,330.85
			c1.81-0.62,3.13-1.36,4.52-1.49c4.01-0.4,4.39-0.86,2.66-4.43c-1.49-3.05-2.43-6.59-6.33-7.72c-0.27-0.08-0.3-0.95-0.73-2.42
			c-2.1,4.28-7.7,4.94-6.7,11.01c0.72,4.39,0.03,4.5,3.72,5.23c0.89,1.83,1.62,3.33,2.35,4.84c0.17-0.06,0.35-0.11,0.52-0.17
			C557.79,334.07,557.79,332.43,557.79,330.85z M448.6,409.03c0,1.85,0.11,2.96-0.04,4.03c-0.11,0.78-0.72,1.5-0.83,2.28
			c-0.23,1.61-0.95,3.65-0.26,4.77c1.2,1.94,3.31,3.33,5.04,4.94c1.26-1.62,3.14-2.1,4.91-2.85c0.45-0.19,0.7-1.22,0.76-1.89
			c0.22-2.48,0.48-4.98,0.41-7.47c-0.03-0.91-0.8-2.41-1.49-2.57C454.34,409.64,451.49,409.42,448.6,409.03z M746.84,311.93
			c0.15,0.1,0.31,0.21,0.46,0.31c-1.34,1.67-2.68,3.34-4.01,5.02c-1.38,1.75-0.84,4.33,1.17,5.32c1.26,0.62,2.59,1.11,3.76,1.61
			c-0.52,0.19-1.18,0.43-1.17,0.42c0.43,1.89,0.71,3.23,1.05,4.57c0.24,0.95,0.55,1.89,0.89,3.06c0.42-3.61,0.79-6.73,1.15-9.84
			c2.53,0.6,4.03-0.36,3.28-2.64c-1-3.04,0.28-6.51-2.45-9.34c-1.35-1.39-2.41-1.27-3.67-1.02
			C747,309.46,746.99,311.04,746.84,311.93z M451.38,366.55c0.41-0.76,0.88-1.26,0.77-1.49c-1.18-2.55,0.68-3.77,2-5.45
			c1.14-1.45,1.97-3.37,2.28-5.19c0.25-1.51-6.08-4.97-7.6-4.36c-1.28,0.51-2.51,1.13-4.3,1.94c0.17,1.02,0.46,2.7,0.74,4.38
			c-0.59,0.85-1.27,2.11-0.9,2.69c0.88,1.39,2.06,2.81,4.15,2.32c0.76-0.18,1.54-0.28,2.31-0.41c-0.22,0.32-0.44,0.64-0.66,0.95
			C450.54,363.34,450.9,364.73,451.38,366.55z M523.79,418.5c1.47-1.01,2.85-2.19,4.42-2.99c1.66-0.85,2.4-2.05,1.75-3.68
			c-0.81-2.01-1.97-3.88-2.99-5.85c0.31-0.52,0.67-1.11,1.03-1.71c-2.41-1.17-5.71-0.58-7.24,2.01
			C517.79,411.27,518.56,415.76,523.79,418.5z M716.84,285.26c0.23,0,0.47,0,0.7,0.01c0,0.87,0,1.74,0,3.14
			c2.07-2.5,2.14-3.7,0.76-6.83c0.62-0.42,1.24-0.89,1.9-1.29c1.74-1.07,2.48-5.3,1.29-6.96c-1.68-2.34-3.25-4.76-5.01-7.36
			c-0.99,0.76-1.92,1.48-3.02,2.33c1,0.77,1.68,1.29,2.42,1.86c-0.74,1.5-1.73,2.86-2.08,4.37c-0.34,1.43-0.62,3.59,0.16,4.39
			c1.01,1.05,1.13,2.06,1.48,3.21C715.75,283.21,716.35,284.22,716.84,285.26z M793.07,375.48c-1.77,0.2-3.23,1.06-2.29,3.09
			c1.51,3.29,3.36,6.43,5.2,9.89c1.34-2.6,1.45-5.19,4.17-6.53c1.72-0.85,1.91-2.81,0.62-4.68c-1.19-1.72-2-3.7-3.17-5.42
			c-0.49-0.73-1.44-1.33-2.29-1.53c-0.33-0.08-1.15,1.03-1.42,1.72C793.49,373.07,793.35,374.24,793.07,375.48z M509.22,407.66
			c-2.01-0.03-2.97,0.67-2.33,2.65c0.03,0.08,0.15,0.17,0.13,0.23c-1.23,3.64,2.29,4.49,3.89,6.43c0.28,0.33,1.56,0.12,2.19-0.21
			c0.73-0.38,1.23-1.2,1.87-1.77c1.7-1.5,2.87-6.49,1.84-8.24c-0.8-1.37-1.71-2.68-2.75-4.3
			C511.92,402.25,508.93,405.01,509.22,407.66z M416,450.97c-0.86-0.19-1.71-0.5-2.57-0.55c-1.09-0.05-2.86-0.28-3.18,0.25
			c-1.16,1.98-1.91,4.21-2.64,6.41c-0.12,0.37,0.49,1.31,0.95,1.49c2.17,0.83,3.11,2.34,3.06,4.61c0,0.21,0.49,0.44,0.82,0.71
			c2.02-1.76,5.37-2.38,4.36-6.16C419.89,455.09,416.4,453.21,416,450.97z M578.26,330.41c0.3-0.09,0.6-0.18,0.9-0.27
			c0.35-1.07,0.51-2.25,1.07-3.19c1.11-1.86,2.44-3.57,3.67-5.36c2.26-3.3-2.75-4.01-2.47-6.72c0.04-0.37-1.42-0.93-2.22-1.34
			c-0.2-0.1-0.68-0.04-0.77,0.1c-1.22,2.02-2.83,3.95-3.44,6.15c-0.54,1.96,0.23,4.17,1.83,5.81c0.29,0.3,0.53,0.73,0.63,1.14
			C577.76,327.95,578,329.19,578.26,330.41z M682.22,291.74c0.28,0.03,0.56,0.07,0.84,0.1c1.04-1.8,1.81-3.85,3.18-5.35
			c2.26-2.46,2.44-4.66,0.27-7.09c-2.01-2.24-4.02-1.07-6.12-0.39c-2.87,0.93-3.63,2.41-2.27,5.09c1,1.97,2.28,3.81,3.38,5.73
			C681.83,290.42,681.99,291.11,682.22,291.74z M643.36,364.46c-0.86,1.31-1.79,2.15-1.95,3.12c-0.16,0.97,0.15,2.34,0.8,3.03
			c1.04,1.13,2.51,1.87,3.84,2.71c0.23,0.15,0.78,0.08,1.01-0.1c1.49-1.2,3.7-2.21,4.19-3.75c0.53-1.66-0.18-4.04-1.05-5.75
			c-1.33-2.61-4.67-3.01-7.36-1.31c-0.2,0.13-0.29,0.41-0.47,0.68C642.8,363.68,643.2,364.24,643.36,364.46z M516.56,347.67
			c0.25,0,0.49,0.01,0.74,0.01c0.05-0.86,0.09-1.71,0.14-2.58c3.37-1.6,4.12-3.56,2.72-7c-0.29-0.71-0.47-1.6-0.33-2.34
			c0.41-2.31-1.24-3.06-2.77-3.02c-1.26,0.04-3.08,0.91-3.6,1.94c-0.73,1.46-1.02,3.57-0.55,5.11
			C513.74,342.53,515.3,345.05,516.56,347.67z M560.71,309.86c0.33-0.04,0.67-0.08,1-0.12c0.81-1.99,1.66-3.96,2.4-5.97
			c0.54-1.48,2.86-2.99,0.06-4.6c-0.23-0.13-0.08-1.14,0.09-1.68c0.55-1.69-0.17-2.7-1.73-2.98c-1.59-0.29-3.13-0.24-3.02,2.19
			c0.04,0.89-0.51,1.81-0.81,2.71c-0.43,1.29-1.52,2.77-1.2,3.83C558.2,305.56,559.6,307.67,560.71,309.86z M749.24,267.74
			c-3.35,2.86-3.82,6.11-1.56,9.73c0.25,0.4,0.47,1.21,0.27,1.45c-1.66,1.89-1.08,3.39,0.59,4.86c0.25,0.23,0.07,0.91,0.15,1.37
			c0.12,0.72,0.3,1.43,0.62,2.9c0.48-1.17,0.72-1.54,0.79-1.93c0.36-2.1,0.24-4.42,1.11-6.28
			C753.39,275.17,753.88,270.72,749.24,267.74z M543.97,317.16c3.27-1.24,3.59-4.36,4.03-7.08c0.32-1.96-0.37-4.08-0.65-6.13
			c-0.1-0.71-0.12-1.78-0.54-2.02c-0.53-0.29-1.55-0.08-2.16,0.27c-2.59,1.47-1.88,4.57-3.15,6.66c-1.16,1.91-1.08,3.39,0.25,5.04
			C542.5,314.86,543.13,315.92,543.97,317.16z M534.07,318.21c0.45,1.23,0.78,2.12,1.1,3.01c0.31-0.02,0.61-0.05,0.92-0.07
			c0.68-4.07,1.36-8.14,2.05-12.25c-4.1-1-3.7,2.44-5.11,3.87c-1.97-0.25-4.99,2.54-4.46,4.22c0.65,2.05,1.41,4.07,2.33,6.7
			C532,321.8,532.97,320.13,534.07,318.21z M740.51,288.06c1.71-2.45,3.32-4.7,4.84-7.02c0.26-0.4,0.28-1.11,0.14-1.58
			c-0.51-1.67-0.98-3.39-1.8-4.91c-0.44-0.81-1.51-1.6-2.4-1.74c-0.63-0.1-1.8,0.78-2.07,1.48c-0.59,1.54-0.47,3.39-2.32,4.27
			c-0.04,0.02,0.4,1.13,0.67,1.7c0.7,1.43,2.41,3.52,1.97,4.15C737.87,286.83,739.84,287.34,740.51,288.06z M732.5,285.64
			c1.09-0.64,2.27-1.04,3-1.85c0.61-0.68,1.17-2.01,0.9-2.75c-0.72-2-1.8-3.89-2.92-5.72c-0.92-1.5-2.52-1.43-3.22-0.05
			c-0.72,1.41-1.6,2.74-2.23,4.18c-0.32,0.73-0.37,2.33-0.33,2.34c2.65,0.49,2.01,2.79,2.57,4.43c0.26,0.75,0.74,1.42,1.48,2.79
			C732.12,287.32,732.33,286.4,732.5,285.64z M632.26,299.31c1.08-1.51,3.07-3.73,2.12-7.46c-0.6-2.37-1.99-2.95-3.22-2.14
			c-1.47,0.98-2.3,3-3.22,4.67c-0.25,0.46,0.09,1.33,0.32,1.95c0.21,0.57,0.53,1.23,1.01,1.54
			C630.23,298.48,631.31,298.87,632.26,299.31z M648.78,288.07c-0.56-1.76-0.69-3-1.33-3.89c-0.54-0.76-1.7-1.59-2.51-1.52
			c-1.58,0.13-3.39,6.35-2.38,7.64c0.06,0.07,0.11,0.18,0.18,0.2c1.01,0.31,2.36,1.17,2.96,0.8
			C646.98,290.51,647.86,289.08,648.78,288.07z M662.79,292.88c0.16-0.1,0.32-0.2,0.48-0.3c0.24-1.2,0.09-3.1,0.78-3.48
			c3.22-1.77,1.42-3.86,0.63-5.82c-0.55-1.37-1.52-2.68-3.28-1.58c-2,1.24-2.38,3.64-1.26,5.25c0.82,1.19,1.27,2.64,1.86,3.99
			C662.29,291.57,662.53,292.23,662.79,292.88z M655.81,292.79c0.85-1.73,1.86-3.57,2.63-5.5c0.25-0.62,0.01-1.55-0.27-2.23
			c-0.35-0.86-0.97-1.62-1.5-2.46c-3.08-0.21-5.09,2.11-3.89,4.77C653.7,289.4,654.96,291.28,655.81,292.79z M599.46,301.77
			c1.09-1.58,2.54-2.92,2.91-4.51c0.22-0.97-1.26-2.31-1.92-3.52c-1.06-1.97-2.54-0.85-3.08,0.03c-0.79,1.27-0.99,2.95-1.25,4.49
			c-0.08,0.47,0.39,1.15,0.8,1.54C597.61,300.47,598.43,300.99,599.46,301.77z M618.81,291.53c-0.78,0.32-2.35,0.48-2.6,1.15
			c-0.63,1.66-1.16,3.65-0.79,5.3c0.35,1.59,1.88,2.93,2.79,4.24c0.82-1.35,1.78-2.73,2.51-4.22c0.25-0.51,0.05-1.33-0.15-1.94
			C620.14,294.74,619.58,293.48,618.81,291.53z M609.94,301.42c1.07-2.53,2.57-4.71,1.96-7.69c-0.36-1.75-1-2.01-2.43-2.02
			c-1.59-0.02-2.13,0.75-1.91,2.2c0.06,0.43,0.52,1.04,0.37,1.22C605.23,298.41,609.38,299.27,609.94,301.42z M699.24,268.48
			c-0.16,0.28-0.62,0.75-0.69,1.27c-0.16,1.25-0.17,2.53-0.19,3.8c-0.02,1.19-0.47,2.87,0.13,3.46c0.75,0.74,2.38,0.6,3.52,0.82
			c0.26-2.72,0.46-4.79,0.66-6.97C701.7,270.19,700.58,269.41,699.24,268.48z M550.15,311.39c0.34-0.01,0.68-0.03,1.02-0.04
			c0.8-1.94,1.84-3.83,2.27-5.85c0.16-0.74-1.01-1.98-1.84-2.63c-0.46-0.36-1.96-0.27-2.18,0.1c-0.42,0.71-0.3,1.76-0.32,2.67
			c-0.02,0.9-0.03,1.82,0.14,2.69C549.43,309.37,549.83,310.37,550.15,311.39z M705.76,277.64c3.19-3.53-0.73-6.59,0.09-9.93
			c-0.9,0.38-1.78,0.89-1.83,1.48c-0.12,1.4,0.75,3.22,0.14,4.19C702.62,275.85,704.67,276.35,705.76,277.64z M518.15,329.75
			c0.48-2.16,4.31-3.01,2.1-5.73c-0.51-0.63-3.59-0.25-4.43,0.65C513.2,327.45,516.86,328.06,518.15,329.75z"/>
		<path class="st1" d="M336,414.99c-0.27-2.34-0.54-4.68-0.72-6.24c-2.36-0.74-4.1-1.29-5.96-1.88c-0.53-2.18-1.09-4.51-1.66-6.84
			c-0.52-2.18,2.71-5.77,5.57-6.05c0.17-1.35,0.64-2.79,0.44-4.12c-0.31-2.12,1.02-1.9,2.09-1.62c1.66,0.44,3.21,1.27,4.84,1.82
			c3.33,1.12,4.51,4.87,2.27,8.14c-1.23,1.8-1.47,2.77,1.14,2.79c-1.63,5.81-3.31,7.98-6.61,8.59c-0.13,1.78-0.27,3.58-0.4,5.38
			C336.66,414.97,336.33,414.98,336,414.99z"/>
		<path class="st1" d="M811.21,310.72c-1.42-1.7-3.21-3.86-4.86-5.84c0.37-2.47,0.72-5.01,1.13-7.54c0.18-1.12,0.29-2.32,0.79-3.3
			c0.82-1.62,1.78-3.23,2.99-4.57c0.59-0.65,2.12-1.17,2.79-0.85c1.36,0.65,2.42,1.91,3.95,3.21c-0.91,0.13-1.58,0.22-2.21,0.31
			c-0.09,2.63,0.61,4.9,2.68,6.82c1.08,1,1.93,2.48,0.18,3.89c-0.26,0.21-0.24,0.84-0.24,1.28c0.06,3.81-0.64,4.59-4.58,5.04
			c-0.26,0.03-0.51,0.14-0.44,0.12c0,4.65,0,9.16,0,13.67c-0.33,0.01-0.66,0.01-0.99,0.02c0-1.26,0-2.52,0-3.78
			c-0.01-1.43,0.33-2.97-1.97-3.13c-0.38-0.03-0.94-1.63-0.88-2.47C809.61,312.83,810.38,312.1,811.21,310.72z"/>
		<path class="st2" d="M479.78,338.72c4.55,2.05,4.56,2.08,2.74,4.39c-0.71-0.47-1.44-0.95-2.67-1.77
			c-0.85,2.78-1.66,5.42-2.46,8.02c-1.72-1.88-3.23-3.54-4.56-4.99c-0.86,0.4-1.65,0.76-2.44,1.13c-0.07-0.94-0.01-1.91-0.23-2.82
			c-0.42-1.81-1-3.58-1.6-5.7c0.75-0.46,2.03-1.24,3.31-2.03c-0.15-0.07-0.31-0.13-0.46-0.2c0.44-0.75,0.93-1.48,1.32-2.27
			c0.41-0.82,1.2-1.86,0.98-2.51c-0.9-2.65-0.9-2.8,1.9-2.84c0.54-0.01,1.09,0,1.36,0.51c1.45,0.92,2.85,1.98,4.38,2.73
			c1.36,0.67,3.2,4.97,2.19,5.91C482.54,337.2,481.24,337.79,479.78,338.72z"/>
		<path class="st1" d="M596.77,435.21c-0.11-0.89-0.24-1.97-0.3-2.44c-2.55-1.38-4.88-2.48-7.03-3.86c-2.08-1.34-1.96-2.7,0.05-4
			c0.49-0.32,0.85-0.83,1.3-1.2c0.45-0.37,0.95-0.68,1.42-1.02c-0.3-0.36-0.62-0.75-0.88-1.07c0.73-0.9,1.36-1.67,1.99-2.43
			c0.28-0.34,0.66-0.99,0.85-0.94c2.79,0.7,6.18,0.76,8.13,2.47c1.76,1.54,2.19,4.85,2.64,7.48c0.13,0.77-1.58,1.97-2.58,2.81
			C600.71,432.34,598.97,433.55,596.77,435.21z"/>
		<path class="st1" d="M557.79,330.85c0,1.57,0,3.22,0,4.87c-0.17,0.06-0.35,0.11-0.52,0.17c-0.73-1.5-1.46-3.01-2.35-4.84
			c-3.68-0.74-3-0.85-3.72-5.23c-1-6.07,4.6-6.73,6.7-11.01c0.42,1.47,0.46,2.34,0.73,2.42c3.91,1.13,4.85,4.66,6.33,7.72
			c1.74,3.57,1.36,4.03-2.66,4.43C560.92,329.5,559.6,330.23,557.79,330.85z"/>
		<path class="st1" d="M448.6,409.03c2.89,0.39,5.74,0.61,8.49,1.25c0.68,0.16,1.46,1.66,1.49,2.57c0.07,2.48-0.18,4.98-0.41,7.47
			c-0.06,0.67-0.31,1.69-0.76,1.89c-1.77,0.76-3.65,1.24-4.91,2.85c-1.73-1.62-3.84-3-5.04-4.94c-0.69-1.12,0.03-3.16,0.26-4.77
			c0.11-0.78,0.72-1.5,0.83-2.28C448.71,411.99,448.6,410.88,448.6,409.03z"/>
		<path class="st1" d="M746.84,311.93c0.15-0.88,0.16-2.47,0.47-2.53c1.27-0.25,2.32-0.37,3.67,1.02c2.73,2.82,1.45,6.29,2.45,9.34
			c0.75,2.28-0.75,3.24-3.28,2.64c-0.37,3.12-0.73,6.24-1.15,9.84c-0.34-1.17-0.65-2.1-0.89-3.06c-0.33-1.33-0.62-2.68-1.05-4.57
			c-0.01,0,0.65-0.24,1.17-0.42c-1.18-0.5-2.5-0.99-3.76-1.61c-2.01-0.99-2.55-3.56-1.17-5.32c1.33-1.68,2.67-3.35,4.01-5.02
			C747.15,312.13,747,312.03,746.84,311.93z"/>
		<path class="st3" d="M451.38,366.55c-0.48-1.82-0.84-3.22-1.21-4.61c0.22-0.32,0.44-0.64,0.66-0.95
			c-0.77,0.13-1.55,0.23-2.31,0.41c-2.09,0.49-3.27-0.93-4.15-2.32c-0.37-0.59,0.31-1.84,0.9-2.69c-0.28-1.68-0.57-3.36-0.74-4.38
			c1.79-0.81,3.02-1.43,4.3-1.94c1.52-0.61,7.85,2.85,7.6,4.36c-0.31,1.82-1.14,3.73-2.28,5.19c-1.32,1.68-3.18,2.9-2,5.45
			C452.26,365.29,451.79,365.79,451.38,366.55z"/>
		<path class="st3" d="M523.79,418.5c-5.23-2.74-6-7.22-3.04-12.23c1.53-2.58,4.82-3.18,7.24-2.01c-0.36,0.6-0.71,1.18-1.03,1.71
			c1.03,1.97,2.19,3.84,2.99,5.85c0.65,1.63-0.09,2.84-1.75,3.68C526.64,416.31,525.26,417.49,523.79,418.5z"/>
		<path class="st3" d="M716.84,285.26c-0.48-1.04-1.08-2.04-1.41-3.13c-0.35-1.15-0.47-2.16-1.48-3.21
			c-0.77-0.8-0.49-2.96-0.16-4.39c0.36-1.51,1.34-2.87,2.08-4.37c-0.73-0.56-1.42-1.09-2.42-1.86c1.1-0.85,2.03-1.57,3.02-2.33
			c1.77,2.6,3.34,5.01,5.01,7.36c1.18,1.66,0.45,5.89-1.29,6.96c-0.66,0.4-1.28,0.87-1.9,1.29c1.38,3.13,1.31,4.33-0.76,6.83
			c0-1.41,0-2.27,0-3.14C717.3,285.26,717.07,285.26,716.84,285.26z"/>
		<path class="st1" d="M793.07,375.48c0.28-1.24,0.41-2.4,0.83-3.46c0.27-0.69,1.08-1.8,1.42-1.72c0.85,0.2,1.8,0.81,2.29,1.53
			c1.17,1.73,1.98,3.71,3.17,5.42c1.29,1.87,1.1,3.83-0.62,4.68c-2.72,1.34-2.84,3.93-4.17,6.53c-1.84-3.46-3.68-6.6-5.2-9.89
			C789.85,376.53,791.3,375.68,793.07,375.48z"/>
		<path class="st1" d="M509.22,407.66c-0.29-2.65,2.7-5.41,4.84-5.23c1.04,1.62,1.95,2.93,2.75,4.3c1.03,1.75-0.14,6.74-1.84,8.24
			c-0.65,0.57-1.14,1.39-1.87,1.77c-0.63,0.33-1.92,0.54-2.19,0.21c-1.6-1.93-5.12-2.79-3.89-6.43c0.02-0.05-0.1-0.15-0.13-0.23
			C506.25,408.33,507.21,407.63,509.22,407.66z"/>
		<path class="st3" d="M416,450.97c0.4,2.24,3.89,4.12,0.79,6.77c1.01,3.78-2.34,4.4-4.36,6.16c-0.33-0.27-0.82-0.5-0.82-0.71
			c0.05-2.27-0.9-3.78-3.06-4.61c-0.46-0.18-1.07-1.12-0.95-1.49c0.73-2.2,1.48-4.43,2.64-6.41c0.31-0.53,2.08-0.31,3.18-0.25
			C414.29,450.47,415.15,450.78,416,450.97z"/>
		<path class="st1" d="M578.26,330.41c-0.26-1.23-0.5-2.46-0.81-3.68c-0.1-0.41-0.34-0.84-0.63-1.14c-1.59-1.65-2.37-3.85-1.83-5.81
			c0.61-2.2,2.22-4.13,3.44-6.15c0.09-0.14,0.57-0.2,0.77-0.1c0.8,0.41,2.26,0.97,2.22,1.34c-0.28,2.71,4.73,3.42,2.47,6.72
			c-1.22,1.79-2.56,3.5-3.67,5.36c-0.56,0.94-0.73,2.12-1.07,3.19C578.86,330.24,578.56,330.32,578.26,330.41z"/>
		<path class="st2" d="M682.22,291.74c-0.23-0.63-0.39-1.32-0.72-1.9c-1.1-1.93-2.38-3.76-3.38-5.73c-1.36-2.68-0.6-4.16,2.27-5.09
			c2.1-0.68,4.11-1.86,6.12,0.39c2.17,2.43,1.99,4.64-0.27,7.09c-1.37,1.49-2.14,3.54-3.18,5.35
			C682.78,291.81,682.5,291.78,682.22,291.74z"/>
		<path class="st1" d="M643.36,364.46c-0.16-0.22-0.56-0.78-0.99-1.38c0.18-0.27,0.28-0.56,0.47-0.68c2.69-1.7,6.03-1.3,7.36,1.31
			c0.87,1.71,1.57,4.09,1.05,5.75c-0.49,1.54-2.7,2.56-4.19,3.75c-0.23,0.18-0.78,0.25-1.01,0.1c-1.33-0.84-2.8-1.58-3.84-2.71
			c-0.64-0.7-0.95-2.07-0.8-3.03C641.56,366.61,642.49,365.77,643.36,364.46z"/>
		<path class="st1" d="M516.56,347.67c-1.26-2.62-2.81-5.14-3.66-7.89c-0.47-1.54-0.18-3.65,0.55-5.11c0.52-1.03,2.34-1.9,3.6-1.94
			c1.52-0.04,3.18,0.71,2.77,3.02c-0.13,0.74,0.04,1.62,0.33,2.34c1.4,3.44,0.65,5.4-2.72,7c-0.05,0.87-0.09,1.73-0.14,2.58
			C517.05,347.67,516.8,347.67,516.56,347.67z"/>
		<path class="st3" d="M560.71,309.86c-1.11-2.19-2.51-4.3-3.21-6.62c-0.32-1.06,0.77-2.54,1.2-3.83c0.3-0.9,0.85-1.82,0.81-2.71
			c-0.12-2.43,1.42-2.48,3.02-2.19c1.56,0.28,2.28,1.3,1.73,2.98c-0.18,0.53-0.32,1.55-0.09,1.68c2.8,1.61,0.48,3.11-0.06,4.6
			c-0.74,2.01-1.59,3.99-2.4,5.97C561.38,309.78,561.05,309.82,560.71,309.86z"/>
		<path class="st3" d="M749.24,267.74c4.64,2.99,4.15,7.43,1.96,12.11c-0.87,1.86-0.75,4.17-1.11,6.28c-0.07,0.4-0.3,0.77-0.79,1.93
			c-0.32-1.47-0.49-2.18-0.62-2.9c-0.08-0.46,0.1-1.15-0.15-1.37c-1.67-1.48-2.25-2.97-0.59-4.86c0.21-0.24-0.02-1.05-0.27-1.45
			C745.43,273.84,745.89,270.59,749.24,267.74z"/>
		<path class="st3" d="M543.97,317.16c-0.84-1.24-1.46-2.3-2.23-3.25c-1.33-1.65-1.4-3.14-0.25-5.04c1.27-2.09,0.56-5.19,3.15-6.66
			c0.61-0.35,1.64-0.56,2.16-0.27c0.43,0.23,0.45,1.3,0.54,2.02c0.28,2.04,0.97,4.17,0.65,6.13
			C547.56,312.8,547.24,315.91,543.97,317.16z"/>
		<path class="st1" d="M534.07,318.21c-1.11,1.92-2.07,3.59-3.17,5.49c-0.92-2.62-1.67-4.65-2.33-6.7
			c-0.54-1.68,2.48-4.48,4.46-4.22c1.42-1.43,1.01-4.88,5.11-3.87c-0.69,4.1-1.37,8.18-2.05,12.25c-0.31,0.02-0.61,0.05-0.92,0.07
			C534.85,320.34,534.52,319.44,534.07,318.21z"/>
		<path class="st3" d="M740.51,288.06c-0.67-0.72-2.64-1.23-0.97-3.65c0.43-0.63-1.28-2.72-1.97-4.15c-0.28-0.57-0.71-1.68-0.67-1.7
			c1.85-0.88,1.73-2.73,2.32-4.27c0.27-0.7,1.44-1.58,2.07-1.48c0.89,0.14,1.96,0.93,2.4,1.74c0.82,1.52,1.29,3.24,1.8,4.91
			c0.15,0.48,0.12,1.19-0.14,1.58C743.83,283.35,742.22,285.6,740.51,288.06z"/>
		<path class="st3" d="M732.5,285.64c-0.17,0.76-0.38,1.68-0.76,3.38c-0.74-1.37-1.22-2.04-1.48-2.79
			c-0.56-1.64,0.08-3.94-2.57-4.43c-0.05-0.01,0.01-1.62,0.33-2.34c0.63-1.44,1.51-2.77,2.23-4.18c0.7-1.38,2.3-1.45,3.22,0.05
			c1.12,1.82,2.2,3.72,2.92,5.72c0.27,0.74-0.29,2.07-0.9,2.75C734.77,284.6,733.59,285,732.5,285.64z"/>
		<path class="st4" d="M632.26,299.31c-0.95-0.44-2.04-0.83-2.98-1.43c-0.48-0.31-0.8-0.97-1.01-1.54
			c-0.23-0.62-0.57-1.49-0.32-1.95c0.92-1.67,1.75-3.69,3.22-4.67c1.23-0.82,2.62-0.23,3.22,2.14
			C635.33,295.58,633.34,297.8,632.26,299.31z"/>
		<path class="st3" d="M648.78,288.07c-0.92,1.02-1.8,2.44-3.08,3.23c-0.6,0.37-1.95-0.49-2.96-0.8c-0.07-0.02-0.12-0.13-0.18-0.2
			c-1-1.29,0.8-7.51,2.38-7.64c0.81-0.07,1.97,0.76,2.51,1.52C648.09,285.06,648.22,286.31,648.78,288.07z"/>
		<path class="st1" d="M662.79,292.88c-0.26-0.65-0.51-1.31-0.79-1.95c-0.6-1.34-1.04-2.8-1.86-3.99c-1.11-1.61-0.74-4,1.26-5.25
			c1.76-1.1,2.73,0.21,3.28,1.58c0.79,1.96,2.59,4.04-0.63,5.82c-0.69,0.38-0.54,2.28-0.78,3.48
			C663.11,292.68,662.95,292.78,662.79,292.88z"/>
		<path class="st3" d="M655.81,292.79c-0.85-1.51-2.11-3.39-3.03-5.42c-1.2-2.66,0.81-4.98,3.89-4.77c0.53,0.84,1.15,1.59,1.5,2.46
			c0.28,0.68,0.52,1.61,0.27,2.23C657.67,289.22,656.66,291.06,655.81,292.79z"/>
		<path class="st3" d="M599.46,301.77c-1.03-0.78-1.86-1.3-2.54-1.97c-0.4-0.4-0.87-1.08-0.8-1.54c0.26-1.54,0.46-3.22,1.25-4.49
			c0.54-0.87,2.02-2,3.08-0.03c0.65,1.21,2.14,2.55,1.92,3.52C602.01,298.85,600.55,300.2,599.46,301.77z"/>
		<path class="st1" d="M618.81,291.53c0.77,1.95,1.33,3.21,1.75,4.52c0.2,0.61,0.4,1.43,0.15,1.94c-0.73,1.49-1.68,2.87-2.51,4.22
			c-0.91-1.31-2.44-2.64-2.79-4.24c-0.37-1.65,0.16-3.64,0.79-5.3C616.47,292.01,618.03,291.84,618.81,291.53z"/>
		<path class="st1" d="M609.94,301.42c-0.56-2.15-4.71-3.01-2.01-6.29c0.15-0.18-0.31-0.79-0.37-1.22c-0.22-1.45,0.32-2.22,1.91-2.2
			c1.43,0.02,2.07,0.27,2.43,2.02C612.51,296.71,611.01,298.89,609.94,301.42z"/>
		<path class="st3" d="M699.24,268.48c1.34,0.93,2.46,1.71,3.43,2.38c-0.21,2.18-0.4,4.25-0.66,6.97c-1.14-0.22-2.77-0.08-3.52-0.82
			c-0.6-0.6-0.16-2.27-0.13-3.46c0.03-1.27,0.03-2.54,0.19-3.8C698.62,269.23,699.08,268.76,699.24,268.48z"/>
		<path class="st3" d="M550.15,311.39c-0.31-1.02-0.71-2.02-0.92-3.07c-0.17-0.87-0.16-1.79-0.14-2.69c0.02-0.91-0.1-1.96,0.32-2.67
			c0.22-0.37,1.72-0.46,2.18-0.1c0.84,0.66,2,1.89,1.84,2.63c-0.43,2.02-1.47,3.91-2.27,5.85
			C550.83,311.36,550.49,311.38,550.15,311.39z"/>
		<path class="st3" d="M705.76,277.64c-1.09-1.29-3.14-1.79-1.59-4.26c0.61-0.97-0.26-2.79-0.14-4.19c0.05-0.59,0.93-1.1,1.83-1.48
			C705.04,271.05,708.96,274.11,705.76,277.64z"/>
		<path class="st3" d="M518.15,329.75c-1.29-1.69-4.95-2.3-2.33-5.08c0.85-0.9,3.92-1.28,4.43-0.65
			C522.46,326.74,518.63,327.59,518.15,329.75z"/>
	</g>
</g>
</svg>
