<?xml version="1.0" encoding="utf-8"?>
<!-- Generator: Adobe Illustrator 26.5.0, SVG Export Plug-In . SVG Version: 6.00 Build 0)  -->
<svg version="1.1" id="Layer_1" xmlns="http://www.w3.org/2000/svg" xmlns:xlink="http://www.w3.org/1999/xlink" x="0px" y="0px"
	 viewBox="0 0 1150 700" style="enable-background:new 0 0 1150 700;" xml:space="preserve">
<style type="text/css">
	.st0{fill:#FEFEFE;}
	.st1{fill:#ADC5EB;}
</style>
<g>
	<g>
		<path class="st0" d="M969.18,446c-262.73,0-525.45,0-788.18,0c0-64,0-128,0-192c262.73,0,525.45,0,788.18,0
			C969.18,318,969.18,382,969.18,446z M454.79,306.67c-0.01-0.26-0.02-0.52-0.02-0.77c-1.16-0.04-2.49-0.46-3.45-0.05
			c-3.12,1.33-6.1,2.57-9.55,1c-0.9-0.41-2.17-0.19-3.24-0.03c-4.17,0.64-8.32,1.42-12.49,2.04c-1.24,0.19-2.54,0.11-3.81,0.02
			c-4.4-0.31-8.79-0.69-13.18-1.04c-0.9-0.07-1.95,0.17-2.68-0.21c-2.87-1.49-5.45-0.85-7.93,0.79c-2.51,1.65-4.67,1.18-6.91-0.65
			c-1.14-0.94-2.66-1.99-4.02-2c-8-0.07-15.87-2.41-23.95-1.22c-4.74,0.7-9.45,1.23-13.67,3.82c-3.22,1.98-6.54,3.84-9.95,5.46
			c-2.79,1.33-5.87,2.06-8.66,3.39c-3.33,1.59-6.44,3.61-9.73,5.29c-1.84,0.94-3.92,1.43-5.75,2.39
			c-7.58,3.99-15.15,8.01-22.65,12.16c-2.97,1.64-5.88,3.38-7.54,6.68c-3.26,6.46-8.51,11.01-14.63,14.7
			c-1.29,0.78-2.36,1.98-3.37,3.12c-1.72,1.93-3.32,3.98-4.97,5.98c-0.57,0.7-1.08,1.45-1.7,2.1c-2.67,2.82-5.27,5.71-8.09,8.37
			c-2.09,1.98-4.88,3.32-6.64,5.52c-3.31,4.14-7.77,5.93-12.51,7.52c-2.29,0.77-4.53,1.74-6.7,2.8c-4.12,2.01-7.99,4.81-12.32,6.06
			c-5.46,1.57-10.89,2.9-15.45,6.45c-0.36,0.28-0.73,0.85-0.69,1.25c0.04,0.44,0.47,1.06,0.88,1.2c0.65,0.23,1.42,0.2,2.14,0.18
			c11.18-0.19,22.39-0.72,33.53-0.85c43.39-0.49,86.79,0.26,130.18,0.28c194.22,0.06,388.45,0.03,582.67,0.03c0.98,0,1.95,0,2.88,0
			c0.33-1.22,0.42-2.87,0.85-2.96c2.58-0.56,1.7-2.49,1.7-3.91c0.04-26.11,0.05-52.21-0.01-78.32c0-1.72,0.93-3.85-1.41-5.03
			c-0.22-0.11-0.17-0.85-0.15-1.29c0.15-2.79,0.26-5.58,0.53-8.36c0.17-1.65,0.62-3.28,1.06-5.53c-1.6-0.19-3.63-0.42-5.66-0.69
			c-2.73-0.36-5.68-0.24-8.12-1.29c-2.65-1.14-5.02-1.7-7.79-0.98c-2.08,0.54-4.33,1.43-6.32,1.09c-4.13-0.71-8.07-1.36-11.85,1.11
			c-0.31,0.2-0.88,0-1.33,0.01c-3.12,0.08-6.24,0.16-9.36,0.27c-0.88,0.03-1.79,0.32-2.64,0.21c-5.79-0.8-11.56-1.69-17.35-2.5
			c-0.46-0.06-0.97,0.19-1.77,0.37c0.55,0.91,0.93,1.55,1.24,2.06c-4.22,1.41-8.19,0.79-12.18-1.32c-3.06-1.61-6.05-0.15-9.07,1.23
			c0.64,1.03,1.12,1.81,1.84,2.99c-1.59,0-2.73-0.01-3.87,0c-3.12,0.04-6.25,0.12-9.37,0.13c-1.2,0-2.45,0.06-3.58-0.27
			c-2.94-0.86-5.79-1.93-8.95-0.91c-3.88,1.25-7.8,2.17-11.75,0.09c-0.42-0.22-1.08-0.09-1.61-0.01c-7.65,1.21-15.3,1.75-23.05,0.8
			c-2.37-0.29-4.82,0.08-7.23,0.15c-1.85,0.06-3.7,0.09-5.55,0.2c-2.56,0.16-5.61,1.38-7.59,0.41c-6.67-3.26-13.94-1.28-20.74-3.1
			c-2.95-0.79-6.26,0.68-9.42,0.91c-5.94,0.43-11.59,0.13-17.32-1.12c-2.34-0.51-4.77-0.66-7.17-0.83
			c-1.28-0.09-2.65,0.38-3.87,0.11c-4.39-0.97-8.73-2.17-13.11-3.21c-0.61-0.15-1.61-0.15-1.94,0.22c-3.76,4.19-9.18,3.63-13.6,3.4
			c-6.77-0.35-13.4-1.77-19.89,1.32c-0.38,0.18-0.89,0.17-1.34,0.14c-6.06-0.38-11.85,0.78-17.54,2.78c-0.76,0.27-1.7,0-2.55,0.01
			c-3.95,0.04-7.9,0.09-11.85,0.16c-0.25,0-0.53,0.18-0.73,0.34c-1.36,1.11-2.58,0.53-3.99-0.04c-1.79-0.72-3.74-1.5-5.61-1.47
			c-4.95,0.09-9.9,0.95-14.83,0.83c-3.5-0.08-6.99-1.89-10.36,0.6c-0.41,0.31-1.24,0.07-1.88,0.06c-6.33-0.17-12.67-0.41-19-0.49
			c-2.31-0.03-4.29-0.43-6.35-1.71c-5.31-3.29-8.52-2.87-12.22,1.07c-0.1,0.1-0.06,0.32-0.16,0.87c0.42,0.27,1.03,0.65,1.51,0.95
			c-1.22,0.61-2.34,1.17-3.66,1.83c0.88,0.99,1.42,1.59,1.94,2.18c-6.13-0.52-12.17-0.77-18.13-1.64c-3.3-0.48-6.08-0.51-8.3,2.27
			c-3.26-4.82-7.72-6.46-12.33-5.56c-1.17-1.55-1.74-2.98-2.75-3.45c-1.01-0.47-2.57-0.26-3.71,0.16
			c-5.77,2.13-11.59,0.94-17.33,0.16c-3.29-0.45-6.22-0.63-9.02,1.42c-0.84,0.62-1.92,1.24-2.91,1.29
			c-5.6,0.29-11.21,0.6-16.81,0.53c-4.31-0.05-8.63-0.61-12.93-1c-1.3-0.12-2.58-0.43-4.24-0.73
			C456.05,305.69,455.42,306.18,454.79,306.67z"/>
		<path class="st1" d="M454.79,306.67c0.63-0.49,1.26-0.99,1.54-1.2c1.66,0.29,2.94,0.61,4.24,0.73c4.31,0.39,8.62,0.95,12.93,1
			c5.6,0.07,11.21-0.24,16.81-0.53c1-0.05,2.07-0.67,2.91-1.29c2.8-2.06,5.73-1.87,9.02-1.42c5.73,0.78,11.55,1.96,17.33-0.16
			c1.13-0.42,2.7-0.63,3.71-0.16c1.01,0.47,1.58,1.9,2.75,3.45c4.6-0.9,9.07,0.73,12.33,5.56c2.22-2.78,5-2.75,8.3-2.27
			c5.95,0.87,12,1.12,18.13,1.64c-0.52-0.59-1.06-1.19-1.94-2.18c1.32-0.66,2.44-1.22,3.66-1.83c-0.48-0.3-1.09-0.68-1.51-0.95
			c0.09-0.55,0.06-0.77,0.16-0.87c3.7-3.94,6.91-4.36,12.22-1.07c2.06,1.28,4.04,1.68,6.35,1.71c6.33,0.08,12.67,0.32,19,0.49
			c0.64,0.02,1.46,0.25,1.88-0.06c3.37-2.5,6.86-0.69,10.36-0.6c4.93,0.12,9.88-0.74,14.83-0.83c1.87-0.03,3.82,0.75,5.61,1.47
			c1.41,0.57,2.63,1.15,3.99,0.04c0.2-0.17,0.48-0.34,0.73-0.34c3.95-0.07,7.9-0.12,11.85-0.16c0.86-0.01,1.8,0.26,2.55-0.01
			c5.68-2,11.48-3.17,17.54-2.78c0.44,0.03,0.96,0.04,1.34-0.14c6.49-3.1,13.11-1.67,19.89-1.32c4.42,0.23,9.84,0.79,13.6-3.4
			c0.33-0.37,1.33-0.36,1.94-0.22c4.38,1.04,8.72,2.24,13.11,3.21c1.22,0.27,2.58-0.2,3.87-0.11c2.4,0.18,4.83,0.32,7.17,0.83
			c5.74,1.25,11.38,1.55,17.32,1.12c3.16-0.23,6.47-1.7,9.42-0.91c6.81,1.82,14.07-0.16,20.74,3.1c1.99,0.97,5.03-0.25,7.59-0.41
			c1.85-0.12,3.7-0.14,5.55-0.2c2.41-0.07,4.86-0.44,7.23-0.15c7.74,0.96,15.4,0.42,23.05-0.8c0.53-0.08,1.19-0.22,1.61,0.01
			c3.95,2.07,7.87,1.16,11.75-0.09c3.16-1.02,6.01,0.05,8.95,0.91c1.12,0.33,2.38,0.28,3.58,0.27c3.12-0.01,6.25-0.09,9.37-0.13
			c1.14-0.02,2.29,0,3.87,0c-0.73-1.18-1.21-1.96-1.84-2.99c3.02-1.38,6.01-2.84,9.07-1.23c3.99,2.11,7.96,2.73,12.18,1.32
			c-0.31-0.51-0.69-1.15-1.24-2.06c0.81-0.18,1.31-0.44,1.77-0.37c5.79,0.82,11.56,1.7,17.35,2.5c0.86,0.12,1.76-0.17,2.64-0.21
			c3.12-0.11,6.24-0.19,9.36-0.27c0.45-0.01,1.02,0.2,1.33-0.01c3.78-2.47,7.71-1.82,11.85-1.11c1.99,0.34,4.24-0.55,6.32-1.09
			c2.77-0.72,5.15-0.16,7.79,0.98c2.44,1.05,5.39,0.93,8.12,1.29c2.03,0.27,4.06,0.5,5.66,0.69c-0.44,2.25-0.9,3.88-1.06,5.53
			c-0.28,2.78-0.38,5.57-0.53,8.36c-0.02,0.44-0.07,1.18,0.15,1.29c2.34,1.18,1.41,3.31,1.41,5.03c0.05,26.11,0.05,52.21,0.01,78.32
			c0,1.42,0.88,3.35-1.7,3.91c-0.43,0.09-0.52,1.74-0.85,2.96c-0.92,0-1.9,0-2.88,0c-194.22,0-388.45,0.03-582.67-0.03
			c-43.4-0.01-86.8-0.76-130.18-0.28c-11.14,0.12-22.35,0.66-33.53,0.85c-0.72,0.01-1.49,0.05-2.14-0.18
			c-0.4-0.14-0.83-0.76-0.88-1.2c-0.04-0.4,0.33-0.97,0.69-1.25c4.57-3.55,9.99-4.88,15.45-6.45c4.33-1.25,8.2-4.05,12.32-6.06
			c2.17-1.06,4.41-2.03,6.7-2.8c4.74-1.59,9.2-3.39,12.51-7.52c1.76-2.2,4.55-3.54,6.64-5.52c2.82-2.66,5.42-5.55,8.09-8.37
			c0.62-0.65,1.13-1.41,1.7-2.1c1.65-2,3.25-4.04,4.97-5.98c1.02-1.14,2.09-2.34,3.37-3.12c6.12-3.7,11.38-8.25,14.63-14.7
			c1.66-3.3,4.57-5.04,7.54-6.68c7.5-4.14,15.06-8.17,22.65-12.16c1.83-0.96,3.91-1.45,5.75-2.39c3.28-1.68,6.4-3.7,9.73-5.29
			c2.79-1.33,5.87-2.06,8.66-3.39c3.41-1.63,6.72-3.49,9.95-5.46c4.22-2.59,8.94-3.12,13.67-3.82c8.08-1.19,15.95,1.16,23.95,1.22
			c1.36,0.01,2.87,1.07,4.02,2c2.24,1.83,4.4,2.3,6.91,0.65c2.49-1.64,5.06-2.27,7.93-0.79c0.73,0.38,1.78,0.14,2.68,0.21
			c4.39,0.35,8.78,0.72,13.18,1.04c1.26,0.09,2.56,0.16,3.81-0.02c4.17-0.62,8.32-1.4,12.49-2.04c1.06-0.16,2.33-0.38,3.24,0.03
			c3.45,1.57,6.43,0.33,9.55-1c0.97-0.41,2.29,0.01,3.45,0.05C454.77,306.16,454.78,306.42,454.79,306.67z"/>
	</g>
</g>
</svg>
