<?xml version="1.0" encoding="UTF-8"?><svg id="Layer_1" xmlns="http://www.w3.org/2000/svg" viewBox="0 0 295.3 243.17"><defs><style>.cls-1{fill:#efcf8c;font-family:OpenSansRoman-ExtraBold, 'Open Sans';font-size:20px;font-variation-settings:'wght' 800, 'wdth' 100;font-weight:700;}.cls-2{fill:#f5dfaf;}.cls-2,.cls-3{stroke:#231f20;stroke-miterlimit:10;stroke-width:2px;}.cls-3{fill:#d2d2d2;}</style></defs><path class="cls-3" d="m108.61,230.14c-54.85-5.57-97.66-51.9-97.66-108.22C10.95,61.83,59.66,13.13,119.73,13.13v56.7c-28.76,0-52.08,23.32-52.08,52.08,0,27.04,20.6,49.26,46.97,51.83l-5.12,56.47"/><path class="cls-2" d="m119.73,69.83c28.76,0,52.08,23.32,52.08,52.08s-23.32,52.08-52.08,52.08c-1.73,0-3.43-.08-5.12-.25l-6.01,56.39c3.66.37,7.37.56,11.12.56,60.08,0,108.78-48.7,108.78-108.78S179.81,13.13,119.73,13.13v56.7Z"/><text class="cls-1" transform="translate(246.41 121.53)"><tspan x="0" y="0">54%</tspan></text></svg>