<?xml version="1.0" encoding="utf-8"?>
<!-- Generator: Adobe Illustrator 27.4.1, SVG Export Plug-In . SVG Version: 6.00 Build 0)  -->
<svg version="1.1" id="Layer_1" xmlns="http://www.w3.org/2000/svg" xmlns:xlink="http://www.w3.org/1999/xlink" x="0px" y="0px"
	 viewBox="0 0 295.3 243.2" style="enable-background:new 0 0 295.3 243.2;" xml:space="preserve">
<style type="text/css">
	.st0{fill:#E6B157;}
	.st1{font-family:'OpenSans-Bold';}
	.st2{font-size:20px;}
	.st3{fill:#D2D2D2;stroke:#231F20;stroke-width:2;stroke-miterlimit:10;}
	.st4{fill:#E6B157;stroke:#231F20;stroke-width:2;stroke-miterlimit:10;}
</style>
<text transform="matrix(1 0 0 1 246.41 121.53)" class="st0 st1 st2">90%</text>
<path class="st3" d="M89.1,79.8L55.8,33.9l0,0c17.9-13.1,40-20.8,63.9-20.8v56.7c-11.4,0-21.9,3.6-30.5,9.8"/>
<path class="st4" d="M89.1,79.8L55.8,33.9l0,0C28.6,53.7,11,85.7,11,121.9c0,60.1,48.7,108.8,108.8,108.8
	c60.1,0,108.8-48.7,108.8-108.8S179.8,13.1,119.7,13.1v56.7c28.8,0,52.1,23.3,52.1,52.1S148.5,174,119.7,174
	c-28.8,0-52.1-23.3-52.1-52.1c0-17.4,8.5-32.8,21.6-42.2"/>
</svg>
