<?xml version="1.0" encoding="UTF-8"?><svg id="Layer_1" xmlns="http://www.w3.org/2000/svg" viewBox="0 0 239.47 270.46"><defs><style>.cls-1,.cls-2{stroke:#231f20;stroke-miterlimit:10;stroke-width:2px;}.cls-1,.cls-3{fill:#5374b0;}.cls-2{fill:#d2d2d2;}.cls-3{font-family:OpenSansRoman-ExtraBold, 'Open Sans';font-size:20px;font-variation-settings:'wght' 800, 'wdth' 100;font-weight:700;}</style></defs><text class="cls-3" transform="translate(121.32 30.57)"><tspan x="0" y="0">6%</tspan></text><path class="cls-1" d="m137.02,47.99l-10.41,56.2h0c-3.04-.56-6.17-.85-9.36-.85v-57.16c6.75,0,13.36.62,19.78,1.8"/><path class="cls-2" d="m117.24,46.19c-59.95,0-108.54,48.6-108.54,108.54s48.6,108.54,108.54,108.54,108.54-48.6,108.54-108.54c0-53.19-38.26-97.45-88.77-106.75l-10.41,56.2c24.04,4.4,42.26,25.47,42.26,50.78,0,28.51-23.11,51.63-51.63,51.63s-51.63-23.11-51.63-51.63,23.11-51.63,51.63-51.63v-57.16Z"/></svg>