<?xml version="1.0" encoding="utf-8"?>
<!-- Generator: Adobe Illustrator 26.5.0, SVG Export Plug-In . SVG Version: 6.00 Build 0)  -->
<svg version="1.1" id="Layer_1" xmlns="http://www.w3.org/2000/svg" xmlns:xlink="http://www.w3.org/1999/xlink" x="0px" y="0px"
	 viewBox="0 0 1150 700" style="enable-background:new 0 0 1150 700;" xml:space="preserve">
<style type="text/css">
	.st0{fill:#FEFEFE;}
	.st1{fill:#E5B057;}
</style>
<g>
	<g>
		<path class="st0" d="M18,484.36c0-89.45,0-178.91,0-268.36c371.09,0,742.18,0,1113.27,0c0,89.45,0,178.91,0,268.36
			C760.18,484.36,389.09,484.36,18,484.36z M26.18,473.54c309.23,0,618.18,0,927.83,0c-3.25-5.76-6-11.44-9.51-16.62
			c-3.14-4.63-7.05-8.76-10.76-12.99c-1.03-1.17-2.42-2.23-3.86-2.79c-10.24-3.98-20.54-7.82-30.83-11.7
			c-11.96-4.51-22.41-11.2-30.84-20.93c-1.17-1.34-2.92-2.35-4.6-3.05c-8.09-3.39-16.47-6.18-24.34-10.01
			c-19.61-9.54-39.02-19.51-58.47-29.38c-2.24-1.14-4.57-2.37-6.36-4.08c-3.06-2.93-5.7-6.29-8.56-9.43
			c-2.74-3.01-5.1-6.63-8.41-8.81c-5.64-3.71-11.89-6.5-17.88-9.69c-4.86-2.59-10.04-4.74-14.48-7.91
			c-4.77-3.41-8.84-7.8-13.24-11.73c-2.16-1.93-4.16-4.21-6.63-5.61c-5.98-3.38-12.19-6.35-18.33-9.44c-1.04-0.52-2.19-1-3.33-1.11
			c-8.18-0.76-15.63-3.28-22.72-7.58c-4.34-2.64-7.71-5.69-10.28-10.01c-0.95-1.6-3.06-2.65-4.85-3.57
			c-1.79-0.92-4.03-1.05-5.73-2.09c-3.04-1.87-6.51-3.39-7.75-7.37c-0.22-0.7-2.14-0.96-3.32-1.23c-0.66-0.15-1.43,0.19-2.13,0.12
			c-3.21-0.3-6.42-0.94-9.63-0.94c-3.8,0-7.25-0.7-10.66-2.42c-1.57-0.79-3.69-0.98-5.49-0.77c-2.64,0.31-5.18,1.32-7.81,1.81
			c-0.92,0.17-2.2-0.02-2.93-0.57c-4.66-3.5-9.62-5.47-15.6-4.2c-1.86,0.4-3.92,0.44-5.79,0.09c-3.51-0.64-6.94-1.73-10.43-2.52
			c-1.31-0.3-2.72-0.14-4.02-0.45c-2.2-0.53-4.33-1.34-6.52-1.92c-4.85-1.3-10.33,0.01-14.65-3.6c-0.63-0.52-1.68-0.67-2.56-0.74
			c-3.42-0.25-6.87-0.18-10.26-0.64c-3.34-0.45-6.97-0.74-9.85-2.26c-4.82-2.55-9.94-2.95-15.07-3.65
			c-4.72-0.65-9.69-0.48-14.12-1.95c-6.88-2.27-13.29-2-20.01,0.26c-3.17,1.06-6.69,1.09-10.03,1.69c-4.74,0.85-9.44,2.21-14.21,2.6
			c-7.03,0.57-14.11,0.6-21.17,0.63c-5.09,0.02-10.17-0.36-15.26-0.49c-1.25-0.03-2.5,0.26-3.76,0.28
			c-2.52,0.03-5.04,0.11-7.55-0.07c-4.96-0.36-10.28-1.24-14.53,1.5c-6.97,4.5-14.67,7.16-22.22,10.22
			c-2.3,0.93-5.08,0.77-7.65,0.94c-2.21,0.15-4.45-0.01-6.66,0.09c-3.28,0.15-6.54,0.54-9.82,0.58c-2.93,0.04-5.79,0.04-8.15,2.15
			c-3.2,2.87-6.42,5.7-9.58,8.61c-0.91,0.84-1.46,2.22-2.49,2.77c-5.92,3.18-11.91,6.24-17.93,9.24c-2.32,1.15-4.93,1.77-7.15,3.08
			c-9.87,5.86-19.68,11.83-29.44,17.87c-2.36,1.46-4.66,3.11-6.67,5c-4.73,4.43-10.32,6.97-16.52,8.61
			c-3.36,0.89-6.76,2.06-9.75,3.79c-5.57,3.21-10.98,6.76-16.23,10.46c-5.91,4.17-12.05,7.9-19.07,9.69
			c-4.95,1.26-10.05,1.83-14.17,5.28c-0.66,0.55-1.62,0.81-2.48,1.05c-3.7,1.04-7.46,1.89-11.11,3.06
			c-7.74,2.47-15.46,4.98-23.11,7.71c-3.32,1.19-6.32,3.03-7.69,6.69c-0.3,0.8-1.28,1.56-2.13,1.89
			c-6.07,2.38-12.18,4.66-18.28,6.95c-0.5,0.19-1.01,0.39-1.53,0.42c-3.7,0.21-7.4,0.57-11.09,0.52c-4.62-0.07-8.3,1.71-11.76,4.61
			c-1.64,1.38-3.75,2.46-5.82,3.03c-9.8,2.7-18.2,7.38-24.38,15.69c-0.71,0.96-2.43,1.73-3.63,1.65c-3.22-0.2-5.76,0.98-8.27,2.75
			c-1.12,0.79-2.59,1.07-3.83,1.73c-2.57,1.38-5.28,2.62-7.58,4.37c-2.3,1.75-2.69,4.36-2.66,7.37c0.2,18.05,0.1,36.1,0.1,54.15
			C26.18,471.24,26.18,472.21,26.18,473.54z"/>
		<path class="st1" d="M26.18,473.54c0-1.33,0-2.3,0-3.28c0-18.05,0.1-36.1-0.1-54.15c-0.03-3.01,0.35-5.62,2.66-7.37
			c2.3-1.75,5.01-2.99,7.58-4.37c1.23-0.66,2.7-0.94,3.83-1.73c2.51-1.77,5.05-2.95,8.27-2.75c1.19,0.07,2.92-0.7,3.63-1.65
			c6.17-8.32,14.58-13,24.38-15.69c2.07-0.57,4.18-1.65,5.82-3.03c3.46-2.9,7.14-4.68,11.76-4.61c3.69,0.05,7.39-0.3,11.09-0.52
			c0.52-0.03,1.04-0.24,1.53-0.42c6.1-2.3,12.21-4.57,18.28-6.95c0.85-0.33,1.83-1.1,2.13-1.89c1.37-3.66,4.37-5.51,7.69-6.69
			c7.64-2.74,15.37-5.24,23.11-7.71c3.66-1.17,7.41-2.02,11.11-3.06c0.86-0.24,1.82-0.5,2.48-1.05c4.12-3.45,9.22-4.02,14.17-5.28
			c7.01-1.79,13.16-5.52,19.07-9.69c5.26-3.71,10.66-7.25,16.23-10.46c2.99-1.72,6.39-2.9,9.75-3.79c6.2-1.64,11.79-4.18,16.52-8.61
			c2.02-1.89,4.32-3.54,6.67-5c9.77-6.03,19.57-12.01,29.44-17.87c2.21-1.31,4.83-1.93,7.15-3.08c6.02-3,12.01-6.05,17.93-9.24
			c1.03-0.55,1.58-1.93,2.49-2.77c3.16-2.91,6.38-5.74,9.58-8.61c2.35-2.11,5.21-2.11,8.15-2.15c3.27-0.04,6.54-0.43,9.82-0.58
			c2.22-0.1,4.45,0.06,6.66-0.09c2.57-0.17,5.35-0.01,7.65-0.94c7.55-3.06,15.25-5.72,22.22-10.22c4.25-2.74,9.56-1.86,14.53-1.5
			c2.5,0.18,5.03,0.1,7.55,0.07c1.25-0.02,2.51-0.31,3.76-0.28c5.09,0.14,10.18,0.52,15.26,0.49c7.06-0.03,14.14-0.06,21.17-0.63
			c4.78-0.39,9.47-1.75,14.21-2.6c3.34-0.6,6.85-0.63,10.03-1.69c6.72-2.25,13.13-2.53,20.01-0.26c4.43,1.47,9.4,1.3,14.12,1.95
			c5.13,0.71,10.25,1.1,15.07,3.65c2.88,1.53,6.5,1.81,9.85,2.26c3.39,0.46,6.84,0.39,10.26,0.64c0.88,0.06,1.93,0.21,2.56,0.74
			c4.32,3.6,9.8,2.3,14.65,3.6c2.19,0.59,4.32,1.39,6.52,1.92c1.3,0.32,2.71,0.16,4.02,0.45c3.49,0.79,6.92,1.88,10.43,2.52
			c1.87,0.34,3.93,0.3,5.79-0.09c5.98-1.28,10.94,0.7,15.6,4.2c0.73,0.54,2,0.74,2.93,0.57c2.63-0.49,5.17-1.5,7.81-1.81
			c1.79-0.21,3.91-0.03,5.49,0.77c3.41,1.72,6.87,2.42,10.66,2.42c3.21,0,6.41,0.64,9.63,0.94c0.7,0.07,1.46-0.28,2.13-0.12
			c1.18,0.27,3.11,0.53,3.32,1.23c1.24,3.98,4.7,5.49,7.75,7.37c1.69,1.04,3.93,1.17,5.73,2.09c1.78,0.92,3.9,1.97,4.85,3.57
			c2.57,4.33,5.94,7.38,10.28,10.01c7.09,4.31,14.54,6.82,22.72,7.58c1.14,0.11,2.29,0.59,3.33,1.11
			c6.14,3.08,12.35,6.06,18.33,9.44c2.48,1.4,4.47,3.68,6.63,5.61c4.4,3.93,8.47,8.32,13.24,11.73c4.44,3.17,9.62,5.32,14.48,7.91
			c5.99,3.19,12.24,5.98,17.88,9.69c3.31,2.18,5.67,5.8,8.41,8.81c2.86,3.14,5.5,6.5,8.56,9.43c1.79,1.71,4.12,2.94,6.36,4.08
			c19.46,9.86,38.86,19.83,58.47,29.38c7.87,3.83,16.25,6.62,24.34,10.01c1.68,0.7,3.43,1.71,4.6,3.05
			c8.43,9.73,18.88,16.42,30.84,20.93c10.28,3.88,20.58,7.72,30.83,11.7c1.44,0.56,2.83,1.62,3.86,2.79
			c3.71,4.23,7.62,8.35,10.76,12.99c3.51,5.18,6.26,10.86,9.51,16.62C644.36,473.54,335.41,473.54,26.18,473.54z"/>
	</g>
</g>
</svg>
